  0
SECTION
  2
HEADER
  9
$ACADVER
  1
AC1027
  9
$ACADMAINTVER
 70
     8
  9
$DWGCODEPAGE
  3
ANSI_1252
  9
$REQUIREDVERSIONS
160
                 0
  9
$LASTSAVEDBY
  1
yorik
  9
$INSBASE
 10
0.0
 20
0.0
 30
0.0
  9
$EXTMIN
 10
1.000000000000000E+20
 20
1.000000000000000E+20
 30
1.000000000000000E+20
  9
$EXTMAX
 10
-1.000000000000000E+20
 20
-1.000000000000000E+20
 30
-1.000000000000000E+20
  9
$LIMMIN
 10
0.0
 20
0.0
  9
$LIMMAX
 10
12.0
 20
9.0
  9
$ORTHOMODE
 70
     0
  9
$REGENMODE
 70
     1
  9
$FILLMODE
 70
     1
  9
$QTEXTMODE
 70
     0
  9
$MIRRTEXT
 70
     1
  9
$LTSCALE
 40
1.0
  9
$ATTMODE
 70
     1
  9
$TEXTSIZE
 40
1.0
  9
$TRACEWID
 40
0.05
  9
$TEXTSTYLE
  7
STANDARD
  9
$CLAYER
  8
0
  9
$CELTYPE
  6
ByBlock
  9
$CECOLOR
 62
   256
  9
$CELTSCALE
 40
1.0
  9
$DISPSILH
 70
     0
  9
$DIMSCALE
 40
1.0
  9
$DIMASZ
 40
0.18
  9
$DIMEXO
 40
0.0625
  9
$DIMDLI
 40
0.38
  9
$DIMRND
 40
0.0
  9
$DIMDLE
 40
0.0
  9
$DIMEXE
 40
0.18
  9
$DIMTP
 40
0.0
  9
$DIMTM
 40
0.0
  9
$DIMTXT
 40
100.0
  9
$DIMCEN
 40
0.09
  9
$DIMTSZ
 40
0.0
  9
$DIMTOL
 70
     0
  9
$DIMLIM
 70
     0
  9
$DIMTIH
 70
     1
  9
$DIMTOH
 70
     1
  9
$DIMSE1
 70
     0
  9
$DIMSE2
 70
     0
  9
$DIMTAD
 70
     0
  9
$DIMZIN
 70
     0
  9
$DIMBLK
  1

  9
$DIMASO
 70
     1
  9
$DIMSHO
 70
     1
  9
$DIMPOST
  1

  9
$DIMAPOST
  1

  9
$DIMALT
 70
     0
  9
$DIMALTD
 70
     2
  9
$DIMALTF
 40
25.4
  9
$DIMLFAC
 40
1.0
  9
$DIMTOFL
 70
     0
  9
$DIMTVP
 40
0.0
  9
$DIMTIX
 70
     0
  9
$DIMSOXD
 70
     0
  9
$DIMSAH
 70
     0
  9
$DIMBLK1
  1

  9
$DIMBLK2
  1

  9
$DIMSTYLE
  2
Standard
  9
$DIMCLRD
 70
     0
  9
$DIMCLRE
 70
     0
  9
$DIMCLRT
 70
     0
  9
$DIMTFAC
 40
1.0
  9
$DIMGAP
 40
0.09
  9
$DIMJUST
 70
     0
  9
$DIMSD1
 70
     0
  9
$DIMSD2
 70
     0
  9
$DIMTOLJ
 70
     1
  9
$DIMTZIN
 70
     0
  9
$DIMALTZ
 70
     0
  9
$DIMALTTZ
 70
     0
  9
$DIMUPT
 70
     0
  9
$DIMDEC
 70
     4
  9
$DIMTDEC
 70
     4
  9
$DIMALTU
 70
     2
  9
$DIMALTTD
 70
     2
  9
$DIMTXSTY
  7
STANDARD
  9
$DIMAUNIT
 70
     0
  9
$DIMADEC
 70
     0
  9
$DIMALTRND
 40
0.0
  9
$DIMAZIN
 70
     0
  9
$DIMDSEP
 70
    46
  9
$DIMATFIT
 70
     3
  9
$DIMFRAC
 70
     0
  9
$DIMLDRBLK
  1

  9
$DIMLUNIT
 70
     2
  9
$DIMLWD
 70
    -2
  9
$DIMLWE
 70
    -2
  9
$DIMTMOVE
 70
     0
  9
$DIMFXL
 40
1.0
  9
$DIMFXLON
 70
     0
  9
$DIMJOGANG
 40
0.7853981633974483
  9
$DIMTFILL
 70
     0
  9
$DIMTFILLCLR
 70
     0
  9
$DIMARCSYM
 70
     0
  9
$DIMLTYPE
  6

  9
$DIMLTEX1
  6

  9
$DIMLTEX2
  6

  9
$DIMTXTDIRECTION
 70
     0
  9
$LUNITS
 70
     2
  9
$LUPREC
 70
     4
  9
$SKETCHINC
 40
0.1
  9
$FILLETRAD
 40
0.5
  9
$AUNITS
 70
     0
  9
$AUPREC
 70
     0
  9
$MENU
  1
.
  9
$ELEVATION
 40
0.0
  9
$PELEVATION
 40
0.0
  9
$THICKNESS
 40
0.0
  9
$LIMCHECK
 70
     0
  9
$CHAMFERA
 40
0.0
  9
$CHAMFERB
 40
0.0
  9
$CHAMFERC
 40
0.0
  9
$CHAMFERD
 40
0.0
  9
$SKPOLY
 70
     0
  9
$TDCREATE
 40
2457385.576203704
  9
$TDUCREATE
 40
2457385.701203704
  9
$TDUPDATE
 40
2457385.584652778
  9
$TDUUPDATE
 40
2457385.709652778
  9
$TDINDWG
 40
0.0000000116
  9
$TDUSRTIMER
 40
2457385.701203704
  9
$USRTIMER
 70
     1
  9
$ANGBASE
 50
0.0
  9
$ANGDIR
 70
     0
  9
$PDMODE
 70
     0
  9
$PDSIZE
 40
0.0
  9
$PLINEWID
 40
0.0
  9
$SPLFRAME
 70
     0
  9
$SPLINETYPE
 70
     6
  9
$SPLINESEGS
 70
     8
  9
$HANDSEED
  5
27E
  9
$SURFTAB1
 70
     6
  9
$SURFTAB2
 70
     6
  9
$SURFTYPE
 70
     6
  9
$SURFU
 70
     6
  9
$SURFV
 70
     6
  9
$UCSBASE
  2

  9
$UCSNAME
  2

  9
$UCSORG
 10
0.0
 20
0.0
 30
0.0
  9
$UCSXDIR
 10
1.0
 20
0.0
 30
0.0
  9
$UCSYDIR
 10
0.0
 20
1.0
 30
0.0
  9
$UCSORTHOREF
  2

  9
$UCSORTHOVIEW
 70
     0
  9
$UCSORGTOP
 10
0.0
 20
0.0
 30
0.0
  9
$UCSORGBOTTOM
 10
0.0
 20
0.0
 30
0.0
  9
$UCSORGLEFT
 10
0.0
 20
0.0
 30
0.0
  9
$UCSORGRIGHT
 10
0.0
 20
0.0
 30
0.0
  9
$UCSORGFRONT
 10
0.0
 20
0.0
 30
0.0
  9
$UCSORGBACK
 10
0.0
 20
0.0
 30
0.0
  9
$PUCSBASE
  2

  9
$PUCSNAME
  2

  9
$PUCSORG
 10
0.0
 20
0.0
 30
0.0
  9
$PUCSXDIR
 10
1.0
 20
0.0
 30
0.0
  9
$PUCSYDIR
 10
0.0
 20
1.0
 30
0.0
  9
$PUCSORTHOREF
  2

  9
$PUCSORTHOVIEW
 70
     0
  9
$PUCSORGTOP
 10
0.0
 20
0.0
 30
0.0
  9
$PUCSORGBOTTOM
 10
0.0
 20
0.0
 30
0.0
  9
$PUCSORGLEFT
 10
0.0
 20
0.0
 30
0.0
  9
$PUCSORGRIGHT
 10
0.0
 20
0.0
 30
0.0
  9
$PUCSORGFRONT
 10
0.0
 20
0.0
 30
0.0
  9
$PUCSORGBACK
 10
0.0
 20
0.0
 30
0.0
  9
$USERI1
 70
     0
  9
$USERI2
 70
     0
  9
$USERI3
 70
     0
  9
$USERI4
 70
     0
  9
$USERI5
 70
     0
  9
$USERR1
 40
0.0
  9
$USERR2
 40
0.0
  9
$USERR3
 40
0.0
  9
$USERR4
 40
0.0
  9
$USERR5
 40
0.0
  9
$WORLDVIEW
 70
     1
  9
$SHADEDGE
 70
     3
  9
$SHADEDIF
 70
    70
  9
$TILEMODE
 70
     1
  9
$MAXACTVP
 70
    64
  9
$PINSBASE
 10
0.0
 20
0.0
 30
0.0
  9
$PLIMCHECK
 70
     0
  9
$PEXTMIN
 10
1.000000000000000E+20
 20
1.000000000000000E+20
 30
1.000000000000000E+20
  9
$PEXTMAX
 10
-1.000000000000000E+20
 20
-1.000000000000000E+20
 30
-1.000000000000000E+20
  9
$PLIMMIN
 10
0.0
 20
0.0
  9
$PLIMMAX
 10
0.0
 20
0.0
  9
$UNITMODE
 70
     0
  9
$VISRETAIN
 70
     1
  9
$PLINEGEN
 70
     0
  9
$PSLTSCALE
 70
     1
  9
$TREEDEPTH
 70
  3020
  9
$CMLSTYLE
  2
Standard
  9
$CMLJUST
 70
     0
  9
$CMLSCALE
 40
1.0
  9
$PROXYGRAPHICS
 70
     1
  9
$MEASUREMENT
 70
     1
  9
$CELWEIGHT
370
    -1
  9
$ENDCAPS
280
     0
  9
$JOINSTYLE
280
     0
  9
$LWDISPLAY
290
     1
  9
$INSUNITS
 70
     0
  9
$HYPERLINKBASE
  1

  9
$STYLESHEET
  1

  9
$XEDIT
290
     1
  9
$CEPSNTYPE
380
     0
  9
$PSTYLEMODE
290
     1
  9
$FINGERPRINTGUID
  2
{A4513417-D938-2C05-204E-64967BE6D9AC}
  9
$VERSIONGUID
  2
{FAEB1C32-E019-11D5-929B-00C0DF256EC4}
  9
$EXTNAMES
290
     1
  9
$PSVPSCALE
 40
0.0
  9
$OLESTARTUP
290
     0
  9
$SORTENTS
280
   127
  9
$INDEXCTL
280
     0
  9
$HIDETEXT
280
     1
  9
$XCLIPFRAME
280
     2
  9
$HALOGAP
280
     0
  9
$OBSCOLOR
 70
   257
  9
$OBSLTYPE
280
     0
  9
$INTERSECTIONDISPLAY
280
     0
  9
$INTERSECTIONCOLOR
 70
   257
  9
$DIMASSOC
280
     2
  9
$PROJECTNAME
  1

  9
$CAMERADISPLAY
290
     0
  9
$LENSLENGTH
 40
50.0
  9
$CAMERAHEIGHT
 40
0.0
  9
$STEPSPERSEC
 40
2.0
  9
$STEPSIZE
 40
6.0
  9
$3DDWFPREC
 40
2.0
  9
$PSOLWIDTH
 40
0.25
  9
$PSOLHEIGHT
 40
4.0
  9
$LOFTANG1
 40
1.570796326794897
  9
$LOFTANG2
 40
1.570796326794897
  9
$LOFTMAG1
 40
0.0
  9
$LOFTMAG2
 40
0.0
  9
$LOFTPARAM
 70
     7
  9
$LOFTNORMALS
280
     1
  9
$LATITUDE
 40
37.795
  9
$LONGITUDE
 40
-122.394
  9
$NORTHDIRECTION
 40
0.0
  9
$TIMEZONE
 70
 -8000
  9
$LIGHTGLYPHDISPLAY
280
     1
  9
$TILEMODELIGHTSYNCH
280
     1
  9
$SOLIDHIST
280
     0
  9
$SHOWHIST
280
     1
  9
$DWFFRAME
280
     2
  9
$DGNFRAME
280
     2
  9
$REALWORLDSCALE
290
     1
  9
$INTERFERECOLOR
 62
   256
  9
$CSHADOW
280
     0
  9
$SHADOWPLANELOCATION
 40
0.0
  0
ENDSEC
  0
SECTION
  2
CLASSES
  0
CLASS
  1
ACDBDICTIONARYWDFLT
  2
AcDbDictionaryWithDefault
  3
ObjectDBX Classes
 90
        0
 91
        4
280
     0
281
     0
  0
CLASS
  1
MATERIAL
  2
AcDbMaterial
  3
ObjectDBX Classes
 90
     1153
 91
        4
280
     0
281
     0
  0
CLASS
  1
SCALE
  2
AcDbScale
  3
ObjectDBX Classes
 90
     1153
 91
        4
280
     0
281
     0
  0
CLASS
  1
VISUALSTYLE
  2
AcDbVisualStyle
  3
ObjectDBX Classes
 90
     4095
 91
        4
280
     0
281
     0
  0
CLASS
  1
TABLESTYLE
  2
AcDbTableStyle
  3
ObjectDBX Classes
 90
     4095
 91
        4
280
     0
281
     0
  0
CLASS
  1
MLEADERSTYLE
  2
AcDbMLeaderStyle
  3
ACDB_MLEADERSTYLE_CLASS
 90
     4095
 91
        4
280
     0
281
     0
  0
CLASS
  1
SUN
  2
AcDbSun
  3
SCENEOE
 90
     1153
 91
        4
280
     0
281
     0
  0
CLASS
  1
RASTERVARIABLES
  2
AcDbRasterVariables
  3
ISM
 90
        0
 91
        4
280
     0
281
     0
  0
CLASS
  1
DICTIONARYVAR
  2
AcDbDictionaryVar
  3
ObjectDBX Classes
 90
        0
 91
        4
280
     0
281
     0
  0
CLASS
  1
CELLSTYLEMAP
  2
AcDbCellStyleMap
  3
ObjectDBX Classes
 90
     1152
 91
        4
280
     0
281
     0
  0
ENDSEC
  0
SECTION
  2
TABLES
  0
TABLE
  2
VPORT
  5
8
330
0
100
AcDbSymbolTable
 70
     1
  0
VPORT
  5
F3
330
8
100
AcDbSymbolTableRecord
100
AcDbViewportTableRecord
  2
*Active
 70
     0
 10
0.0
 20
0.0
 11
1.0
 21
1.0
 12
2556.274465965945
 22
928.3981967196687
 13
0.0
 23
0.0
 14
0.5
 24
0.5
 15
0.5
 25
0.5
 16
0.0
 26
0.0
 36
1.0
 17
0.0
 27
0.0
 37
0.0
 40
4653.791633609026
 41
2.045792079207921
 42
50.0
 43
0.0
 44
0.0
 50
0.0
 51
0.0
 71
    16
 72
   100
 73
     1
 74
     3
 75
     0
 76
     0
 77
     0
 78
     0
281
     0
 65
     1
110
0.0
120
0.0
130
0.0
111
1.0
121
0.0
131
0.0
112
0.0
122
1.0
132
0.0
 79
     0
146
0.0
348
1CE
 60
     3
 61
     5
292
     1
282
     1
141
0.0
142
0.0
 63
   250
361
1E7
  0
ENDTAB
  0
TABLE
  2
LTYPE
  5
5
330
0
100
AcDbSymbolTable
 70
     1
  0
LTYPE
  5
14
330
5
100
AcDbSymbolTableRecord
100
AcDbLinetypeTableRecord
  2
ByBlock
 70
     0
  3

 72
    65
 73
     0
 40
0.0
  0
LTYPE
  5
15
330
5
100
AcDbSymbolTableRecord
100
AcDbLinetypeTableRecord
  2
ByLayer
 70
     0
  3

 72
    65
 73
     0
 40
0.0
  0
LTYPE
  5
16
330
5
100
AcDbSymbolTableRecord
100
AcDbLinetypeTableRecord
  2
CONTINUOUS
 70
     0
  3
Solid line
 72
    65
 73
     0
 40
0.0
  0
ENDTAB
  0
TABLE
  2
LAYER
  5
2
330
0
100
AcDbSymbolTable
 70
     7
  0
LAYER
  5
10
330
2
100
AcDbSymbolTableRecord
100
AcDbLayerTableRecord
  2
0
 70
     0
 62
     7
  6
CONTINUOUS
370
    -3
390
F
347
25
348
0
  0
LAYER
  5
F4
330
2
100
AcDbSymbolTableRecord
100
AcDbLayerTableRecord
  2
Annotations
 70
     0
 62
     7
  6
CONTINUOUS
370
    -3
390
F
347
25
348
0
  0
LAYER
  5
F5
330
2
100
AcDbSymbolTableRecord
100
AcDbLayerTableRecord
  2
Walls
 70
     0
 62
     7
  6
CONTINUOUS
370
    -3
390
F
347
25
348
0
  0
LAYER
  5
F6
330
2
100
AcDbSymbolTableRecord
100
AcDbLayerTableRecord
  2
Doors & Windows
 70
     0
 62
     7
  6
CONTINUOUS
370
    -3
390
F
347
25
348
0
  0
LAYER
  5
F7
330
2
100
AcDbSymbolTableRecord
100
AcDbLayerTableRecord
  2
Furniture
 70
     0
 62
     7
  6
CONTINUOUS
370
    -3
390
F
347
25
348
0
  0
LAYER
  5
F8
330
2
100
AcDbSymbolTableRecord
100
AcDbLayerTableRecord
  2
Construction
 70
     0
 62
     7
  6
CONTINUOUS
370
    -3
390
F
347
25
348
0
  0
LAYER
  5
11D
330
2
100
AcDbSymbolTableRecord
100
AcDbLayerTableRecord
  2
Defpoints
 70
     0
 62
     7
  6
CONTINUOUS
290
     0
370
    -3
390
F
347
25
348
0
  0
ENDTAB
  0
TABLE
  2
STYLE
  5
3
330
0
100
AcDbSymbolTable
 70
     1
  0
STYLE
  5
11
330
3
100
AcDbSymbolTableRecord
100
AcDbTextStyleTableRecord
  2
STANDARD
 70
     0
 40
0.0
 41
1.0
 50
0.0
 71
     0
 42
1.0
  3
ARIAL.TTF
  4

  0
ENDTAB
  0
TABLE
  2
VIEW
  5
6
330
0
100
AcDbSymbolTable
 70
     0
  0
ENDTAB
  0
TABLE
  2
UCS
  5
7
330
0
100
AcDbSymbolTable
 70
     0
  0
ENDTAB
  0
TABLE
  2
APPID
  5
9
330
0
100
AcDbSymbolTable
 70
     1
  0
APPID
  5
12
330
9
100
AcDbSymbolTableRecord
100
AcDbRegAppTableRecord
  2
ACAD
 70
     0
  0
ENDTAB
  0
TABLE
  2
DIMSTYLE
  5
A
330
0
100
AcDbSymbolTable
 70
     1
100
AcDbDimStyleTable
  0
DIMSTYLE
105
27
330
A
100
AcDbSymbolTableRecord
100
AcDbDimStyleTableRecord
  2
Standard
 70
     0
140
100.0
178
     0
340
11
  0
ENDTAB
  0
TABLE
  2
BLOCK_RECORD
  5
1
330
0
100
AcDbSymbolTable
 70
    16
  0
BLOCK_RECORD
  5
1D
330
1
100
AcDbSymbolTableRecord
100
AcDbBlockTableRecord
  2
*Model_Space
340
1E
 70
     0
280
     1
281
     0
  0
BLOCK_RECORD
  5
1B
330
1
100
AcDbSymbolTableRecord
100
AcDbBlockTableRecord
  2
*Paper_Space
340
1C
 70
     0
280
     1
281
     0
  0
BLOCK_RECORD
  5
29
330
1
100
AcDbSymbolTableRecord
100
AcDbBlockTableRecord
  2
ENTITIES_0
340
0
102
{BLKREFS
331
A2
102
}
 70
     0
280
     1
281
     0
  0
BLOCK_RECORD
  5
60
330
1
100
AcDbSymbolTableRecord
100
AcDbBlockTableRecord
  2
ENTITIES_
340
0
102
{BLKREFS
331
A3
102
}
 70
     0
280
     1
281
     0
  0
BLOCK_RECORD
  5
11E
330
1
100
AcDbSymbolTableRecord
100
AcDbBlockTableRecord
  2
*D2
340
0
 70
     0
280
     1
281
     0
  0
BLOCK_RECORD
  5
12B
330
1
100
AcDbSymbolTableRecord
100
AcDbBlockTableRecord
  2
*D3
340
0
 70
     0
280
     1
281
     0
  0
BLOCK_RECORD
  5
138
330
1
100
AcDbSymbolTableRecord
100
AcDbBlockTableRecord
  2
*D4
340
0
 70
     0
280
     1
281
     0
  0
BLOCK_RECORD
  5
145
330
1
100
AcDbSymbolTableRecord
100
AcDbBlockTableRecord
  2
*D5
340
0
 70
     0
280
     1
281
     0
  0
BLOCK_RECORD
  5
152
330
1
100
AcDbSymbolTableRecord
100
AcDbBlockTableRecord
  2
*D6
340
0
 70
     0
280
     1
281
     0
  0
BLOCK_RECORD
  5
15F
330
1
100
AcDbSymbolTableRecord
100
AcDbBlockTableRecord
  2
*D7
340
0
 70
     0
280
     1
281
     0
  0
BLOCK_RECORD
  5
16C
330
1
100
AcDbSymbolTableRecord
100
AcDbBlockTableRecord
  2
*D8
340
0
 70
     0
280
     1
281
     0
  0
BLOCK_RECORD
  5
179
330
1
100
AcDbSymbolTableRecord
100
AcDbBlockTableRecord
  2
*D9
340
0
 70
     0
280
     1
281
     0
  0
BLOCK_RECORD
  5
186
330
1
100
AcDbSymbolTableRecord
100
AcDbBlockTableRecord
  2
*D10
340
0
 70
     0
280
     1
281
     0
  0
BLOCK_RECORD
  5
193
330
1
100
AcDbSymbolTableRecord
100
AcDbBlockTableRecord
  2
*D11
340
0
 70
     0
280
     1
281
     0
  0
BLOCK_RECORD
  5
1A0
330
1
100
AcDbSymbolTableRecord
100
AcDbBlockTableRecord
  2
*D12
340
0
 70
     0
280
     1
281
     0
  0
BLOCK_RECORD
  5
1AD
330
1
100
AcDbSymbolTableRecord
100
AcDbBlockTableRecord
  2
*D13
340
0
 70
     0
280
     1
281
     0
  0
BLOCK_RECORD
  5
1BA
330
1
100
AcDbSymbolTableRecord
100
AcDbBlockTableRecord
  2
*D14
340
0
 70
     0
280
     1
281
     0
  0
BLOCK_RECORD
  5
1ED
330
1
100
AcDbSymbolTableRecord
100
AcDbBlockTableRecord
  2
_DOT
340
0
102
{BLKREFS
331
0
331
0
331
13F
331
0
331
0
331
0
331
0
331
0
331
18D
331
0
331
0
331
0
331
0
331
0
331
0
331
0
331
0
331
159
331
0
331
174
331
180
331
0
331
19A
331
1A7
331
1B4
331
0
331
0
331
0
331
0
331
0
331
0
331
0
331
14E
331
168
331
175
331
0
331
0
331
0
331
0
331
0
331
127
331
0
331
0
331
0
331
0
331
0
331
0
331
0
331
0
331
0
331
0
331
0
331
0
331
158
331
17F
331
18C
331
199
331
1A6
331
1B3
331
0
331
0
331
0
331
0
331
13E
331
0
331
0
331
0
331
0
331
1C2
331
1C3
331
133
331
133
331
132
102
}
 70
     0
280
     1
281
     0
  0
ENDTAB
  0
ENDSEC
  0
SECTION
  2
BLOCKS
  0
BLOCK
  5
11B
330
1D
100
AcDbEntity
  8
0
100
AcDbBlockBegin
  2
*Model_Space
 70
     0
 10
0.0
 20
0.0
 30
0.0
  3
*Model_Space
  1
*Model_Space
  0
ENDBLK
  5
11C
330
1D
100
AcDbEntity
  8
0
100
AcDbBlockEnd
  0
BLOCK
  5
1C7
330
1B
100
AcDbEntity
 67
     1
  8
0
100
AcDbBlockBegin
  2
*Paper_Space
 70
     0
 10
0.0
 20
0.0
 30
0.0
  3
*Paper_Space
  1
*Paper_Space
  0
ENDBLK
  5
1C8
330
1B
100
AcDbEntity
 67
     1
  8
0
100
AcDbBlockEnd
  0
BLOCK
  5
28
330
29
100
AcDbEntity
  8
Furniture
100
AcDbBlockBegin
  2
ENTITIES_0
 70
     0
 10
0.0
 20
0.0
 30
0.0
  3
ENTITIES_0
  1
ENTITIES_0
  0
CIRCLE
  5
2A
330
29
100
AcDbEntity
  8
Furniture
 62
     0
100
AcDbCircle
 10
1579.29228028
 20
1475.69999997
 30
0.0
 40
91.28
  0
LINE
  5
2B
330
29
100
AcDbEntity
  8
Furniture
 62
     0
100
AcDbLine
 10
1579.29228028
 20
1556.97999997
 30
0.0
 11
1579.29228028
 21
1516.33999997
 31
0.0
  0
CIRCLE
  5
2C
330
29
100
AcDbEntity
  8
Furniture
 62
     0
100
AcDbCircle
 10
1579.29228028
 20
1475.69999997
 30
0.0
 40
81.28
  0
LINE
  5
2D
330
29
100
AcDbEntity
  8
Furniture
 62
     0
100
AcDbLine
 10
1198.71228028
 20
1249.99999997
 30
0.0
 11
1198.71228028
 21
1849.99999997
 31
0.0
  0
LINE
  5
2E
330
29
100
AcDbEntity
  8
Furniture
 62
     0
100
AcDbLine
 10
1698.71228028
 20
1249.99999997
 30
0.0
 11
1698.71228028
 21
1849.99999997
 31
0.0
  0
LINE
  5
2F
330
29
100
AcDbEntity
  8
Furniture
 62
     0
100
AcDbLine
 10
1198.71228028
 20
1249.99999997
 30
0.0
 11
1198.71228028
 21
1849.99999997
 31
0.0
  0
CIRCLE
  5
30
330
29
100
AcDbEntity
  8
Furniture
 62
     0
100
AcDbCircle
 10
1579.29228028
 20
1726.39999997
 30
0.0
 40
75.024
  0
CIRCLE
  5
31
330
29
100
AcDbEntity
  8
Furniture
 62
     0
100
AcDbCircle
 10
1335.45228028
 20
1706.07999997
 30
0.0
 40
91.28
  0
LINE
  5
32
330
29
100
AcDbEntity
  8
Furniture
 62
     0
100
AcDbLine
 10
1579.29228028
 20
1791.42399997
 30
0.0
 11
1579.29228028
 21
1758.91199997
 31
0.0
  0
LINE
  5
33
330
29
100
AcDbEntity
  8
Furniture
 62
     0
100
AcDbLine
 10
1335.45228028
 20
1787.35999997
 30
0.0
 11
1335.45228028
 21
1746.71999997
 31
0.0
  0
LINE
  5
34
330
29
100
AcDbEntity
  8
Furniture
 62
     0
100
AcDbLine
 10
1644.31628028
 20
1726.39999997
 30
0.0
 11
1611.80428028
 21
1726.39999997
 31
0.0
  0
LINE
  5
35
330
29
100
AcDbEntity
  8
Furniture
 62
     0
100
AcDbLine
 10
1416.73228028
 20
1706.07999997
 30
0.0
 11
1376.09228028
 21
1706.07999997
 31
0.0
  0
LINE
  5
36
330
29
100
AcDbEntity
  8
Furniture
 62
     0
100
AcDbLine
 10
1254.17228028
 20
1706.07999997
 30
0.0
 11
1294.81228028
 21
1706.07999997
 31
0.0
  0
CIRCLE
  5
37
330
29
100
AcDbEntity
  8
Furniture
 62
     0
100
AcDbCircle
 10
1579.29228028
 20
1726.39999997
 30
0.0
 40
65.024
  0
LINE
  5
38
330
29
100
AcDbEntity
  8
Furniture
 62
     0
100
AcDbLine
 10
1579.29228028
 20
1661.37599997
 30
0.0
 11
1579.29228028
 21
1693.88799997
 31
0.0
  0
LINE
  5
39
330
29
100
AcDbEntity
  8
Furniture
 62
     0
100
AcDbLine
 10
1514.26828028
 20
1726.39999997
 30
0.0
 11
1546.78028028
 21
1726.39999997
 31
0.0
  0
CIRCLE
  5
3A
330
29
100
AcDbEntity
  8
Furniture
 62
     0
100
AcDbCircle
 10
1335.45228028
 20
1706.07999997
 30
0.0
 40
81.28
  0
LINE
  5
3B
330
29
100
AcDbEntity
  8
Furniture
 62
     0
100
AcDbLine
 10
1335.45228028
 20
1624.79999997
 30
0.0
 11
1335.45228028
 21
1665.43999997
 31
0.0
  0
LINE
  5
3C
330
29
100
AcDbEntity
  8
Furniture
 62
     0
100
AcDbLine
 10
1698.71228028
 20
1849.99999997
 30
0.0
 11
1198.71228028
 21
1849.99999997
 31
0.0
  0
CIRCLE
  5
3D
330
29
100
AcDbEntity
  8
Furniture
 62
     0
100
AcDbCircle
 10
1335.45228028
 20
1455.37999997
 30
0.0
 40
75.024
  0
CIRCLE
  5
3E
330
29
100
AcDbEntity
  8
Furniture
 62
     0
100
AcDbCircle
 10
1381.09329531
 20
1284.33121865
 30
0.0
 40
20.5548047911
  0
CIRCLE
  5
3F
330
29
100
AcDbEntity
  8
Furniture
 62
     0
100
AcDbCircle
 10
1289.98593431
 20
1284.33121865
 30
0.0
 40
20.5548047911
  0
CIRCLE
  5
40
330
29
100
AcDbEntity
  8
Furniture
 62
     0
100
AcDbCircle
 10
1527.48593431
 20
1284.33121865
 30
0.0
 40
20.5548047911
  0
CIRCLE
  5
41
330
29
100
AcDbEntity
  8
Furniture
 62
     0
100
AcDbCircle
 10
1618.59329531
 20
1284.33121865
 30
0.0
 40
20.5548047911
  0
LINE
  5
42
330
29
100
AcDbEntity
  8
Furniture
 62
     0
100
AcDbLine
 10
1302.51791652
 20
1291.53401445
 30
0.0
 11
1281.30471308
 21
1270.32081101
 31
0.0
  0
LINE
  5
43
330
29
100
AcDbEntity
  8
Furniture
 62
     0
100
AcDbLine
 10
1281.30471308
 20
1270.32081101
 30
0.0
 11
1275.64785883
 21
1275.97766526
 31
0.0
  0
LINE
  5
44
330
29
100
AcDbEntity
  8
Furniture
 62
     0
100
AcDbLine
 10
1275.64785883
 20
1275.97766526
 30
0.0
 11
1296.86106227
 21
1297.1908687
 31
0.0
  0
LINE
  5
45
330
29
100
AcDbEntity
  8
Furniture
 62
     0
100
AcDbLine
 10
1296.86106227
 20
1297.1908687
 30
0.0
 11
1302.51791652
 21
1291.53401445
 31
0.0
  0
LINE
  5
46
330
29
100
AcDbEntity
  8
Furniture
 62
     0
100
AcDbLine
 10
1519.89049952
 20
1298.75583986
 30
0.0
 11
1541.10370295
 21
1277.54263642
 31
0.0
  0
LINE
  5
47
330
29
100
AcDbEntity
  8
Furniture
 62
     0
100
AcDbLine
 10
1541.10370295
 20
1277.54263642
 30
0.0
 11
1535.4468487
 21
1271.88578217
 31
0.0
  0
LINE
  5
48
330
29
100
AcDbEntity
  8
Furniture
 62
     0
100
AcDbLine
 10
1535.4468487
 20
1271.88578217
 30
0.0
 11
1514.23364527
 21
1293.09898561
 31
0.0
  0
LINE
  5
49
330
29
100
AcDbEntity
  8
Furniture
 62
     0
100
AcDbLine
 10
1514.23364527
 20
1293.09898561
 30
0.0
 11
1519.89049952
 21
1298.75583986
 31
0.0
  0
LINE
  5
4A
330
29
100
AcDbEntity
  8
Furniture
 62
     0
100
AcDbLine
 10
1372.39049952
 20
1298.75583986
 30
0.0
 11
1393.60370295
 21
1277.54263642
 31
0.0
  0
LINE
  5
4B
330
29
100
AcDbEntity
  8
Furniture
 62
     0
100
AcDbLine
 10
1393.60370295
 20
1277.54263642
 30
0.0
 11
1387.9468487
 21
1271.88578217
 31
0.0
  0
LINE
  5
4C
330
29
100
AcDbEntity
  8
Furniture
 62
     0
100
AcDbLine
 10
1387.9468487
 20
1271.88578217
 30
0.0
 11
1366.73364527
 21
1293.09898561
 31
0.0
  0
LINE
  5
4D
330
29
100
AcDbEntity
  8
Furniture
 62
     0
100
AcDbLine
 10
1366.73364527
 20
1293.09898561
 30
0.0
 11
1372.39049952
 21
1298.75583986
 31
0.0
  0
LINE
  5
4E
330
29
100
AcDbEntity
  8
Furniture
 62
     0
100
AcDbLine
 10
1632.51791652
 20
1292.53401445
 30
0.0
 11
1611.30471308
 21
1271.32081101
 31
0.0
  0
LINE
  5
4F
330
29
100
AcDbEntity
  8
Furniture
 62
     0
100
AcDbLine
 10
1611.30471308
 20
1271.32081101
 30
0.0
 11
1605.64785883
 21
1276.97766526
 31
0.0
  0
LINE
  5
50
330
29
100
AcDbEntity
  8
Furniture
 62
     0
100
AcDbLine
 10
1605.64785883
 20
1276.97766526
 30
0.0
 11
1626.86106227
 21
1298.1908687
 31
0.0
  0
LINE
  5
51
330
29
100
AcDbEntity
  8
Furniture
 62
     0
100
AcDbLine
 10
1626.86106227
 20
1298.1908687
 30
0.0
 11
1632.51791652
 21
1292.53401445
 31
0.0
  0
LINE
  5
52
330
29
100
AcDbEntity
  8
Furniture
 62
     0
100
AcDbLine
 10
1198.71228028
 20
1329.63999997
 30
0.0
 11
1698.71228028
 21
1329.63999997
 31
0.0
  0
LINE
  5
53
330
29
100
AcDbEntity
  8
Furniture
 62
     0
100
AcDbLine
 10
1498.01228028
 20
1475.69999997
 30
0.0
 11
1538.65228028
 21
1475.69999997
 31
0.0
  0
LINE
  5
54
330
29
100
AcDbEntity
  8
Furniture
 62
     0
100
AcDbLine
 10
1660.57228028
 20
1475.69999997
 30
0.0
 11
1619.93228028
 21
1475.69999997
 31
0.0
  0
LINE
  5
55
330
29
100
AcDbEntity
  8
Furniture
 62
     0
100
AcDbLine
 10
1270.42828028
 20
1455.37999997
 30
0.0
 11
1302.94028028
 21
1455.37999997
 31
0.0
  0
LINE
  5
56
330
29
100
AcDbEntity
  8
Furniture
 62
     0
100
AcDbLine
 10
1335.45228028
 20
1390.35599997
 30
0.0
 11
1335.45228028
 21
1422.86799997
 31
0.0
  0
LINE
  5
57
330
29
100
AcDbEntity
  8
Furniture
 62
     0
100
AcDbLine
 10
1400.47628028
 20
1455.37999997
 30
0.0
 11
1367.96428028
 21
1455.37999997
 31
0.0
  0
LINE
  5
58
330
29
100
AcDbEntity
  8
Furniture
 62
     0
100
AcDbLine
 10
1579.29228028
 20
1394.41999997
 30
0.0
 11
1579.29228028
 21
1435.05999997
 31
0.0
  0
CIRCLE
  5
59
330
29
100
AcDbEntity
  8
Furniture
 62
     0
100
AcDbCircle
 10
1335.45228028
 20
1455.37999997
 30
0.0
 40
65.024
  0
LINE
  5
5A
330
29
100
AcDbEntity
  8
Furniture
 62
     0
100
AcDbLine
 10
1335.45228028
 20
1520.40399997
 30
0.0
 11
1335.45228028
 21
1487.89199997
 31
0.0
  0
LINE
  5
5B
330
29
100
AcDbEntity
  8
Furniture
 62
     0
100
AcDbLine
 10
1211.03228028
 20
1249.99999997
 30
0.0
 11
1698.71228028
 21
1249.99999997
 31
0.0
  0
LINE
  5
5C
330
29
100
AcDbEntity
  8
Furniture
 62
     0
100
AcDbLine
 10
1698.71228028
 20
1249.99999997
 30
0.0
 11
1198.71228028
 21
1249.99999997
 31
0.0
  0
LINE
  5
5D
330
29
100
AcDbEntity
  8
Furniture
 62
     0
100
AcDbLine
 10
1698.71228028
 20
1249.99999997
 30
0.0
 11
1198.71228028
 21
1249.99999997
 31
0.0
  0
ENDBLK
  5
5E
330
29
100
AcDbEntity
  8
0
100
AcDbBlockEnd
  0
BLOCK
  5
5F
330
60
100
AcDbEntity
  8
Furniture
100
AcDbBlockBegin
  2
ENTITIES_
 70
     0
 10
0.0
 20
0.0
 30
0.0
  3
ENTITIES_
  1
ENTITIES_
  0
LINE
  5
61
330
60
100
AcDbEntity
  8
Furniture
 62
     0
100
AcDbLine
 10
472.933668921
 20
1697.46887207
 30
0.0
 11
613.073837298
 21
1697.46887207
 31
0.0
  0
LINE
  5
62
330
60
100
AcDbEntity
  8
Furniture
 62
     0
100
AcDbLine
 10
472.744780782
 20
1728.14285649
 30
0.0
 11
472.744780782
 21
1612.86820267
 31
0.0
  0
LINE
  5
63
330
60
100
AcDbEntity
  8
Furniture
 62
     0
100
AcDbLine
 10
452.744780782
 20
1612.86820267
 30
0.0
 11
472.744780782
 21
1612.86820267
 31
0.0
  0
LINE
  5
64
330
60
100
AcDbEntity
  8
Furniture
 62
     0
100
AcDbLine
 10
452.744780782
 20
1722.50004127
 30
0.0
 11
452.744780782
 21
1612.86820267
 31
0.0
  0
LINE
  5
65
330
60
100
AcDbEntity
  8
Furniture
 62
     0
100
AcDbLine
 10
452.744780782
 20
1728.14285649
 30
0.0
 11
452.744780782
 21
1722.50004127
 31
0.0
  0
LINE
  5
66
330
60
100
AcDbEntity
  8
Furniture
 62
     0
100
AcDbLine
 10
472.744780782
 20
1728.14285649
 30
0.0
 11
452.744780782
 21
1728.14285649
 31
0.0
  0
CIRCLE
  5
67
330
60
100
AcDbEntity
  8
Furniture
 62
     0
100
AcDbCircle
 10
463.127637539
 20
1525.80762497
 30
0.0
 40
25.0
  0
LINE
  5
68
330
60
100
AcDbEntity
  8
Furniture
 62
     0
100
AcDbLine
 10
714.911913906
 20
1397.46887207
 30
0.0
 11
1014.57269643
 21
1397.46887207
 31
0.0
  0
LINE
  5
69
330
60
100
AcDbEntity
  8
Furniture
 62
     0
100
AcDbLine
 10
714.911913906
 20
1447.46887207
 30
0.0
 11
1014.57269643
 21
1447.46887207
 31
0.0
  0
LINE
  5
6A
330
60
100
AcDbEntity
  8
Furniture
 62
     0
100
AcDbLine
 10
714.911913906
 20
1497.46887207
 30
0.0
 11
1014.57269643
 21
1497.46887207
 31
0.0
  0
LINE
  5
6B
330
60
100
AcDbEntity
  8
Furniture
 62
     0
100
AcDbLine
 10
714.911913906
 20
1547.46887207
 30
0.0
 11
1014.57269643
 21
1547.46887207
 31
0.0
  0
LINE
  5
6C
330
60
100
AcDbEntity
  8
Furniture
 62
     0
100
AcDbLine
 10
714.911913906
 20
1597.46887207
 30
0.0
 11
1014.57269643
 21
1597.46887207
 31
0.0
  0
LINE
  5
6D
330
60
100
AcDbEntity
  8
Furniture
 62
     0
100
AcDbLine
 10
714.911913906
 20
1647.46887207
 30
0.0
 11
1014.57269643
 21
1647.46887207
 31
0.0
  0
ARC
  5
6E
330
60
100
AcDbEntity
  8
Furniture
 62
     0
100
AcDbCircle
 10
313.073837298
 20
1397.46887207
 30
0.0
 40
50.0
100
AcDbArc
 50
180.0
 51
270.0
  0
ARC
  5
6F
330
60
100
AcDbEntity
  8
Furniture
 62
     0
100
AcDbCircle
 10
613.073837298
 20
1397.46887207
 30
0.0
 40
50.0
100
AcDbArc
 50
270.0
 51
0.0
  0
ARC
  5
70
330
60
100
AcDbEntity
  8
Furniture
 62
     0
100
AcDbCircle
 10
613.073837298
 20
1647.46887207
 30
0.0
 40
50.0
100
AcDbArc
 50
0.0
 51
90.0
  0
ARC
  5
71
330
60
100
AcDbEntity
  8
Furniture
 62
     0
100
AcDbCircle
 10
313.073837298
 20
1647.46887207
 30
0.0
 40
50.0
100
AcDbArc
 50
90.0
 51
180.0
  0
LINE
  5
72
330
60
100
AcDbEntity
  8
Furniture
 62
     0
100
AcDbLine
 10
613.073837298
 20
1347.46887207
 30
0.0
 11
313.073837298
 21
1347.46887207
 31
0.0
  0
LINE
  5
73
330
60
100
AcDbEntity
  8
Furniture
 62
     0
100
AcDbLine
 10
714.911913906
 20
1697.46887207
 30
0.0
 11
1014.57269643
 21
1697.46887207
 31
0.0
  0
LINE
  5
74
330
60
100
AcDbEntity
  8
Furniture
 62
     0
100
AcDbLine
 10
663.073837298
 20
1397.46887207
 30
0.0
 11
663.073837298
 21
1647.46887207
 31
0.0
  0
LINE
  5
75
330
60
100
AcDbEntity
  8
Furniture
 62
     0
100
AcDbLine
 10
313.073837298
 20
1697.46887207
 30
0.0
 11
453.033193469
 21
1697.46887207
 31
0.0
  0
LINE
  5
76
330
60
100
AcDbEntity
  8
Furniture
 62
     0
100
AcDbLine
 10
1014.57269643
 20
1347.46887207
 30
0.0
 11
714.911913906
 21
1347.46887207
 31
0.0
  0
LINE
  5
77
330
60
100
AcDbEntity
  8
Furniture
 62
     0
100
AcDbLine
 10
263.073837298
 20
1397.46887207
 30
0.0
 11
263.073837298
 21
1647.46887207
 31
0.0
  0
LINE
  5
78
330
60
100
AcDbEntity
  8
Furniture
 62
     0
100
AcDbLine
 10
213.073837298
 20
1747.46887207
 30
0.0
 11
1063.0738373
 21
1747.46887207
 31
0.0
  0
LINE
  5
79
330
60
100
AcDbEntity
  8
Furniture
 62
     0
100
AcDbLine
 10
213.073837298
 20
1297.46887207
 30
0.0
 11
213.073837298
 21
1797.46887207
 31
0.0
  0
LINE
  5
7A
330
60
100
AcDbEntity
  8
Furniture
 62
     0
100
AcDbLine
 10
1063.0738373
 20
1297.46887207
 30
0.0
 11
213.073837298
 21
1297.46887207
 31
0.0
  0
LINE
  5
7B
330
60
100
AcDbEntity
  8
Furniture
 62
     0
100
AcDbLine
 10
1063.0738373
 20
1797.46887207
 30
0.0
 11
1063.0738373
 21
1297.46887207
 31
0.0
  0
LINE
  5
7C
330
60
100
AcDbEntity
  8
Furniture
 62
     0
100
AcDbLine
 10
213.073837298
 20
1797.46887207
 30
0.0
 11
1063.0738373
 21
1797.46887207
 31
0.0
  0
ENDBLK
  5
7D
330
60
100
AcDbEntity
  8
0
100
AcDbBlockEnd
  0
BLOCK
  5
11F
330
11E
100
AcDbEntity
  8
0
100
AcDbBlockBegin
  2
*D2
 70
     1
 10
0.0
 20
0.0
 30
0.0
  3
*D2
  1
*D2
  0
LINE
  5
121
330
11E
100
AcDbEntity
  8
Annotations
 62
     0
370
    -2
100
AcDbLine
 10
391.0972290039999
 20
0.0
 30
0.0
 11
491.2772290039999
 21
0.0
 31
0.0
  0
LINE
  5
122
330
11E
100
AcDbEntity
  8
Annotations
 62
     0
370
    -2
100
AcDbLine
 10
391.0972290039999
 20
150.0
 30
0.0
 11
491.2772290039999
 21
150.0
 31
0.0
  0
LINE
  5
123
330
11E
100
AcDbEntity
  8
Annotations
 62
     0
370
    -2
100
AcDbLine
 10
491.0972290039999
 20
0.0
 30
0.0
 11
491.0972290039999
 21
-420.5047748976808
 31
0.0
  0
LINE
  5
124
330
11E
100
AcDbEntity
  8
Annotations
 62
     0
370
    -2
100
AcDbLine
 10
491.0972290039999
 20
0.0
 30
0.0
 11
491.0972290039999
 21
150.0
 31
0.0
  0
LINE
  5
125
330
11E
100
AcDbEntity
  8
Annotations
 62
     0
370
    -2
100
AcDbLine
 10
491.0972290039999
 20
-50.0
 30
0.0
 11
491.0972290039999
 21
-100.0
 31
0.0
  0
LINE
  5
126
330
11E
100
AcDbEntity
  8
Annotations
 62
     0
370
    -2
100
AcDbLine
 10
491.0972290039999
 20
200.0
 30
0.0
 11
491.0972290039999
 21
250.0
 31
0.0
  0
INSERT
  5
127
330
11E
100
AcDbEntity
  8
Annotations
 62
     0
370
    -2
100
AcDbBlockReference
  2
_DOT
 10
491.0972290039999
 20
0.0
 30
0.0
 41
50.0
 42
50.0
 43
50.0
 50
90.0
  0
INSERT
  5
128
330
11E
100
AcDbEntity
  8
Annotations
 62
     0
370
    -2
100
AcDbBlockReference
  2
_DOT
 10
491.0972290039999
 20
150.0
 30
0.0
 41
50.0
 42
50.0
 43
50.0
 50
270.0
  0
MTEXT
  5
129
330
11E
100
AcDbEntity
  8
Annotations
  6
ByBlock
 62
     0
100
AcDbMText
 10
410.0399302318308
 20
-260.2523874488404
 30
0.0
 40
100.0
 41
0.0
 46
0.0
 71
     5
 72
     1
  1
\A1;0.15
 11
0.0
 21
1.0
 31
0.0
 73
     1
 44
1.0
  0
POINT
  5
1FC
330
11E
100
AcDbEntity
  8
Defpoints
 62
     0
100
AcDbPoint
 10
0.0
 20
0.0
 30
0.0
  0
POINT
  5
1FD
330
11E
100
AcDbEntity
  8
Defpoints
 62
     0
100
AcDbPoint
 10
0.0
 20
150.0
 30
0.0
  0
POINT
  5
27A
330
11E
100
AcDbEntity
  8
Defpoints
 62
     0
100
AcDbPoint
 10
491.0972290039999
 20
150.0
 30
0.0
  0
ENDBLK
  5
120
330
11E
100
AcDbEntity
  8
0
100
AcDbBlockEnd
  0
BLOCK
  5
12C
330
12B
100
AcDbEntity
  8
0
100
AcDbBlockBegin
  2
*D3
 70
     1
 10
0.0
 20
0.0
 30
0.0
  3
*D3
  1
*D3
  0
LINE
  5
12E
330
12B
100
AcDbEntity
  8
Annotations
 62
     0
370
    -2
100
AcDbLine
 10
391.0972290039999
 20
1850.0
 30
0.0
 11
491.2772290039999
 21
1850.0
 31
0.0
  0
LINE
  5
12F
330
12B
100
AcDbEntity
  8
Annotations
 62
     0
370
    -2
100
AcDbLine
 10
391.0972290039999
 20
2000.0
 30
0.0
 11
491.2772290039999
 21
2000.0
 31
0.0
  0
LINE
  5
130
330
12B
100
AcDbEntity
  8
Annotations
 62
     0
370
    -2
100
AcDbLine
 10
491.0972290039999
 20
2000.0
 30
0.0
 11
491.0972290039999
 21
2420.504774897681
 31
0.0
  0
LINE
  5
131
330
12B
100
AcDbEntity
  8
Annotations
 62
     0
370
    -2
100
AcDbLine
 10
491.0972290039999
 20
1900.0
 30
0.0
 11
491.0972290039999
 21
1950.0
 31
0.0
  0
INSERT
  5
132
330
12B
100
AcDbEntity
  8
Annotations
 62
     0
370
    -2
100
AcDbBlockReference
  2
_DOT
 10
491.0972290039999
 20
1850.0
 30
0.0
 41
50.0
 42
50.0
 43
50.0
 50
270.0
  0
INSERT
  5
133
330
12B
100
AcDbEntity
  8
Annotations
 62
     0
370
    -2
100
AcDbBlockReference
  2
_DOT
 10
491.0972290039999
 20
2000.0
 30
0.0
 41
50.0
 42
50.0
 43
50.0
 50
90.0
  0
MTEXT
  5
134
330
12B
100
AcDbEntity
  8
Annotations
  6
ByBlock
 62
     0
100
AcDbMText
 10
410.0399302318306
 20
2260.252387448841
 30
0.0
 40
100.0
 41
0.0
 46
0.0
 71
     5
 72
     1
  1
\A1;0.15
 11
0.0
 21
1.0
 31
0.0
 73
     1
 44
1.0
  0
POINT
  5
135
330
12B
100
AcDbEntity
  8
Defpoints
 62
     0
100
AcDbPoint
 10
250.0
 20
1850.0
 30
0.0
  0
POINT
  5
136
330
12B
100
AcDbEntity
  8
Defpoints
 62
     0
100
AcDbPoint
 10
250.0
 20
2000.0
 30
0.0
  0
POINT
  5
1FF
330
12B
100
AcDbEntity
  8
Defpoints
 62
     0
100
AcDbPoint
 10
491.0972290039999
 20
2000.0
 30
0.0
  0
ENDBLK
  5
12D
330
12B
100
AcDbEntity
  8
0
100
AcDbBlockEnd
  0
BLOCK
  5
139
330
138
100
AcDbEntity
  8
0
100
AcDbBlockBegin
  2
*D4
 70
     1
 10
0.0
 20
0.0
 30
0.0
  3
*D4
  1
*D4
  0
LINE
  5
13B
330
138
100
AcDbEntity
  8
Annotations
 62
     0
370
    -2
100
AcDbLine
 10
391.097229004
 20
150.0
 30
0.0
 11
491.277229004
 21
150.0
 31
0.0
  0
LINE
  5
13C
330
138
100
AcDbEntity
  8
Annotations
 62
     0
370
    -2
100
AcDbLine
 10
391.097229004
 20
1850.0
 30
0.0
 11
491.277229004
 21
1850.0
 31
0.0
  0
LINE
  5
13D
330
138
100
AcDbEntity
  8
Annotations
 62
     0
370
    -2
100
AcDbLine
 10
491.097229004
 20
200.0
 30
0.0
 11
491.097229004
 21
1800.0
 31
0.0
  0
INSERT
  5
13E
330
138
100
AcDbEntity
  8
Annotations
 62
     0
370
    -2
100
AcDbBlockReference
  2
_DOT
 10
491.097229004
 20
150.0
 30
0.0
 41
50.0
 42
50.0
 43
50.0
 50
270.0
  0
INSERT
  5
13F
330
138
100
AcDbEntity
  8
Annotations
 62
     0
370
    -2
100
AcDbBlockReference
  2
_DOT
 10
491.097229004
 20
1850.0
 30
0.0
 41
50.0
 42
50.0
 43
50.0
 50
90.0
  0
MTEXT
  5
140
330
138
100
AcDbEntity
  8
Annotations
  6
ByBlock
 62
     0
100
AcDbMText
 10
410.0399302318309
 20
1000.0
 30
0.0
 40
100.0
 41
0.0
 46
0.0
 71
     5
 72
     1
  1
\A1;1.70
 11
0.0
 21
1.0
 31
0.0
 73
     1
 44
1.0
  0
POINT
  5
141
330
138
100
AcDbEntity
  8
Defpoints
 62
     0
100
AcDbPoint
 10
150.0
 20
150.0
 30
0.0
  0
POINT
  5
142
330
138
100
AcDbEntity
  8
Defpoints
 62
     0
100
AcDbPoint
 10
150.0
 20
1850.0
 30
0.0
  0
POINT
  5
143
330
138
100
AcDbEntity
  8
Defpoints
 62
     0
100
AcDbPoint
 10
491.097229004
 20
1850.0
 30
0.0
  0
ENDBLK
  5
13A
330
138
100
AcDbEntity
  8
0
100
AcDbBlockEnd
  0
BLOCK
  5
146
330
145
100
AcDbEntity
  8
0
100
AcDbBlockBegin
  2
*D5
 70
     1
 10
0.0
 20
0.0
 30
0.0
  3
*D5
  1
*D5
  0
LINE
  5
148
330
145
100
AcDbEntity
  8
Annotations
 62
     0
370
    -2
100
AcDbLine
 10
0.0
 20
330.313278198
 30
0.0
 11
0.0
 21
430.493278198
 31
0.0
  0
LINE
  5
149
330
145
100
AcDbEntity
  8
Annotations
 62
     0
370
    -2
100
AcDbLine
 10
150.0
 20
330.313278198
 30
0.0
 11
150.0
 21
430.493278198
 31
0.0
  0
LINE
  5
14A
330
145
100
AcDbEntity
  8
Annotations
 62
     0
370
    -2
100
AcDbLine
 10
0.0
 20
430.313278198
 30
0.0
 11
-420.5047748976807
 21
430.313278198
 31
0.0
  0
LINE
  5
14B
330
145
100
AcDbEntity
  8
Annotations
 62
     0
370
    -2
100
AcDbLine
 10
0.0
 20
430.313278198
 30
0.0
 11
150.0
 21
430.313278198
 31
0.0
  0
LINE
  5
14C
330
145
100
AcDbEntity
  8
Annotations
 62
     0
370
    -2
100
AcDbLine
 10
-50.0
 20
430.313278198
 30
0.0
 11
-100.0
 21
430.313278198
 31
0.0
  0
LINE
  5
14D
330
145
100
AcDbEntity
  8
Annotations
 62
     0
370
    -2
100
AcDbLine
 10
200.0
 20
430.313278198
 30
0.0
 11
250.0
 21
430.313278198
 31
0.0
  0
INSERT
  5
14E
330
145
100
AcDbEntity
  8
Annotations
 62
     0
370
    -2
100
AcDbBlockReference
  2
_DOT
 10
0.0
 20
430.313278198
 30
0.0
 41
50.0
 42
50.0
 43
50.0
  0
INSERT
  5
14F
330
145
100
AcDbEntity
  8
Annotations
 62
     0
370
    -2
100
AcDbBlockReference
  2
_DOT
 10
150.0
 20
430.313278198
 30
0.0
 41
50.0
 42
50.0
 43
50.0
 50
180.0
  0
MTEXT
  5
150
330
145
100
AcDbEntity
  8
Annotations
  6
ByBlock
 62
     0
100
AcDbMText
 10
-260.2523874488404
 20
511.3705769701692
 30
0.0
 40
100.0
 41
0.0
 46
0.0
 71
     5
 72
     1
  1
\A1;0.15
 73
     1
 44
1.0
  0
POINT
  5
151
330
145
100
AcDbEntity
  8
Defpoints
 62
     0
100
AcDbPoint
 10
0.0
 20
0.0
 30
0.0
  0
POINT
  5
1F9
330
145
100
AcDbEntity
  8
Defpoints
 62
     0
100
AcDbPoint
 10
150.0
 20
0.0
 30
0.0
  0
POINT
  5
278
330
145
100
AcDbEntity
  8
Defpoints
 62
     0
100
AcDbPoint
 10
150.0
 20
430.313278198
 30
0.0
  0
ENDBLK
  5
147
330
145
100
AcDbEntity
  8
0
100
AcDbBlockEnd
  0
BLOCK
  5
153
330
152
100
AcDbEntity
  8
0
100
AcDbBlockBegin
  2
*D6
 70
     1
 10
0.0
 20
0.0
 30
0.0
  3
*D6
  1
*D6
  0
LINE
  5
155
330
152
100
AcDbEntity
  8
Annotations
 62
     0
370
    -2
100
AcDbLine
 10
150.0
 20
330.313278198
 30
0.0
 11
150.0
 21
430.493278198
 31
0.0
  0
LINE
  5
156
330
152
100
AcDbEntity
  8
Annotations
 62
     0
370
    -2
100
AcDbLine
 10
1850.0
 20
330.313278198
 30
0.0
 11
1850.0
 21
430.493278198
 31
0.0
  0
LINE
  5
157
330
152
100
AcDbEntity
  8
Annotations
 62
     0
370
    -2
100
AcDbLine
 10
200.0
 20
430.313278198
 30
0.0
 11
1800.0
 21
430.313278198
 31
0.0
  0
INSERT
  5
158
330
152
100
AcDbEntity
  8
Annotations
 62
     0
370
    -2
100
AcDbBlockReference
  2
_DOT
 10
150.0
 20
430.313278198
 30
0.0
 41
50.0
 42
50.0
 43
50.0
 50
180.0
  0
INSERT
  5
159
330
152
100
AcDbEntity
  8
Annotations
 62
     0
370
    -2
100
AcDbBlockReference
  2
_DOT
 10
1850.0
 20
430.313278198
 30
0.0
 41
50.0
 42
50.0
 43
50.0
  0
MTEXT
  5
15A
330
152
100
AcDbEntity
  8
Annotations
  6
ByBlock
 62
     0
100
AcDbMText
 10
1000.0
 20
511.3705769701692
 30
0.0
 40
100.0
 41
0.0
 46
0.0
 71
     5
 72
     1
  1
\A1;1.70
 73
     1
 44
1.0
  0
POINT
  5
15B
330
152
100
AcDbEntity
  8
Defpoints
 62
     0
100
AcDbPoint
 10
150.0
 20
150.0
 30
0.0
  0
POINT
  5
15C
330
152
100
AcDbEntity
  8
Defpoints
 62
     0
100
AcDbPoint
 10
1850.0
 20
150.0
 30
0.0
  0
POINT
  5
15D
330
152
100
AcDbEntity
  8
Defpoints
 62
     0
100
AcDbPoint
 10
1850.0
 20
430.313278198
 30
0.0
  0
ENDBLK
  5
154
330
152
100
AcDbEntity
  8
0
100
AcDbBlockEnd
  0
BLOCK
  5
160
330
15F
100
AcDbEntity
  8
0
100
AcDbBlockBegin
  2
*D7
 70
     1
 10
0.0
 20
0.0
 30
0.0
  3
*D7
  1
*D7
  0
LINE
  5
162
330
15F
100
AcDbEntity
  8
Annotations
 62
     0
370
    -2
100
AcDbLine
 10
1850.0
 20
330.313278198
 30
0.0
 11
1850.0
 21
430.493278198
 31
0.0
  0
LINE
  5
163
330
15F
100
AcDbEntity
  8
Annotations
 62
     0
370
    -2
100
AcDbLine
 10
2000.0
 20
330.313278198
 30
0.0
 11
2000.0
 21
430.493278198
 31
0.0
  0
LINE
  5
164
330
15F
100
AcDbEntity
  8
Annotations
 62
     0
370
    -2
100
AcDbLine
 10
2000.0
 20
430.313278198
 30
0.0
 11
2420.50477489768
 21
430.313278198
 31
0.0
  0
LINE
  5
165
330
15F
100
AcDbEntity
  8
Annotations
 62
     0
370
    -2
100
AcDbLine
 10
1850.0
 20
430.313278198
 30
0.0
 11
2000.0
 21
430.313278198
 31
0.0
  0
LINE
  5
166
330
15F
100
AcDbEntity
  8
Annotations
 62
     0
370
    -2
100
AcDbLine
 10
1800.0
 20
430.313278198
 30
0.0
 11
1750.0
 21
430.313278198
 31
0.0
  0
LINE
  5
167
330
15F
100
AcDbEntity
  8
Annotations
 62
     0
370
    -2
100
AcDbLine
 10
2050.0
 20
430.313278198
 30
0.0
 11
2100.0
 21
430.313278198
 31
0.0
  0
INSERT
  5
168
330
15F
100
AcDbEntity
  8
Annotations
 62
     0
370
    -2
100
AcDbBlockReference
  2
_DOT
 10
1850.0
 20
430.313278198
 30
0.0
 41
50.0
 42
50.0
 43
50.0
  0
INSERT
  5
169
330
15F
100
AcDbEntity
  8
Annotations
 62
     0
370
    -2
100
AcDbBlockReference
  2
_DOT
 10
2000.0
 20
430.313278198
 30
0.0
 41
50.0
 42
50.0
 43
50.0
 50
180.0
  0
MTEXT
  5
16A
330
15F
100
AcDbEntity
  8
Annotations
  6
ByBlock
 62
     0
100
AcDbMText
 10
2260.25238744884
 20
511.3705769701692
 30
0.0
 40
100.0
 41
0.0
 46
0.0
 71
     5
 72
     1
  1
\A1;0.15
 73
     1
 44
1.0
  0
POINT
  5
16B
330
15F
100
AcDbEntity
  8
Defpoints
 62
     0
100
AcDbPoint
 10
1850.0
 20
150.0
 30
0.0
  0
POINT
  5
1FA
330
15F
100
AcDbEntity
  8
Defpoints
 62
     0
100
AcDbPoint
 10
2000.0
 20
150.0
 30
0.0
  0
POINT
  5
279
330
15F
100
AcDbEntity
  8
Defpoints
 62
     0
100
AcDbPoint
 10
2000.0
 20
430.313278198
 30
0.0
  0
ENDBLK
  5
161
330
15F
100
AcDbEntity
  8
0
100
AcDbBlockEnd
  0
BLOCK
  5
16D
330
16C
100
AcDbEntity
  8
0
100
AcDbBlockBegin
  2
*D8
 70
     1
 10
0.0
 20
0.0
 30
0.0
  3
*D8
  1
*D8
  0
LINE
  5
16F
330
16C
100
AcDbEntity
  8
Annotations
 62
     0
370
    -2
100
AcDbLine
 10
0.0
 20
2297.36669922
 30
0.0
 11
0.0
 21
2397.54669922
 31
0.0
  0
LINE
  5
170
330
16C
100
AcDbEntity
  8
Annotations
 62
     0
370
    -2
100
AcDbLine
 10
250.0
 20
2297.36669922
 30
0.0
 11
250.0
 21
2397.54669922
 31
0.0
  0
LINE
  5
171
330
16C
100
AcDbEntity
  8
Annotations
 62
     0
370
    -2
100
AcDbLine
 10
0.0
 20
2397.36669922
 30
0.0
 11
250.0
 21
2397.36669922
 31
0.0
  0
LINE
  5
172
330
16C
100
AcDbEntity
  8
Annotations
 62
     0
370
    -2
100
AcDbLine
 10
-50.0
 20
2397.36669922
 30
0.0
 11
-100.0
 21
2397.36669922
 31
0.0
  0
LINE
  5
173
330
16C
100
AcDbEntity
  8
Annotations
 62
     0
370
    -2
100
AcDbLine
 10
300.0
 20
2397.36669922
 30
0.0
 11
350.0
 21
2397.36669922
 31
0.0
  0
INSERT
  5
174
330
16C
100
AcDbEntity
  8
Annotations
 62
     0
370
    -2
100
AcDbBlockReference
  2
_DOT
 10
0.0
 20
2397.36669922
 30
0.0
 41
50.0
 42
50.0
 43
50.0
  0
INSERT
  5
175
330
16C
100
AcDbEntity
  8
Annotations
 62
     0
370
    -2
100
AcDbBlockReference
  2
_DOT
 10
250.0
 20
2397.36669922
 30
0.0
 41
50.0
 42
50.0
 43
50.0
 50
180.0
  0
MTEXT
  5
176
330
16C
100
AcDbEntity
  8
Annotations
  6
ByBlock
 62
     0
100
AcDbMText
 10
125.0
 20
2478.423997992169
 30
0.0
 40
100.0
 41
0.0
 46
0.0
 71
     5
 72
     1
  1
\A1;0.25
 73
     1
 44
1.0
  0
POINT
  5
177
330
16C
100
AcDbEntity
  8
Defpoints
 62
     0
100
AcDbPoint
 10
0.0
 20
2000.0
 30
0.0
  0
POINT
  5
178
330
16C
100
AcDbEntity
  8
Defpoints
 62
     0
100
AcDbPoint
 10
250.0
 20
2000.0
 30
0.0
  0
POINT
  5
1FB
330
16C
100
AcDbEntity
  8
Defpoints
 62
     0
100
AcDbPoint
 10
250.0
 20
2397.36669922
 30
0.0
  0
ENDBLK
  5
16E
330
16C
100
AcDbEntity
  8
0
100
AcDbBlockEnd
  0
BLOCK
  5
17A
330
179
100
AcDbEntity
  8
0
100
AcDbBlockBegin
  2
*D9
 70
     1
 10
0.0
 20
0.0
 30
0.0
  3
*D9
  1
*D9
  0
LINE
  5
17C
330
179
100
AcDbEntity
  8
Annotations
 62
     0
370
    -2
100
AcDbLine
 10
250.0
 20
2297.36669922
 30
0.0
 11
250.0
 21
2397.54669922
 31
0.0
  0
LINE
  5
17D
330
179
100
AcDbEntity
  8
Annotations
 62
     0
370
    -2
100
AcDbLine
 10
1450.0
 20
2297.36669922
 30
0.0
 11
1450.0
 21
2397.54669922
 31
0.0
  0
LINE
  5
17E
330
179
100
AcDbEntity
  8
Annotations
 62
     0
370
    -2
100
AcDbLine
 10
300.0
 20
2397.36669922
 30
0.0
 11
1400.0
 21
2397.36669922
 31
0.0
  0
INSERT
  5
17F
330
179
100
AcDbEntity
  8
Annotations
 62
     0
370
    -2
100
AcDbBlockReference
  2
_DOT
 10
250.0
 20
2397.36669922
 30
0.0
 41
50.0
 42
50.0
 43
50.0
 50
180.0
  0
INSERT
  5
180
330
179
100
AcDbEntity
  8
Annotations
 62
     0
370
    -2
100
AcDbBlockReference
  2
_DOT
 10
1450.0
 20
2397.36669922
 30
0.0
 41
50.0
 42
50.0
 43
50.0
  0
MTEXT
  5
181
330
179
100
AcDbEntity
  8
Annotations
  6
ByBlock
 62
     0
100
AcDbMText
 10
850.0
 20
2478.423997992169
 30
0.0
 40
100.0
 41
0.0
 46
0.0
 71
     5
 72
     1
  1
\A1;1.20
 73
     1
 44
1.0
  0
POINT
  5
182
330
179
100
AcDbEntity
  8
Defpoints
 62
     0
100
AcDbPoint
 10
250.0
 20
2000.0
 30
0.0
  0
POINT
  5
183
330
179
100
AcDbEntity
  8
Defpoints
 62
     0
100
AcDbPoint
 10
1450.0
 20
2000.0
 30
0.0
  0
POINT
  5
184
330
179
100
AcDbEntity
  8
Defpoints
 62
     0
100
AcDbPoint
 10
1450.0
 20
2397.36669922
 30
0.0
  0
ENDBLK
  5
17B
330
179
100
AcDbEntity
  8
0
100
AcDbBlockEnd
  0
BLOCK
  5
187
330
186
100
AcDbEntity
  8
0
100
AcDbBlockBegin
  2
*D10
 70
     1
 10
0.0
 20
0.0
 30
0.0
  3
*D10
  1
*D10
  0
LINE
  5
189
330
186
100
AcDbEntity
  8
Annotations
 62
     0
370
    -2
100
AcDbLine
 10
1450.0
 20
2297.36669922
 30
0.0
 11
1450.0
 21
2397.54669922
 31
0.0
  0
LINE
  5
18A
330
186
100
AcDbEntity
  8
Annotations
 62
     0
370
    -2
100
AcDbLine
 10
2000.0
 20
2297.36669922
 30
0.0
 11
2000.0
 21
2397.54669922
 31
0.0
  0
LINE
  5
18B
330
186
100
AcDbEntity
  8
Annotations
 62
     0
370
    -2
100
AcDbLine
 10
1500.0
 20
2397.36669922
 30
0.0
 11
1950.0
 21
2397.36669922
 31
0.0
  0
INSERT
  5
18C
330
186
100
AcDbEntity
  8
Annotations
 62
     0
370
    -2
100
AcDbBlockReference
  2
_DOT
 10
1450.0
 20
2397.36669922
 30
0.0
 41
50.0
 42
50.0
 43
50.0
 50
180.0
  0
INSERT
  5
18D
330
186
100
AcDbEntity
  8
Annotations
 62
     0
370
    -2
100
AcDbBlockReference
  2
_DOT
 10
2000.0
 20
2397.36669922
 30
0.0
 41
50.0
 42
50.0
 43
50.0
  0
MTEXT
  5
18E
330
186
100
AcDbEntity
  8
Annotations
  6
ByBlock
 62
     0
100
AcDbMText
 10
1725.0
 20
2478.423997992169
 30
0.0
 40
100.0
 41
0.0
 46
0.0
 71
     5
 72
     1
  1
\A1;0.55
 73
     1
 44
1.0
  0
POINT
  5
18F
330
186
100
AcDbEntity
  8
Defpoints
 62
     0
100
AcDbPoint
 10
1450.0
 20
2000.0
 30
0.0
  0
POINT
  5
190
330
186
100
AcDbEntity
  8
Defpoints
 62
     0
100
AcDbPoint
 10
2000.0
 20
2000.0
 30
0.0
  0
POINT
  5
191
330
186
100
AcDbEntity
  8
Defpoints
 62
     0
100
AcDbPoint
 10
2000.0
 20
2397.36669922
 30
0.0
  0
ENDBLK
  5
188
330
186
100
AcDbEntity
  8
0
100
AcDbBlockEnd
  0
BLOCK
  5
194
330
193
100
AcDbEntity
  8
0
100
AcDbBlockBegin
  2
*D11
 70
     1
 10
0.0
 20
0.0
 30
0.0
  3
*D11
  1
*D11
  0
LINE
  5
196
330
193
100
AcDbEntity
  8
Annotations
 62
     0
370
    -2
100
AcDbLine
 10
-315.2610848778195
 20
0.0
 30
0.0
 11
-305.4410848778195
 21
0.0
 31
0.0
  0
LINE
  5
197
330
193
100
AcDbEntity
  8
Annotations
 62
     0
370
    -2
100
AcDbLine
 10
-315.2610848778195
 20
2000.0
 30
0.0
 11
-305.4410848778195
 21
2000.0
 31
0.0
  0
LINE
  5
198
330
193
100
AcDbEntity
  8
Annotations
 62
     0
370
    -2
100
AcDbLine
 10
-305.2610848778195
 20
50.0
 30
0.0
 11
-305.2610848778195
 21
1950.0
 31
0.0
  0
INSERT
  5
199
330
193
100
AcDbEntity
  8
Annotations
 62
     0
370
    -2
100
AcDbBlockReference
  2
_DOT
 10
-305.2610848778195
 20
0.0
 30
0.0
 41
50.0
 42
50.0
 43
50.0
 50
270.0
  0
INSERT
  5
19A
330
193
100
AcDbEntity
  8
Annotations
 62
     0
370
    -2
100
AcDbBlockReference
  2
_DOT
 10
-305.2610848778195
 20
2000.0
 30
0.0
 41
50.0
 42
50.0
 43
50.0
 50
90.0
  0
MTEXT
  5
19B
330
193
100
AcDbEntity
  8
Annotations
  6
ByBlock
 62
     0
100
AcDbMText
 10
-386.3183836499886
 20
1000.0
 30
0.0
 40
100.0
 41
0.0
 46
0.0
 71
     5
 72
     1
  1
\A1;2.00
 11
0.0
 21
1.0
 31
0.0
 73
     1
 44
1.0
  0
POINT
  5
19C
330
193
100
AcDbEntity
  8
Defpoints
 62
     0
100
AcDbPoint
 10
-305.2610848778195
 20
0.0
 30
0.0
  0
POINT
  5
19D
330
193
100
AcDbEntity
  8
Defpoints
 62
     0
100
AcDbPoint
 10
-305.2610848778195
 20
2000.0
 30
0.0
  0
POINT
  5
19E
330
193
100
AcDbEntity
  8
Defpoints
 62
     0
100
AcDbPoint
 10
-305.2610848778195
 20
2000.0
 30
0.0
  0
ENDBLK
  5
195
330
193
100
AcDbEntity
  8
0
100
AcDbBlockEnd
  0
BLOCK
  5
1A1
330
1A0
100
AcDbEntity
  8
0
100
AcDbBlockBegin
  2
*D12
 70
     1
 10
0.0
 20
0.0
 30
0.0
  3
*D12
  1
*D12
  0
LINE
  5
1A3
330
1A0
100
AcDbEntity
  8
Annotations
 62
     0
370
    -2
100
AcDbLine
 10
0.0
 20
-472.515686035
 30
0.0
 11
0.0
 21
-572.695686035
 31
0.0
  0
LINE
  5
1A4
330
1A0
100
AcDbEntity
  8
Annotations
 62
     0
370
    -2
100
AcDbLine
 10
900.0
 20
-472.515686035
 30
0.0
 11
900.0
 21
-572.695686035
 31
0.0
  0
LINE
  5
1A5
330
1A0
100
AcDbEntity
  8
Annotations
 62
     0
370
    -2
100
AcDbLine
 10
50.0
 20
-572.515686035
 30
0.0
 11
850.0
 21
-572.515686035
 31
0.0
  0
INSERT
  5
1A6
330
1A0
100
AcDbEntity
  8
Annotations
 62
     0
370
    -2
100
AcDbBlockReference
  2
_DOT
 10
0.0
 20
-572.515686035
 30
0.0
 41
50.0
 42
50.0
 43
50.0
 50
180.0
  0
INSERT
  5
1A7
330
1A0
100
AcDbEntity
  8
Annotations
 62
     0
370
    -2
100
AcDbBlockReference
  2
_DOT
 10
900.0
 20
-572.515686035
 30
0.0
 41
50.0
 42
50.0
 43
50.0
  0
MTEXT
  5
1A8
330
1A0
100
AcDbEntity
  8
Annotations
  6
ByBlock
 62
     0
100
AcDbMText
 10
450.0
 20
-491.4583872628309
 30
0.0
 40
100.0
 41
0.0
 46
0.0
 71
     5
 72
     1
  1
\A1;0.90
 73
     1
 44
1.0
  0
POINT
  5
1A9
330
1A0
100
AcDbEntity
  8
Defpoints
 62
     0
100
AcDbPoint
 10
0.0
 20
0.0
 30
0.0
  0
POINT
  5
1AA
330
1A0
100
AcDbEntity
  8
Defpoints
 62
     0
100
AcDbPoint
 10
900.0
 20
0.0
 30
0.0
  0
POINT
  5
1AB
330
1A0
100
AcDbEntity
  8
Defpoints
 62
     0
100
AcDbPoint
 10
900.0
 20
-572.515686035
 30
0.0
  0
ENDBLK
  5
1A2
330
1A0
100
AcDbEntity
  8
0
100
AcDbBlockEnd
  0
BLOCK
  5
1AE
330
1AD
100
AcDbEntity
  8
0
100
AcDbBlockBegin
  2
*D13
 70
     1
 10
0.0
 20
0.0
 30
0.0
  3
*D13
  1
*D13
  0
LINE
  5
1B0
330
1AD
100
AcDbEntity
  8
Annotations
 62
     0
370
    -2
100
AcDbLine
 10
900.0
 20
-472.515686035
 30
0.0
 11
900.0
 21
-572.695686035
 31
0.0
  0
LINE
  5
1B1
330
1AD
100
AcDbEntity
  8
Annotations
 62
     0
370
    -2
100
AcDbLine
 10
1700.0
 20
-472.515686035
 30
0.0
 11
1700.0
 21
-572.695686035
 31
0.0
  0
LINE
  5
1B2
330
1AD
100
AcDbEntity
  8
Annotations
 62
     0
370
    -2
100
AcDbLine
 10
950.0
 20
-572.515686035
 30
0.0
 11
1650.0
 21
-572.515686035
 31
0.0
  0
INSERT
  5
1B3
330
1AD
100
AcDbEntity
  8
Annotations
 62
     0
370
    -2
100
AcDbBlockReference
  2
_DOT
 10
900.0
 20
-572.515686035
 30
0.0
 41
50.0
 42
50.0
 43
50.0
 50
180.0
  0
INSERT
  5
1B4
330
1AD
100
AcDbEntity
  8
Annotations
 62
     0
370
    -2
100
AcDbBlockReference
  2
_DOT
 10
1700.0
 20
-572.515686035
 30
0.0
 41
50.0
 42
50.0
 43
50.0
  0
MTEXT
  5
1B5
330
1AD
100
AcDbEntity
  8
Annotations
  6
ByBlock
 62
     0
100
AcDbMText
 10
1300.0
 20
-491.4583872628309
 30
0.0
 40
100.0
 41
0.0
 46
0.0
 71
     5
 72
     1
  1
\A1;0.80
 73
     1
 44
1.0
  0
POINT
  5
1B6
330
1AD
100
AcDbEntity
  8
Defpoints
 62
     0
100
AcDbPoint
 10
900.0
 20
0.0
 30
0.0
  0
POINT
  5
1B7
330
1AD
100
AcDbEntity
  8
Defpoints
 62
     0
100
AcDbPoint
 10
1700.0
 20
0.0
 30
0.0
  0
POINT
  5
1B8
330
1AD
100
AcDbEntity
  8
Defpoints
 62
     0
100
AcDbPoint
 10
1700.0
 20
-572.515686035
 30
0.0
  0
ENDBLK
  5
1AF
330
1AD
100
AcDbEntity
  8
0
100
AcDbBlockEnd
  0
BLOCK
  5
1BB
330
1BA
100
AcDbEntity
  8
0
100
AcDbBlockBegin
  2
*D14
 70
     1
 10
0.0
 20
0.0
 30
0.0
  3
*D14
  1
*D14
  0
LINE
  5
1BD
330
1BA
100
AcDbEntity
  8
Annotations
 62
     0
370
    -2
100
AcDbLine
 10
1700.0
 20
-472.515686035
 30
0.0
 11
1700.0
 21
-572.695686035
 31
0.0
  0
LINE
  5
1BE
330
1BA
100
AcDbEntity
  8
Annotations
 62
     0
370
    -2
100
AcDbLine
 10
2000.0
 20
-472.515686035
 30
0.0
 11
2000.0
 21
-572.695686035
 31
0.0
  0
LINE
  5
1BF
330
1BA
100
AcDbEntity
  8
Annotations
 62
     0
370
    -2
100
AcDbLine
 10
1700.0
 20
-572.515686035
 30
0.0
 11
2000.0
 21
-572.515686035
 31
0.0
  0
LINE
  5
1C0
330
1BA
100
AcDbEntity
  8
Annotations
 62
     0
370
    -2
100
AcDbLine
 10
1650.0
 20
-572.515686035
 30
0.0
 11
1600.0
 21
-572.515686035
 31
0.0
  0
LINE
  5
1C1
330
1BA
100
AcDbEntity
  8
Annotations
 62
     0
370
    -2
100
AcDbLine
 10
2050.0
 20
-572.515686035
 30
0.0
 11
2100.0
 21
-572.515686035
 31
0.0
  0
INSERT
  5
1C2
330
1BA
100
AcDbEntity
  8
Annotations
 62
     0
370
    -2
100
AcDbBlockReference
  2
_DOT
 10
1700.0
 20
-572.515686035
 30
0.0
 41
50.0
 42
50.0
 43
50.0
  0
INSERT
  5
1C3
330
1BA
100
AcDbEntity
  8
Annotations
 62
     0
370
    -2
100
AcDbBlockReference
  2
_DOT
 10
2000.0
 20
-572.515686035
 30
0.0
 41
50.0
 42
50.0
 43
50.0
 50
180.0
  0
MTEXT
  5
1C4
330
1BA
100
AcDbEntity
  8
Annotations
  6
ByBlock
 62
     0
100
AcDbMText
 10
1850.0
 20
-491.4242808508254
 30
0.0
 40
100.0
 41
0.0
 46
0.0
 71
     5
 72
     1
  1
\A1;0.30
 73
     1
 44
1.0
  0
POINT
  5
1C5
330
1BA
100
AcDbEntity
  8
Defpoints
 62
     0
100
AcDbPoint
 10
1700.0
 20
0.0
 30
0.0
  0
POINT
  5
20E
330
1BA
100
AcDbEntity
  8
Defpoints
 62
     0
100
AcDbPoint
 10
2000.0
 20
0.0
 30
0.0
  0
POINT
  5
20F
330
1BA
100
AcDbEntity
  8
Defpoints
 62
     0
100
AcDbPoint
 10
2000.0
 20
-572.515686035
 30
0.0
  0
ENDBLK
  5
1BC
330
1BA
100
AcDbEntity
  8
0
100
AcDbBlockEnd
  0
BLOCK
  5
1EE
330
1ED
100
AcDbEntity
  8
0
100
AcDbBlockBegin
  2
_DOT
 70
     0
 10
0.0
 20
0.0
 30
0.0
  3
_DOT
  1
_DOT
  0
POLYLINE
  5
1F0
330
1ED
100
AcDbEntity
  8
0
  6
ByBlock
 62
     0
100
AcDb2dPolyline
 66
     1
 10
0.0
 20
0.0
 30
0.0
 70
     1
 40
0.5
 41
0.5
  0
VERTEX
  5
1F2
330
1F0
100
AcDbEntity
  8
0
  6
ByBlock
 62
     0
100
AcDbVertex
100
AcDb2dVertex
 10
-0.25
 20
0.0
 30
0.0
 42
1.0
  0
VERTEX
  5
1F3
330
1F0
100
AcDbEntity
  8
0
  6
ByBlock
 62
     0
100
AcDbVertex
100
AcDb2dVertex
 10
0.25
 20
0.0
 30
0.0
 42
1.0
  0
SEQEND
  5
1F4
330
1F0
100
AcDbEntity
  8
0
  6
ByBlock
 62
     0
  0
LINE
  5
1F1
330
1ED
100
AcDbEntity
  8
0
  6
ByBlock
 62
     0
370
    -2
100
AcDbLine
 10
-0.5
 20
0.0
 30
0.0
 11
-1.0
 21
0.0
 31
0.0
  0
ENDBLK
  5
1EF
330
1ED
100
AcDbEntity
  8
0
100
AcDbBlockEnd
  0
ENDSEC
  0
SECTION
  2
ENTITIES
  0
LWPOLYLINE
  5
7E
330
1D
100
AcDbEntity
  8
Construction
 62
   174
100
AcDbPolyline
 90
        4
 70
     1
 43
0.0
 10
0.0
 20
0.0
 10
2000.0
 20
0.0
 10
2000.0
 20
2000.0
 10
0.0
 20
2000.0
  0
LWPOLYLINE
  5
84
330
1D
100
AcDbEntity
  8
Construction
 62
   174
100
AcDbPolyline
 90
        4
 70
     1
 43
0.0
 10
150.0
 20
150.0
 10
1850.0
 20
150.0
 10
1850.0
 20
1850.0
 10
150.0
 20
1850.0
  0
LWPOLYLINE
  5
8E
330
1D
100
AcDbEntity
  8
Construction
 62
   174
100
AcDbPolyline
 90
        2
 70
     0
 43
0.0
 10
1700.0
 20
1000.0
 10
1700.0
 20
-930.924255371
  0
LWPOLYLINE
  5
92
330
1D
100
AcDbEntity
  8
Construction
 62
   174
100
AcDbPolyline
 90
        2
 70
     0
 43
0.0
 10
900.0
 20
1000.0
 10
900.0
 20
-930.924255371
  0
LWPOLYLINE
  5
96
330
1D
100
AcDbEntity
  8
Construction
 62
   174
100
AcDbPolyline
 90
        2
 70
     0
 43
0.0
 10
150.0
 20
1000.0
 10
150.0
 20
2719.10839844
  0
LWPOLYLINE
  5
9A
330
1D
100
AcDbEntity
  8
Construction
 62
   174
100
AcDbPolyline
 90
        2
 70
     0
 43
0.0
 10
250.0
 20
1000.0
 10
250.0
 20
2719.10839844
  0
LWPOLYLINE
  5
9E
330
1D
100
AcDbEntity
  8
Construction
 62
   174
100
AcDbPolyline
 90
        2
 70
     0
 43
0.0
 10
1450.0
 20
1000.0
 10
1450.0
 20
2719.10839844
  0
INSERT
  5
A2
330
1D
100
AcDbEntity
  8
Furniture
 62
     0
100
AcDbBlockReference
  2
ENTITIES_0
 10
0.0
 20
0.0
 30
0.0
  0
INSERT
  5
A3
330
1D
100
AcDbEntity
  8
Furniture
 62
     0
100
AcDbBlockReference
  2
ENTITIES_
 10
0.0
 20
0.0
 30
0.0
  0
LWPOLYLINE
  5
A4
330
1D
100
AcDbEntity
  8
Furniture
 62
     0
100
AcDbPolyline
 90
        4
 70
     1
 43
0.0
 10
150.0
 20
1850.0
 10
1850.0
 20
1850.0
 10
1850.0
 20
1250.0
 10
150.0
 20
1250.0
  0
LWPOLYLINE
  5
AA
330
1D
100
AcDbEntity
  8
Doors & Windows
 62
     0
370
    35
100
AcDbPolyline
 90
        2
 70
     0
 43
0.0
 10
250.0
 20
1925.0
 10
1450.0
 20
1925.0
  0
LWPOLYLINE
  5
AE
330
1D
100
AcDbEntity
  8
Doors & Windows
 62
     0
100
AcDbPolyline
 90
        4
 70
     1
 43
0.0
 10
250.0
 20
2000.0
 10
1450.0
 20
2000.0
 10
1450.0
 20
1850.0
 10
250.0
 20
1850.0
  0
ARC
  5
B4
330
1D
100
AcDbEntity
  8
Doors & Windows
 62
     0
100
AcDbCircle
 10
1700.0
 20
75.0
 30
0.0
 40
800.0
100
AcDbArc
 50
90.0
 51
180.0
  0
LWPOLYLINE
  5
B5
330
1D
100
AcDbEntity
  8
Doors & Windows
 62
     0
370
    35
100
AcDbPolyline
 90
        2
 70
     0
 43
0.0
 10
1700.0
 20
875.0
 10
1700.0
 20
75.0
  0
LWPOLYLINE
  5
B9
330
1D
100
AcDbEntity
  8
Doors & Windows
 62
     0
100
AcDbPolyline
 90
        4
 70
     1
 43
0.0
 10
1700.0
 20
0.0
 10
900.0
 20
0.0
 10
900.0
 20
150.0
 10
1700.0
 20
150.0
  0
LWPOLYLINE
  5
BF
330
1D
100
AcDbEntity
  8
Walls
 62
     0
370
    60
100
AcDbPolyline
 90
        8
 70
     1
 43
0.0
 10
0.0
 20
2000.0
 10
250.0
 20
2000.0
 10
250.0
 20
1850.0
 10
150.0
 20
1850.0
 10
150.0
 20
150.0
 10
900.0
 20
150.0
 10
900.0
 20
0.0
 10
0.0
 20
0.0
  0
LWPOLYLINE
  5
C9
330
1D
100
AcDbEntity
  8
Walls
 62
     0
370
    60
100
AcDbPolyline
 90
        8
 70
     1
 43
0.0
 10
1450.0
 20
1850.0
 10
1450.0
 20
2000.0
 10
2000.0
 20
2000.0
 10
2000.0
 20
0.0
 10
1700.0
 20
0.0
 10
1700.0
 20
150.0
 10
1850.0
 20
150.0
 10
1850.0
 20
1850.0
  0
DIMENSION
  5
D3
330
1D
100
AcDbEntity
  8
Annotations
 62
     0
100
AcDbDimension
280
     0
  2
*D2
 10
491.0972290039999
 20
150.0
 30
0.0
 11
491.0972290039999
 21
-260.2523874488404
 31
0.0
 70
   161
 71
     5
 42
0.15
 73
     0
 74
     0
 75
     0
  3
Standard
100
AcDbAlignedDimension
 13
0.0
 23
0.0
 33
0.0
 14
0.0
 24
150.0
 34
0.0
1001
ACAD
1000
DSTYLE
1002
{
1070
   147
1040
30.0
1070
    73
1070
     0
1070
   172
1070
     1
1070
    49
1040
100.0
1070
   290
1070
     1
1070
    42
1040
10.0
1070
   289
1070
     0
1070
   174
1070
     1
1070
   271
1070
     2
1070
   144
1040
0.001
1070
   173
1070
     1
1070
   342
1005
0
1070
   344
1005
1ED
1070
   343
1005
1ED
1070
    41
1040
50.0
1070
    74
1070
     0
1070
    77
1070
     1
1070
   140
1040
100.0
1002
}
  0
DIMENSION
  5
D4
330
1D
100
AcDbEntity
  8
Annotations
 62
     0
100
AcDbDimension
280
     0
  2
*D3
 10
491.0972290039999
 20
2000.0
 30
0.0
 11
491.0972290039999
 21
2260.252387448841
 31
0.0
 70
   161
 71
     5
 42
0.15
 73
     0
 74
     1
 75
     1
  3
Standard
100
AcDbAlignedDimension
 13
250.0
 23
1850.0
 33
0.0
 14
250.0
 24
2000.0
 34
0.0
1001
ACAD
1000
DSTYLE
1002
{
1070
   147
1040
30.0
1070
    73
1070
     0
1070
   172
1070
     1
1070
    49
1040
100.0
1070
   290
1070
     1
1070
    42
1040
10.0
1070
   289
1070
     0
1070
   174
1070
     1
1070
   271
1070
     2
1070
   144
1040
0.001
1070
   173
1070
     1
1070
   342
1005
0
1070
   344
1005
1ED
1070
   343
1005
1ED
1070
    41
1040
50.0
1070
    74
1070
     0
1070
    77
1070
     1
1070
   140
1040
100.0
1002
}
  0
DIMENSION
  5
D5
330
1D
100
AcDbEntity
  8
Annotations
 62
     0
100
AcDbDimension
280
     0
  2
*D4
 10
491.097229004
 20
1850.0
 30
0.0
 11
410.0399302318309
 21
1000.0
 31
0.0
 70
    33
 71
     5
 42
1.7
 73
     0
 74
     0
 75
     0
  3
Standard
100
AcDbAlignedDimension
 13
150.0
 23
150.0
 33
0.0
 14
150.0
 24
1850.0
 34
0.0
1001
ACAD
1000
DSTYLE
1002
{
1070
   147
1040
30.0
1070
    73
1070
     0
1070
   172
1070
     1
1070
    49
1040
100.0
1070
   290
1070
     1
1070
    42
1040
10.0
1070
   289
1070
     0
1070
   174
1070
     1
1070
   271
1070
     2
1070
   144
1040
0.001
1070
   173
1070
     1
1070
   342
1005
0
1070
   344
1005
1ED
1070
   343
1005
1ED
1070
    41
1040
50.0
1070
    74
1070
     1
1070
    77
1070
     1
1070
   140
1040
100.0
1002
}
  0
DIMENSION
  5
D6
330
1D
100
AcDbEntity
  8
Annotations
 62
     0
100
AcDbDimension
280
     0
  2
*D5
 10
150.0
 20
430.313278198
 30
0.0
 11
-260.2523874488404
 21
430.313278198
 31
0.0
 70
   161
 71
     5
 42
0.15
 73
     0
 74
     0
 75
     0
  3
Standard
100
AcDbAlignedDimension
 13
0.0
 23
0.0
 33
0.0
 14
150.0
 24
0.0
 34
0.0
1001
ACAD
1000
DSTYLE
1002
{
1070
   147
1040
30.0
1070
    73
1070
     0
1070
   172
1070
     1
1070
    49
1040
100.0
1070
   290
1070
     1
1070
    42
1040
10.0
1070
   289
1070
     0
1070
   174
1070
     1
1070
   271
1070
     2
1070
   144
1040
0.001
1070
   173
1070
     1
1070
   342
1005
0
1070
   344
1005
1ED
1070
   343
1005
1ED
1070
    41
1040
50.0
1070
    74
1070
     0
1070
    77
1070
     1
1070
   140
1040
100.0
1002
}
  0
DIMENSION
  5
D7
330
1D
100
AcDbEntity
  8
Annotations
 62
     0
100
AcDbDimension
280
     0
  2
*D6
 10
1850.0
 20
430.313278198
 30
0.0
 11
1000.0
 21
511.3705769701692
 31
0.0
 70
    33
 71
     5
 42
1.7
 73
     0
 74
     0
 75
     0
  3
Standard
100
AcDbAlignedDimension
 13
150.0
 23
150.0
 33
0.0
 14
1850.0
 24
150.0
 34
0.0
1001
ACAD
1000
DSTYLE
1002
{
1070
   147
1040
30.0
1070
    73
1070
     0
1070
   172
1070
     1
1070
    49
1040
100.0
1070
   290
1070
     1
1070
    42
1040
10.0
1070
   289
1070
     0
1070
   174
1070
     1
1070
   271
1070
     2
1070
   144
1040
0.001
1070
   173
1070
     1
1070
   342
1005
0
1070
   344
1005
1ED
1070
   343
1005
1ED
1070
    41
1040
50.0
1070
    74
1070
     1
1070
    77
1070
     1
1070
   140
1040
100.0
1002
}
  0
DIMENSION
  5
D8
330
1D
100
AcDbEntity
  8
Annotations
 62
     0
100
AcDbDimension
280
     0
  2
*D7
 10
2000.0
 20
430.313278198
 30
0.0
 11
2260.25238744884
 21
430.313278198
 31
0.0
 70
   161
 71
     5
 42
0.15
 73
     0
 74
     0
 75
     0
  3
Standard
100
AcDbAlignedDimension
 13
1850.0
 23
150.0
 33
0.0
 14
2000.0
 24
150.0
 34
0.0
1001
ACAD
1000
DSTYLE
1002
{
1070
   147
1040
30.0
1070
    73
1070
     0
1070
   172
1070
     1
1070
    49
1040
100.0
1070
   290
1070
     1
1070
    42
1040
10.0
1070
   289
1070
     0
1070
   174
1070
     1
1070
   271
1070
     2
1070
   144
1040
0.001
1070
   173
1070
     1
1070
   342
1005
0
1070
   344
1005
1ED
1070
   343
1005
1ED
1070
    41
1040
50.0
1070
    74
1070
     0
1070
    77
1070
     1
1070
   140
1040
100.0
1002
}
  0
DIMENSION
  5
D9
330
1D
100
AcDbEntity
  8
Annotations
 62
     0
100
AcDbDimension
280
     0
  2
*D8
 10
250.0
 20
2397.36669922
 30
0.0
 11
125.0
 21
2478.423997992169
 31
0.0
 70
    33
 71
     5
 42
0.25
 73
     0
 74
     0
 75
     0
  3
Standard
100
AcDbAlignedDimension
 13
0.0
 23
2000.0
 33
0.0
 14
250.0
 24
2000.0
 34
0.0
1001
ACAD
1000
DSTYLE
1002
{
1070
   147
1040
30.0
1070
    73
1070
     0
1070
   172
1070
     1
1070
    49
1040
100.0
1070
   290
1070
     1
1070
    42
1040
10.0
1070
   289
1070
     0
1070
   174
1070
     1
1070
   271
1070
     2
1070
   144
1040
0.001
1070
   173
1070
     1
1070
   342
1005
0
1070
   344
1005
1ED
1070
   343
1005
1ED
1070
    41
1040
50.0
1070
    74
1070
     1
1070
    77
1070
     1
1070
   140
1040
100.0
1002
}
  0
DIMENSION
  5
DA
330
1D
100
AcDbEntity
  8
Annotations
 62
     0
100
AcDbDimension
280
     0
  2
*D9
 10
1450.0
 20
2397.36669922
 30
0.0
 11
850.0
 21
2478.423997992169
 31
0.0
 70
    33
 71
     5
 42
1.2
 73
     0
 74
     0
 75
     0
  3
Standard
100
AcDbAlignedDimension
 13
250.0
 23
2000.0
 33
0.0
 14
1450.0
 24
2000.0
 34
0.0
1001
ACAD
1000
DSTYLE
1002
{
1070
   147
1040
30.0
1070
    73
1070
     0
1070
   172
1070
     1
1070
    49
1040
100.0
1070
   290
1070
     1
1070
    42
1040
10.0
1070
   289
1070
     0
1070
   174
1070
     1
1070
   271
1070
     2
1070
   144
1040
0.001
1070
   173
1070
     1
1070
   342
1005
0
1070
   344
1005
1ED
1070
   343
1005
1ED
1070
    41
1040
50.0
1070
    74
1070
     1
1070
    77
1070
     1
1070
   140
1040
100.0
1002
}
  0
DIMENSION
  5
DB
330
1D
100
AcDbEntity
  8
Annotations
 62
     0
100
AcDbDimension
280
     0
  2
*D10
 10
2000.0
 20
2397.36669922
 30
0.0
 11
1725.0
 21
2478.423997992169
 31
0.0
 70
    33
 71
     5
 42
0.55
 73
     0
 74
     0
 75
     0
  3
Standard
100
AcDbAlignedDimension
 13
1450.0
 23
2000.0
 33
0.0
 14
2000.0
 24
2000.0
 34
0.0
1001
ACAD
1000
DSTYLE
1002
{
1070
   147
1040
30.0
1070
    73
1070
     0
1070
   172
1070
     1
1070
    49
1040
100.0
1070
   290
1070
     1
1070
    42
1040
10.0
1070
   289
1070
     0
1070
   174
1070
     1
1070
   271
1070
     2
1070
   144
1040
0.001
1070
   173
1070
     1
1070
   342
1005
0
1070
   344
1005
1ED
1070
   343
1005
1ED
1070
    41
1040
50.0
1070
    74
1070
     1
1070
    77
1070
     1
1070
   140
1040
100.0
1002
}
  0
DIMENSION
  5
DC
330
1D
100
AcDbEntity
  8
Annotations
 62
     0
100
AcDbDimension
280
     0
  2
*D11
 10
-305.2610848778195
 20
2000.0
 30
0.0
 11
-305.2610848778195
 21
1000.0
 31
0.0
 70
   161
 71
     5
 42
2.0
 73
     0
 74
     0
 75
     0
  3
Standard
100
AcDbAlignedDimension
 13
-305.2610848778195
 23
0.0
 33
0.0
 14
-305.2610848778195
 24
2000.0
 34
0.0
1001
ACAD
1000
DSTYLE
1002
{
1070
   147
1040
30.0
1070
    73
1070
     0
1070
   172
1070
     1
1070
    49
1040
100.0
1070
   290
1070
     1
1070
    42
1040
10.0
1070
   289
1070
     0
1070
   174
1070
     1
1070
   271
1070
     2
1070
   144
1040
0.001
1070
   173
1070
     1
1070
   342
1005
0
1070
   344
1005
1ED
1070
   343
1005
1ED
1070
    41
1040
50.0
1070
    74
1070
     1
1070
    77
1070
     1
1070
   140
1040
100.0
1002
}
  0
DIMENSION
  5
DD
330
1D
100
AcDbEntity
  8
Annotations
 62
     0
100
AcDbDimension
280
     0
  2
*D12
 10
900.0
 20
-572.515686035
 30
0.0
 11
450.0
 21
-491.4583872628309
 31
0.0
 70
    33
 71
     5
 42
0.9
 73
     0
 74
     0
 75
     0
  3
Standard
100
AcDbAlignedDimension
 13
0.0
 23
0.0
 33
0.0
 14
900.0
 24
0.0
 34
0.0
1001
ACAD
1000
DSTYLE
1002
{
1070
   147
1040
30.0
1070
    73
1070
     0
1070
   172
1070
     1
1070
    49
1040
100.0
1070
   290
1070
     1
1070
    42
1040
10.0
1070
   289
1070
     0
1070
   174
1070
     1
1070
   271
1070
     2
1070
   144
1040
0.001
1070
   173
1070
     1
1070
   342
1005
0
1070
   344
1005
1ED
1070
   343
1005
1ED
1070
    41
1040
50.0
1070
    74
1070
     1
1070
    77
1070
     1
1070
   140
1040
100.0
1002
}
  0
DIMENSION
  5
DE
330
1D
100
AcDbEntity
  8
Annotations
 62
     0
100
AcDbDimension
280
     0
  2
*D13
 10
1700.0
 20
-572.515686035
 30
0.0
 11
1300.0
 21
-491.4583872628309
 31
0.0
 70
    33
 71
     5
 42
0.8
 73
     0
 74
     0
 75
     0
  3
Standard
100
AcDbAlignedDimension
 13
900.0
 23
0.0
 33
0.0
 14
1700.0
 24
0.0
 34
0.0
1001
ACAD
1000
DSTYLE
1002
{
1070
   147
1040
30.0
1070
    73
1070
     0
1070
   172
1070
     1
1070
    49
1040
100.0
1070
   290
1070
     1
1070
    42
1040
10.0
1070
   289
1070
     0
1070
   174
1070
     1
1070
   271
1070
     2
1070
   144
1040
0.001
1070
   173
1070
     1
1070
   342
1005
0
1070
   344
1005
1ED
1070
   343
1005
1ED
1070
    41
1040
50.0
1070
    74
1070
     1
1070
    77
1070
     1
1070
   140
1040
100.0
1002
}
  0
DIMENSION
  5
DF
330
1D
100
AcDbEntity
  8
Annotations
 62
     0
100
AcDbDimension
280
     0
  2
*D14
 10
2000.0
 20
-572.515686035
 30
0.0
 11
1850.0
 21
-491.4242808508254
 31
0.0
 70
    33
 71
     5
 42
0.3
 73
     0
 74
     0
 75
     0
  3
Standard
100
AcDbAlignedDimension
 13
1700.0
 23
0.0
 33
0.0
 14
2000.0
 24
0.0
 34
0.0
1001
ACAD
1000
DSTYLE
1002
{
1070
   147
1040
30.0
1070
    73
1070
     0
1070
   172
1070
     1
1070
    49
1040
100.0
1070
   290
1070
     1
1070
    42
1040
10.0
1070
   289
1070
     0
1070
   174
1070
     1
1070
   271
1070
     2
1070
   144
1040
0.001
1070
   173
1070
     1
1070
   342
1005
0
1070
   344
1005
1ED
1070
   343
1005
1ED
1070
    41
1040
50.0
1070
    74
1070
     1
1070
    77
1070
     1
1070
   140
1040
100.0
1002
}
  0
LWPOLYLINE
  5
E0
330
1D
100
AcDbEntity
  8
Annotations
 62
     0
100
AcDbPolyline
 90
        3
 70
     0
 43
0.0
 10
2622.61645508
 20
-269.561431885
 10
1715.86364746
 20
-269.561431885
 10
1363.01838112
 20
83.2838344574
  0
TEXT
  5
E5
330
1D
100
AcDbEntity
  8
Annotations
 62
     0
100
AcDbText
 10
2665.0625
 20
-304.996490479
 30
0.0
 40
100.0
  1
wooden door
100
AcDbText
  0
LWPOLYLINE
  5
E6
330
1D
100
AcDbEntity
  8
Annotations
 62
     0
100
AcDbPolyline
 90
        2
 70
     0
 43
0.0
 10
2682.79882812
 20
1520.90441895
 10
1775.99609375
 20
1520.90441895
  0
TEXT
  5
EA
330
1D
100
AcDbEntity
  8
Annotations
 62
     0
100
AcDbText
 10
2760.03857422
 20
1562.41149902
 30
0.0
 40
100.0
  1
wooden tabletop
100
AcDbText
  0
TEXT
  5
EB
330
1D
100
AcDbEntity
  8
Annotations
 62
     0
100
AcDbText
 10
2760.03857422
 20
1408.010141239701
 30
0.0
 40
100.0
  1
height = 1.10m
100
AcDbText
  0
LWPOLYLINE
  5
EC
330
1D
100
AcDbEntity
  8
Annotations
 62
     0
100
AcDbPolyline
 90
        3
 70
     0
 43
0.0
 10
2696.08081055
 20
2244.39892578
 10
1335.95153809
 20
2244.39892578
 10
967.986755371
 20
1949.5189209
  0
TEXT
  5
F1
330
1D
100
AcDbEntity
  8
Annotations
 62
     0
100
AcDbText
 10
2764.08590161
 20
2281.2070968
 30
0.0
 40
100.0
  1
aluminium window frame
100
AcDbText
  0
TEXT
  5
F2
330
1D
100
AcDbEntity
  8
Annotations
 62
     0
100
AcDbText
 10
2764.08590161
 20
2140.545427561046
 30
0.0
 40
100.0
  1
with single-thickness glass
100
AcDbText
  0
ENDSEC
  0
SECTION
  2
OBJECTS
  0
DICTIONARY
  5
C
330
0
100
AcDbDictionary
281
     1
  3
ACAD_DETAILVIEWSTYLE
350
274
  3
ACAD_GROUP
350
D
  3
ACAD_IMAGE_VARS
350
1E8
  3
ACAD_LAYOUT
350
1A
  3
ACAD_MATERIAL
350
22
  3
ACAD_MLEADERSTYLE
350
1E4
  3
ACAD_MLINESTYLE
350
17
  3
ACAD_PLOTSETTINGS
350
19
  3
ACAD_PLOTSTYLENAME
350
E
  3
ACAD_SCALELIST
350
F9
  3
ACAD_SECTIONVIEWSTYLE
350
275
  3
ACAD_TABLESTYLE
350
1E2
  3
ACAD_VISUALSTYLE
350
1C9
  3
ACDB_RECOMPOSE_DATA
350
27D
  3
AcDbVariableDictionary
350
26C
  3
APPDATA
350
1E6
  0
SUN
  5
1E7
330
F3
100
AcDbSun
 90
        1
290
     0
 63
     7
421
 16777215
 40
1.0
291
     1
 91
  2455826
 92
 54000000
292
     0
 70
     2
 71
   256
280
     1
  0
DICTIONARY
  5
274
102
{ACAD_REACTORS
330
C
102
}
330
C
100
AcDbDictionary
281
     1
  0
DICTIONARY
  5
D
102
{ACAD_REACTORS
330
C
102
}
330
C
100
AcDbDictionary
281
     1
  0
RASTERVARIABLES
  5
1E8
102
{ACAD_REACTORS
330
C
102
}
330
C
100
AcDbRasterVariables
 90
        0
 70
     1
 71
     1
 72
     0
  0
DICTIONARY
  5
1A
102
{ACAD_REACTORS
330
C
102
}
330
C
100
AcDbDictionary
281
     1
  3
Model
350
1E
  3
Sheet 1
350
1C
  0
DICTIONARY
  5
22
102
{ACAD_REACTORS
330
C
102
}
330
C
100
AcDbDictionary
281
     1
  3
ByBlock
350
24
  3
ByLayer
350
23
  3
Global
350
25
  0
DICTIONARY
  5
1E4
102
{ACAD_REACTORS
330
C
102
}
330
C
100
AcDbDictionary
281
     1
  3
Standard
350
1E5
  0
DICTIONARY
  5
17
102
{ACAD_REACTORS
330
C
102
}
330
C
100
AcDbDictionary
281
     1
  3
Standard
350
18
  0
DICTIONARY
  5
19
102
{ACAD_REACTORS
330
C
102
}
330
C
100
AcDbDictionary
281
     1
  0
ACDBDICTIONARYWDFLT
  5
E
102
{ACAD_REACTORS
330
C
102
}
330
C
100
AcDbDictionary
281
     1
  3
Normal
350
F
100
AcDbDictionaryWithDefault
340
F
  0
DICTIONARY
  5
F9
102
{ACAD_REACTORS
330
C
102
}
330
C
100
AcDbDictionary
281
     1
  3
A0
350
FA
  3
A1
350
FB
  3
A2
350
FC
  3
A3
350
FD
  3
A4
350
FE
  3
A5
350
FF
  3
A6
350
100
  3
A7
350
101
  3
A8
350
102
  3
A9
350
103
  3
B0
350
104
  3
B1
350
105
  3
B2
350
106
  3
B3
350
107
  3
B4
350
108
  3
B5
350
109
  3
B6
350
10A
  3
B7
350
10B
  3
B8
350
10C
  3
B9
350
10D
  3
C0
350
10E
  3
C1
350
10F
  3
C2
350
110
  3
C3
350
111
  3
C4
350
112
  3
C5
350
113
  3
C6
350
114
  3
C7
350
115
  3
C8
350
116
  3
C9
350
117
  3
D0
350
118
  3
D1
350
119
  3
D2
350
11A
  0
DICTIONARY
  5
275
102
{ACAD_REACTORS
330
C
102
}
330
C
100
AcDbDictionary
281
     1
  0
DICTIONARY
  5
1E2
102
{ACAD_REACTORS
330
C
102
}
330
C
100
AcDbDictionary
281
     1
  3
Standard
350
1E3
  0
DICTIONARY
  5
1C9
102
{ACAD_REACTORS
330
C
102
}
330
C
100
AcDbDictionary
281
     1
  3
2dWireframe
350
1CE
  3
Basic
350
1D1
  3
Brighten
350
1D5
  3
ColorChange
350
1D9
  3
Conceptual
350
1D3
  3
Dim
350
1D4
  3
EdgeColorOff
350
1DC
  3
Facepattern
350
1D8
  3
Flat
350
1CA
  3
FlatWithEdges
350
1CB
  3
Gouraud
350
1CC
  3
GouraudWithEdges
350
1CD
  3
Hidden
350
1D0
  3
JitterOff
350
1DA
  3
Linepattern
350
1D7
  3
OverhangOff
350
1DB
  3
Realistic
350
1D2
  3
Shaded
350
1E1
  3
Shaded with edges
350
1E0
  3
Shades of Gray
350
1DD
  3
Sketchy
350
1DE
  3
Thicken
350
1D6
  3
Wireframe
350
1CF
  3
X-Ray
350
1DF
  0
XRECORD
  5
27D
102
{ACAD_REACTORS
330
C
102
}
330
C
100
AcDbXrecord
280
     1
 90
        1
330
1E3
  0
DICTIONARY
  5
26C
102
{ACAD_REACTORS
330
C
102
}
330
C
100
AcDbDictionary
281
     1
  3
CANNOSCALE
350
26D
  3
CMLEADERSTYLE
350
272
  3
CTABLESTYLE
350
271
  3
MSLTSCALE
350
273
  0
DICTIONARY
  5
1E6
102
{ACAD_REACTORS
330
C
102
}
330
C
100
AcDbDictionary
281
     1
  0
LAYOUT
  5
1E
102
{ACAD_REACTORS
330
1A
102
}
330
1A
100
AcDbPlotSettings
  1

  2
none_device
  4
Letter_(8.50_x_11.00_Inches)
  6

 40
6.35
 41
6.35
 42
6.35
 43
6.35
 44
215.9
 45
279.4
 46
0.0
 47
0.0
 48
0.0
 49
0.0
140
0.0
141
0.0
142
1.0
143
1.0
 70
  1712
 72
     0
 73
     0
 74
     0
  7

 75
     0
 76
     0
 77
     2
 78
   300
147
1.0
148
0.0
149
0.0
100
AcDbLayout
  1
Model
 70
     1
 71
     0
 10
0.0
 20
0.0
 11
12.0
 21
9.0
 12
0.0
 22
0.0
 32
0.0
 14
1.000000000000000E+20
 24
1.000000000000000E+20
 34
1.000000000000000E+20
 15
-1.000000000000000E+20
 25
-1.000000000000000E+20
 35
-1.000000000000000E+20
146
0.0
 13
0.0
 23
0.0
 33
0.0
 16
1.0
 26
0.0
 36
0.0
 17
0.0
 27
1.0
 37
0.0
 76
     0
330
1D
331
F3
  0
LAYOUT
  5
1C
102
{ACAD_REACTORS
330
1A
102
}
330
1A
100
AcDbPlotSettings
  1

  2
none_device
  4

  6

 40
0.0
 41
0.0
 42
0.0
 43
0.0
 44
0.0
 45
0.0
 46
0.0
 47
0.0
 48
0.0
 49
0.0
140
0.0
141
0.0
142
1.0
143
1.0
 70
   688
 72
     0
 73
     0
 74
     5
  7

 75
    16
 76
     0
 77
     2
 78
   300
147
1.0
148
0.0
149
0.0
100
AcDbLayout
  1
Sheet 1
 70
     1
 71
     1
 10
0.0
 20
0.0
 11
0.0
 21
0.0
 12
0.0
 22
0.0
 32
0.0
 14
1.000000000000000E+20
 24
1.000000000000000E+20
 34
1.000000000000000E+20
 15
-1.000000000000000E+20
 25
-1.000000000000000E+20
 35
-1.000000000000000E+20
146
0.0
 13
0.0
 23
0.0
 33
0.0
 16
1.0
 26
0.0
 36
0.0
 17
0.0
 27
1.0
 37
0.0
 76
     0
330
1B
  0
MATERIAL
  5
24
102
{ACAD_REACTORS
330
22
102
}
330
22
100
AcDbMaterial
  1
ByBlock
 72
     1
 94
      127
  0
MATERIAL
  5
23
102
{ACAD_REACTORS
330
22
102
}
330
22
100
AcDbMaterial
  1
ByLayer
 72
     1
 94
      127
  0
MATERIAL
  5
25
102
{ACAD_REACTORS
330
22
102
}
330
22
100
AcDbMaterial
  1
Global
 72
     1
 94
      127
  0
MLEADERSTYLE
  5
1E5
102
{ACAD_REACTORS
330
1E4
102
}
330
1E4
100
AcDbMLeaderStyle
179
     2
170
     2
171
     1
172
     0
 90
        2
 40
0.0
 41
0.0
173
     1
 91
-1056964608
340
14
 92
       -2
290
     1
 42
0.09
291
     1
 43
0.36
  3
Standard
341
0
 44
0.18
300

342
11
174
     1
178
     6
175
     1
176
     0
 93
-1056964608
 45
0.18
292
     0
297
     0
 46
0.18
343
0
 94
-1056964608
 47
1.0
 49
1.0
140
1.0
293
     1
141
0.0
294
     1
177
     0
142
1.0
295
     0
296
     0
143
0.125
271
     0
272
     9
273
     9
298
     0
  0
MLINESTYLE
  5
18
102
{ACAD_REACTORS
330
17
102
}
330
17
100
AcDbMlineStyle
  2
Standard
 70
     0
  3

 62
   256
 51
90.0
 52
90.0
 71
     2
 49
0.5
 62
   256
  6
BYLAYER
 49
-0.5
 62
   256
  6
BYLAYER
  0
ACDBPLACEHOLDER
  5
F
102
{ACAD_REACTORS
330
E
102
}
330
E
  0
SCALE
  5
FA
102
{ACAD_REACTORS
330
F9
102
}
330
F9
100
AcDbScale
 70
     0
300
1:1
140
1.0
141
1.0
290
     1
  0
SCALE
  5
FB
102
{ACAD_REACTORS
330
F9
102
}
330
F9
100
AcDbScale
 70
     0
300
1:2
140
1.0
141
2.0
290
     0
  0
SCALE
  5
FC
102
{ACAD_REACTORS
330
F9
102
}
330
F9
100
AcDbScale
 70
     0
300
1:4
140
1.0
141
4.0
290
     0
  0
SCALE
  5
FD
102
{ACAD_REACTORS
330
F9
102
}
330
F9
100
AcDbScale
 70
     0
300
1:5
140
1.0
141
5.0
290
     0
  0
SCALE
  5
FE
102
{ACAD_REACTORS
330
F9
102
}
330
F9
100
AcDbScale
 70
     0
300
1:8
140
1.0
141
8.0
290
     0
  0
SCALE
  5
FF
102
{ACAD_REACTORS
330
F9
102
}
330
F9
100
AcDbScale
 70
     0
300
1:10
140
1.0
141
10.0
290
     0
  0
SCALE
  5
100
102
{ACAD_REACTORS
330
F9
102
}
330
F9
100
AcDbScale
 70
     0
300
1:16
140
1.0
141
16.0
290
     0
  0
SCALE
  5
101
102
{ACAD_REACTORS
330
F9
102
}
330
F9
100
AcDbScale
 70
     0
300
1:20
140
1.0
141
20.0
290
     0
  0
SCALE
  5
102
102
{ACAD_REACTORS
330
F9
102
}
330
F9
100
AcDbScale
 70
     0
300
1:30
140
1.0
141
30.0
290
     0
  0
SCALE
  5
103
102
{ACAD_REACTORS
330
F9
102
}
330
F9
100
AcDbScale
 70
     0
300
1:40
140
1.0
141
40.0
290
     0
  0
SCALE
  5
104
102
{ACAD_REACTORS
330
F9
102
}
330
F9
100
AcDbScale
 70
     0
300
1:50
140
1.0
141
50.0
290
     0
  0
SCALE
  5
105
102
{ACAD_REACTORS
330
F9
102
}
330
F9
100
AcDbScale
 70
     0
300
1:100
140
1.0
141
100.0
290
     0
  0
SCALE
  5
106
102
{ACAD_REACTORS
330
F9
102
}
330
F9
100
AcDbScale
 70
     0
300
2:1
140
2.0
141
1.0
290
     0
  0
SCALE
  5
107
102
{ACAD_REACTORS
330
F9
102
}
330
F9
100
AcDbScale
 70
     0
300
4:1
140
4.0
141
1.0
290
     0
  0
SCALE
  5
108
102
{ACAD_REACTORS
330
F9
102
}
330
F9
100
AcDbScale
 70
     0
300
8:1
140
8.0
141
1.0
290
     0
  0
SCALE
  5
109
102
{ACAD_REACTORS
330
F9
102
}
330
F9
100
AcDbScale
 70
     0
300
10:1
140
10.0
141
1.0
290
     0
  0
SCALE
  5
10A
102
{ACAD_REACTORS
330
F9
102
}
330
F9
100
AcDbScale
 70
     0
300
100:1
140
100.0
141
1.0
290
     0
  0
SCALE
  5
10B
102
{ACAD_REACTORS
330
F9
102
}
330
F9
100
AcDbScale
 70
     0
300
1/128" = 1'-0"
140
0.0078125
141
12.0
290
     0
  0
SCALE
  5
10C
102
{ACAD_REACTORS
330
F9
102
}
330
F9
100
AcDbScale
 70
     0
300
1/64" = 1'-0"
140
0.015625
141
12.0
290
     0
  0
SCALE
  5
10D
102
{ACAD_REACTORS
330
F9
102
}
330
F9
100
AcDbScale
 70
     0
300
1/32" = 1'-0"
140
0.03125
141
12.0
290
     0
  0
SCALE
  5
10E
102
{ACAD_REACTORS
330
F9
102
}
330
F9
100
AcDbScale
 70
     0
300
1/16" = 1'-0"
140
0.0625
141
12.0
290
     0
  0
SCALE
  5
10F
102
{ACAD_REACTORS
330
F9
102
}
330
F9
100
AcDbScale
 70
     0
300
3/32" = 1'-0"
140
0.09375
141
12.0
290
     0
  0
SCALE
  5
110
102
{ACAD_REACTORS
330
F9
102
}
330
F9
100
AcDbScale
 70
     0
300
1/8" = 1'-0"
140
0.125
141
12.0
290
     0
  0
SCALE
  5
111
102
{ACAD_REACTORS
330
F9
102
}
330
F9
100
AcDbScale
 70
     0
300
3/16" = 1'-0"
140
0.1875
141
12.0
290
     0
  0
SCALE
  5
112
102
{ACAD_REACTORS
330
F9
102
}
330
F9
100
AcDbScale
 70
     0
300
1/4" = 1'-0"
140
0.25
141
12.0
290
     0
  0
SCALE
  5
113
102
{ACAD_REACTORS
330
F9
102
}
330
F9
100
AcDbScale
 70
     0
300
3/8" = 1'-0"
140
0.375
141
12.0
290
     0
  0
SCALE
  5
114
102
{ACAD_REACTORS
330
F9
102
}
330
F9
100
AcDbScale
 70
     0
300
1/2" = 1'-0"
140
0.5
141
12.0
290
     0
  0
SCALE
  5
115
102
{ACAD_REACTORS
330
F9
102
}
330
F9
100
AcDbScale
 70
     0
300
3/4" = 1'-0"
140
0.75
141
12.0
290
     0
  0
SCALE
  5
116
102
{ACAD_REACTORS
330
F9
102
}
330
F9
100
AcDbScale
 70
     0
300
1" = 1'-0"
140
1.0
141
12.0
290
     0
  0
SCALE
  5
117
102
{ACAD_REACTORS
330
F9
102
}
330
F9
100
AcDbScale
 70
     0
300
1-1/2" = 1'-0"
140
1.5
141
12.0
290
     0
  0
SCALE
  5
118
102
{ACAD_REACTORS
330
F9
102
}
330
F9
100
AcDbScale
 70
     0
300
3" = 1'-0"
140
3.0
141
12.0
290
     0
  0
SCALE
  5
119
102
{ACAD_REACTORS
330
F9
102
}
330
F9
100
AcDbScale
 70
     0
300
6" = 1'-0"
140
6.0
141
12.0
290
     0
  0
SCALE
  5
11A
102
{ACAD_REACTORS
330
F9
102
}
330
F9
100
AcDbScale
 70
     0
300
1'-0" = 1'-0"
140
12.0
141
12.0
290
     0
  0
TABLESTYLE
  5
1E3
102
{ACAD_REACTORS
330
1E2
102
}
102
{ACAD_XDICTIONARY
360
27B
102
}
330
1E2
100
AcDbTableStyle
  3
Standard
 70
     0
 71
     0
 40
0.06
 41
0.06
280
     0
281
     0
  7
STANDARD
140
0.18
170
     2
 62
     0
 63
   257
283
     0
 90
        4
 91
        0
  1

274
    -2
284
     1
 64
     0
275
    -2
285
     1
 65
     0
276
    -2
286
     1
 66
     0
277
    -2
287
     1
 67
     0
278
    -2
288
     1
 68
     0
279
    -2
289
     1
 69
     0
  7
STANDARD
140
0.25
170
     5
 62
     0
 63
   257
283
     0
 90
        4
 91
        0
  1

274
    -2
284
     1
 64
     0
275
    -2
285
     1
 65
     0
276
    -2
286
     1
 66
     0
277
    -2
287
     1
 67
     0
278
    -2
288
     1
 68
     0
279
    -2
289
     1
 69
     0
  7
STANDARD
140
0.18
170
     5
 62
     0
 63
   257
283
     0
 90
        4
 91
        0
  1

274
    -2
284
     1
 64
     0
275
    -2
285
     1
 65
     0
276
    -2
286
     1
 66
     0
277
    -2
287
     1
 67
     0
278
    -2
288
     1
 68
     0
279
    -2
289
     1
 69
     0
  0
VISUALSTYLE
  5
1CE
102
{ACAD_REACTORS
330
1C9
102
}
330
1C9
100
AcDbVisualStyle
  2
2dWireframe
 70
     4
177
     3
291
     0
 70
    58
 90
        0
176
     1
 90
        2
176
     1
 90
        0
176
     1
 90
        0
176
     1
 40
0.6
176
     1
 40
30.0
176
     1
 62
     7
420
 16777215
176
     1
 90
        1
176
     1
 90
        4
176
     1
 62
     7
176
     1
 62
   257
176
     1
 90
        1
176
     1
 90
        1
176
     1
 40
1.0
176
     1
 90
        0
176
     1
 62
   257
176
     1
 40
1.0
176
     1
 90
        1
176
     1
 90
        6
176
     1
 90
        2
176
     1
 62
     7
176
     1
 90
        5
176
     1
 90
        0
176
     1
 90
        0
176
     1
290
     0
176
     1
 90
        1
176
     1
 40
0.0
176
     1
 90
        0
176
     1
290
     1
176
     1
290
     1
176
     1
290
     0
176
     1
290
     0
176
     1
290
     0
176
     1
290
     0
176
     1
290
     0
176
     1
290
     0
176
     1
290
     0
176
     1
 90
       50
176
     1
 40
0.0
176
     1
 40
1.0
176
     1
 90
        0
176
     1
 62
   178
420
        0
176
     1
 90
       50
176
     1
 90
        3
176
     1
 62
     5
420
      255
176
     1
290
     0
176
     1
 90
       50
176
     1
 90
       50
176
     1
 90
       50
176
     1
290
     0
176
     1
 90
       50
176
     1
 62
   256
176
     0
 40
1.0
176
     0
 90
        2
176
     1
  1
strokes_ogs.tif
176
     1
290
     0
176
     1
 40
1.0
176
     1
 40
1.0
176
     1
  0
VISUALSTYLE
  5
1D1
102
{ACAD_REACTORS
330
1C9
102
}
330
1C9
100
AcDbVisualStyle
  2
Basic
 70
     7
177
     3
291
     1
 70
    58
 90
        1
176
     1
 90
        0
176
     1
 90
        1
176
     1
 90
        0
176
     1
 40
0.6
176
     1
 40
30.0
176
     1
 62
     7
420
 16777215
176
     1
 90
        0
176
     1
 90
        4
176
     1
 62
     7
176
     1
 62
   257
176
     1
 90
        1
176
     1
 90
        1
176
     1
 40
1.0
176
     1
 90
        8
176
     1
 62
     7
176
     1
 40
1.0
176
     1
 90
        1
176
     1
 90
        6
176
     1
 90
        2
176
     1
 62
     7
176
     1
 90
        5
176
     1
 90
        0
176
     1
 90
        0
176
     1
290
     0
176
     1
 90
        1
176
     1
 40
0.0
176
     1
 90
        0
176
     1
290
     0
176
     1
290
     1
176
     1
290
     1
176
     1
290
     0
176
     1
290
     0
176
     1
290
     0
176
     1
290
     0
176
     1
290
     0
176
     1
290
     0
176
     1
 90
       50
176
     1
 40
0.0
176
     1
 40
1.0
176
     1
 90
        0
176
     1
 62
   178
420
        0
176
     1
 90
       50
176
     1
 90
        3
176
     1
 62
     5
420
      255
176
     1
290
     0
176
     1
 90
       50
176
     1
 90
       50
176
     1
 90
       50
176
     1
290
     0
176
     1
 90
       50
176
     1
 62
   256
176
     0
 40
1.0
176
     0
 90
        2
176
     1
  1
strokes_ogs.tif
176
     1
290
     0
176
     1
 40
1.0
176
     1
 40
1.0
176
     1
  0
VISUALSTYLE
  5
1D5
102
{ACAD_REACTORS
330
1C9
102
}
330
1C9
100
AcDbVisualStyle
  2
Brighten
 70
    12
177
     3
291
     1
 70
    58
 90
        2
176
     1
 90
        2
176
     1
 90
        0
176
     1
 90
        0
176
     1
 40
0.6
176
     1
 40
30.0
176
     1
 62
     7
420
 16777215
176
     1
 90
        1
176
     1
 90
        4
176
     1
 62
     7
176
     1
 62
   257
176
     1
 90
        1
176
     1
 90
        1
176
     1
 40
1.0
176
     1
 90
        8
176
     1
 62
     7
176
     1
 40
1.0
176
     1
 90
        1
176
     1
 90
        6
176
     1
 90
        2
176
     1
 62
     7
176
     1
 90
        5
176
     1
 90
        0
176
     1
 90
        0
176
     1
290
     0
176
     1
 90
        1
176
     1
 40
50.0
176
     1
 90
        0
176
     1
290
     0
176
     1
290
     1
176
     1
290
     1
176
     1
290
     0
176
     1
290
     0
176
     1
290
     0
176
     1
290
     0
176
     1
290
     0
176
     1
290
     0
176
     1
 90
       50
176
     1
 40
0.0
176
     1
 40
1.0
176
     1
 90
        0
176
     1
 62
   178
420
        0
176
     1
 90
       50
176
     1
 90
        3
176
     1
 62
     5
420
      255
176
     1
290
     0
176
     1
 90
       50
176
     1
 90
       50
176
     1
 90
       50
176
     1
290
     0
176
     1
 90
       50
176
     1
 62
   256
176
     0
 40
1.0
176
     0
 90
        2
176
     1
  1
strokes_ogs.tif
176
     1
290
     0
176
     1
 40
1.0
176
     1
 40
1.0
176
     1
  0
VISUALSTYLE
  5
1D9
102
{ACAD_REACTORS
330
1C9
102
}
330
1C9
100
AcDbVisualStyle
  2
ColorChange
 70
    16
177
     3
291
     1
 70
    58
 90
        2
176
     1
 90
        2
176
     1
 90
        3
176
     1
 90
        0
176
     1
 40
0.6
176
     1
 40
30.0
176
     1
 62
     8
420
  8421504
176
     1
 90
        1
176
     1
 90
        4
176
     1
 62
     7
176
     1
 62
   257
176
     1
 90
        1
176
     1
 90
        1
176
     1
 40
1.0
176
     1
 90
        8
176
     1
 62
     8
420
  8421504
176
     1
 40
1.0
176
     1
 90
        1
176
     1
 90
        6
176
     1
 90
        2
176
     1
 62
     7
176
     1
 90
        5
176
     1
 90
        0
176
     1
 90
        0
176
     1
290
     0
176
     1
 90
        1
176
     1
 40
0.0
176
     1
 90
        0
176
     1
290
     0
176
     1
290
     1
176
     1
290
     1
176
     1
290
     0
176
     1
290
     0
176
     1
290
     0
176
     1
290
     0
176
     1
290
     0
176
     1
290
     0
176
     1
 90
       50
176
     1
 40
0.0
176
     1
 40
1.0
176
     1
 90
        0
176
     1
 62
   178
420
        0
176
     1
 90
       50
176
     1
 90
        3
176
     1
 62
     5
420
      255
176
     1
290
     0
176
     1
 90
       50
176
     1
 90
       50
176
     1
 90
       50
176
     1
290
     0
176
     1
 90
       50
176
     1
 62
   256
176
     0
 40
1.0
176
     0
 90
        2
176
     1
  1
strokes_ogs.tif
176
     1
290
     0
176
     1
 40
1.0
176
     1
 40
1.0
176
     1
  0
VISUALSTYLE
  5
1D3
102
{ACAD_REACTORS
330
1C9
102
}
330
1C9
100
AcDbVisualStyle
  2
Conceptual
 70
     9
177
     3
291
     0
 70
    58
 90
        3
176
     1
 90
        2
176
     1
 90
        0
176
     1
 90
        0
176
     1
 40
0.6
176
     1
 40
30.0
176
     1
 62
     7
420
 16777215
176
     1
 90
        2
176
     1
 90
        2
176
     1
 62
     7
176
     1
 62
   257
176
     1
 90
        1
176
     1
 90
        1
176
     1
 40
179.0
176
     1
 90
        8
176
     1
 62
     7
176
     1
 40
1.0
176
     1
 90
        1
176
     1
 90
        6
176
     1
 90
        2
176
     1
 62
     7
176
     1
 90
        3
176
     1
 90
        0
176
     1
 90
        0
176
     1
290
     0
176
     1
 90
        1
176
     1
 40
0.0
176
     1
 90
        0
176
     1
290
     0
176
     1
290
     1
176
     1
290
     1
176
     1
290
     0
176
     1
290
     0
176
     1
290
     0
176
     1
290
     0
176
     1
290
     0
176
     1
290
     0
176
     1
 90
       50
176
     1
 40
0.0
176
     1
 40
1.0
176
     1
 90
        0
176
     1
 62
   178
420
        0
176
     1
 90
       50
176
     1
 90
        3
176
     1
 62
     5
420
      255
176
     1
290
     0
176
     1
 90
       50
176
     1
 90
       50
176
     1
 90
       50
176
     1
290
     0
176
     1
 90
       50
176
     1
 62
   256
176
     0
 40
1.0
176
     0
 90
        2
176
     1
  1
strokes_ogs.tif
176
     1
290
     0
176
     1
 40
1.0
176
     1
 40
1.0
176
     1
  0
VISUALSTYLE
  5
1D4
102
{ACAD_REACTORS
330
1C9
102
}
330
1C9
100
AcDbVisualStyle
  2
Dim
 70
    11
177
     3
291
     1
 70
    58
 90
        2
176
     1
 90
        2
176
     1
 90
        0
176
     1
 90
        0
176
     1
 40
0.6
176
     1
 40
30.0
176
     1
 62
     7
420
 16777215
176
     1
 90
        1
176
     1
 90
        4
176
     1
 62
     7
176
     1
 62
   257
176
     1
 90
        1
176
     1
 90
        1
176
     1
 40
1.0
176
     1
 90
        8
176
     1
 62
     7
176
     1
 40
1.0
176
     1
 90
        1
176
     1
 90
        6
176
     1
 90
        2
176
     1
 62
     7
176
     1
 90
        5
176
     1
 90
        0
176
     1
 90
        0
176
     1
290
     0
176
     1
 90
        1
176
     1
 40
-50.0
176
     1
 90
        0
176
     1
290
     0
176
     1
290
     1
176
     1
290
     1
176
     1
290
     0
176
     1
290
     0
176
     1
290
     0
176
     1
290
     0
176
     1
290
     0
176
     1
290
     0
176
     1
 90
       50
176
     1
 40
0.0
176
     1
 40
1.0
176
     1
 90
        0
176
     1
 62
   178
420
        0
176
     1
 90
       50
176
     1
 90
        3
176
     1
 62
     5
420
      255
176
     1
290
     0
176
     1
 90
       50
176
     1
 90
       50
176
     1
 90
       50
176
     1
290
     0
176
     1
 90
       50
176
     1
 62
   256
176
     0
 40
1.0
176
     0
 90
        2
176
     1
  1
strokes_ogs.tif
176
     1
290
     0
176
     1
 40
1.0
176
     1
 40
1.0
176
     1
  0
VISUALSTYLE
  5
1DC
102
{ACAD_REACTORS
330
1C9
102
}
330
1C9
100
AcDbVisualStyle
  2
EdgeColorOff
 70
    22
177
     3
291
     1
 70
    58
 90
        2
176
     0
 90
        2
176
     0
 90
        0
176
     0
 90
        0
176
     0
 40
0.6
176
     0
 40
30.0
176
     0
 62
     7
420
 16777215
176
     0
 90
        1
176
     0
 90
        4
176
     0
 62
     7
176
     0
 62
   257
176
     0
 90
        1
176
     0
 90
        1
176
     0
 40
1.0
176
     0
 90
        8
176
     2
 62
     7
176
     0
 40
1.0
176
     0
 90
        1
176
     0
 90
        6
176
     0
 90
        2
176
     0
 62
     7
176
     0
 90
        5
176
     0
 90
        0
176
     0
 90
        0
176
     0
290
     0
176
     0
 90
        1
176
     0
 40
0.0
176
     0
 90
        0
176
     0
290
     0
176
     0
290
     1
176
     0
290
     1
176
     0
290
     0
176
     0
290
     0
176
     0
290
     0
176
     0
290
     0
176
     0
290
     0
176
     0
290
     0
176
     0
 90
       50
176
     0
 40
0.0
176
     0
 40
1.0
176
     0
 90
        0
176
     0
 62
   178
420
        0
176
     0
 90
       50
176
     0
 90
        3
176
     0
 62
     5
420
      255
176
     0
290
     0
176
     0
 90
       50
176
     0
 90
       50
176
     0
 90
       50
176
     0
290
     0
176
     0
 90
       50
176
     0
 62
   256
176
     0
 40
1.0
176
     0
 90
        2
176
     0
  1
strokes_ogs.tif
176
     0
290
     0
176
     0
 40
1.0
176
     0
 40
1.0
176
     0
  0
VISUALSTYLE
  5
1D8
102
{ACAD_REACTORS
330
1C9
102
}
330
1C9
100
AcDbVisualStyle
  2
Facepattern
 70
    15
177
     3
291
     1
 70
    58
 90
        2
176
     1
 90
        2
176
     1
 90
        0
176
     1
 90
        0
176
     1
 40
0.6
176
     1
 40
30.0
176
     1
 62
     7
420
 16777215
176
     1
 90
        1
176
     1
 90
        4
176
     1
 62
     7
176
     1
 62
   257
176
     1
 90
        1
176
     1
 90
        1
176
     1
 40
1.0
176
     1
 90
        8
176
     1
 62
     7
176
     1
 40
1.0
176
     1
 90
        1
176
     1
 90
        6
176
     1
 90
        2
176
     1
 62
     7
176
     1
 90
        5
176
     1
 90
        0
176
     1
 90
        0
176
     1
290
     0
176
     1
 90
        1
176
     1
 40
0.0
176
     1
 90
        0
176
     1
290
     0
176
     1
290
     1
176
     1
290
     1
176
     1
290
     0
176
     1
290
     0
176
     1
290
     0
176
     1
290
     0
176
     1
290
     0
176
     1
290
     0
176
     1
 90
       50
176
     1
 40
0.0
176
     1
 40
1.0
176
     1
 90
        0
176
     1
 62
   178
420
        0
176
     1
 90
       50
176
     1
 90
        3
176
     1
 62
     5
420
      255
176
     1
290
     0
176
     1
 90
       50
176
     1
 90
       50
176
     1
 90
       50
176
     1
290
     0
176
     1
 90
       50
176
     1
 62
   256
176
     0
 40
1.0
176
     0
 90
        2
176
     1
  1
strokes_ogs.tif
176
     1
290
     0
176
     1
 40
1.0
176
     1
 40
1.0
176
     1
  0
VISUALSTYLE
  5
1CA
102
{ACAD_REACTORS
330
1C9
102
}
330
1C9
100
AcDbVisualStyle
  2
Flat
 70
     0
177
     3
291
     1
 70
    58
 90
        2
176
     1
 90
        1
176
     1
 90
        1
176
     1
 90
        2
176
     1
 40
0.6
176
     1
 40
30.0
176
     1
 62
     7
420
 16777215
176
     1
 90
        0
176
     1
 90
        0
176
     1
 62
     7
176
     1
 62
   257
176
     1
 90
        1
176
     1
 90
        1
176
     1
 40
1.0
176
     1
 90
        8
176
     1
 62
     7
176
     1
 40
1.0
176
     1
 90
        1
176
     1
 90
        6
176
     1
 90
        2
176
     1
 62
     7
176
     1
 90
        5
176
     1
 90
        0
176
     1
 90
        0
176
     1
290
     0
176
     1
 90
       13
176
     1
 40
0.0
176
     1
 90
        0
176
     1
290
     0
176
     1
290
     1
176
     1
290
     1
176
     1
290
     0
176
     1
290
     0
176
     1
290
     0
176
     1
290
     0
176
     1
290
     0
176
     1
290
     0
176
     1
 90
       50
176
     1
 40
0.0
176
     1
 40
1.0
176
     1
 90
        0
176
     1
 62
   178
420
        0
176
     1
 90
       50
176
     1
 90
        3
176
     1
 62
     5
420
      255
176
     1
290
     0
176
     1
 90
       50
176
     1
 90
       50
176
     1
 90
       50
176
     1
290
     0
176
     1
 90
       50
176
     1
 62
   256
176
     0
 40
1.0
176
     0
 90
        2
176
     1
  1
strokes_ogs.tif
176
     1
290
     0
176
     1
 40
1.0
176
     1
 40
1.0
176
     1
  0
VISUALSTYLE
  5
1CB
102
{ACAD_REACTORS
330
1C9
102
}
330
1C9
100
AcDbVisualStyle
  2
FlatWithEdges
 70
     1
177
     3
291
     1
 70
    58
 90
        2
176
     1
 90
        1
176
     1
 90
        1
176
     1
 90
        2
176
     1
 40
0.6
176
     1
 40
30.0
176
     1
 62
     7
420
 16777215
176
     1
 90
        1
176
     1
 90
        0
176
     1
 62
     7
176
     1
 62
   257
176
     1
 90
        1
176
     1
 90
        1
176
     1
 40
1.0
176
     1
 90
        0
176
     1
 62
   257
176
     1
 40
1.0
176
     1
 90
        1
176
     1
 90
        6
176
     1
 90
        2
176
     1
 62
     7
176
     1
 90
        5
176
     1
 90
        0
176
     1
 90
        0
176
     1
290
     0
176
     1
 90
       13
176
     1
 40
0.0
176
     1
 90
        0
176
     1
290
     0
176
     1
290
     1
176
     1
290
     1
176
     1
290
     0
176
     1
290
     0
176
     1
290
     0
176
     1
290
     0
176
     1
290
     0
176
     1
290
     0
176
     1
 90
       50
176
     1
 40
0.0
176
     1
 40
1.0
176
     1
 90
        0
176
     1
 62
   178
420
        0
176
     1
 90
       50
176
     1
 90
        3
176
     1
 62
     5
420
      255
176
     1
290
     0
176
     1
 90
       50
176
     1
 90
       50
176
     1
 90
       50
176
     1
290
     0
176
     1
 90
       50
176
     1
 62
   256
176
     0
 40
1.0
176
     0
 90
        2
176
     1
  1
strokes_ogs.tif
176
     1
290
     0
176
     1
 40
1.0
176
     1
 40
1.0
176
     1
  0
VISUALSTYLE
  5
1CC
102
{ACAD_REACTORS
330
1C9
102
}
330
1C9
100
AcDbVisualStyle
  2
Gouraud
 70
     2
177
     3
291
     1
 70
    58
 90
        2
176
     1
 90
        2
176
     1
 90
        1
176
     1
 90
        2
176
     1
 40
0.6
176
     1
 40
30.0
176
     1
 62
     7
420
 16777215
176
     1
 90
        0
176
     1
 90
        0
176
     1
 62
     7
176
     1
 62
   257
176
     1
 90
        1
176
     1
 90
        1
176
     1
 40
1.0
176
     1
 90
        0
176
     1
 62
     7
176
     1
 40
1.0
176
     1
 90
        1
176
     1
 90
        6
176
     1
 90
        2
176
     1
 62
     7
176
     1
 90
        5
176
     1
 90
        0
176
     1
 90
        0
176
     1
290
     0
176
     1
 90
       13
176
     1
 40
0.0
176
     1
 90
        0
176
     1
290
     0
176
     1
290
     1
176
     1
290
     1
176
     1
290
     0
176
     1
290
     0
176
     1
290
     0
176
     1
290
     0
176
     1
290
     0
176
     1
290
     0
176
     1
 90
       50
176
     1
 40
0.0
176
     1
 40
1.0
176
     1
 90
        0
176
     1
 62
   178
420
        0
176
     1
 90
       50
176
     1
 90
        3
176
     1
 62
     5
420
      255
176
     1
290
     0
176
     1
 90
       50
176
     1
 90
       50
176
     1
 90
       50
176
     1
290
     0
176
     1
 90
       50
176
     1
 62
   256
176
     0
 40
1.0
176
     0
 90
        2
176
     1
  1
strokes_ogs.tif
176
     1
290
     0
176
     1
 40
1.0
176
     1
 40
1.0
176
     1
  0
VISUALSTYLE
  5
1CD
102
{ACAD_REACTORS
330
1C9
102
}
330
1C9
100
AcDbVisualStyle
  2
GouraudWithEdges
 70
     3
177
     3
291
     1
 70
    58
 90
        2
176
     1
 90
        2
176
     1
 90
        1
176
     1
 90
        2
176
     1
 40
0.6
176
     1
 40
30.0
176
     1
 62
     7
420
 16777215
176
     1
 90
        1
176
     1
 90
        0
176
     1
 62
     7
176
     1
 62
   257
176
     1
 90
        1
176
     1
 90
        1
176
     1
 40
1.0
176
     1
 90
        0
176
     1
 62
   257
176
     1
 40
1.0
176
     1
 90
        1
176
     1
 90
        6
176
     1
 90
        2
176
     1
 62
     7
176
     1
 90
        5
176
     1
 90
        0
176
     1
 90
        0
176
     1
290
     0
176
     1
 90
       13
176
     1
 40
0.0
176
     1
 90
        0
176
     1
290
     0
176
     1
290
     1
176
     1
290
     1
176
     1
290
     0
176
     1
290
     0
176
     1
290
     0
176
     1
290
     0
176
     1
290
     0
176
     1
290
     0
176
     1
 90
       50
176
     1
 40
0.0
176
     1
 40
1.0
176
     1
 90
        0
176
     1
 62
   178
420
        0
176
     1
 90
       50
176
     1
 90
        3
176
     1
 62
     5
420
      255
176
     1
290
     0
176
     1
 90
       50
176
     1
 90
       50
176
     1
 90
       50
176
     1
290
     0
176
     1
 90
       50
176
     1
 62
   256
176
     0
 40
1.0
176
     0
 90
        2
176
     1
  1
strokes_ogs.tif
176
     1
290
     0
176
     1
 40
1.0
176
     1
 40
1.0
176
     1
  0
VISUALSTYLE
  5
1D0
102
{ACAD_REACTORS
330
1C9
102
}
330
1C9
100
AcDbVisualStyle
  2
Hidden
 70
     6
177
     3
291
     0
 70
    58
 90
        1
176
     1
 90
        2
176
     1
 90
        2
176
     1
 90
        0
176
     1
 40
0.6
176
     1
 40
30.0
176
     1
 62
     7
420
 16777215
176
     1
 90
        2
176
     1
 90
        2
176
     1
 62
     7
176
     1
 62
   257
176
     1
 90
        2
176
     1
 90
        1
176
     1
 40
40.0
176
     1
 90
        0
176
     1
 62
   257
176
     1
 40
1.0
176
     1
 90
        1
176
     1
 90
        6
176
     1
 90
        2
176
     1
 62
     7
176
     1
 90
        3
176
     1
 90
        0
176
     1
 90
        0
176
     1
290
     0
176
     1
 90
        1
176
     1
 40
0.0
176
     1
 90
        0
176
     1
290
     0
176
     1
290
     1
176
     1
290
     1
176
     1
290
     0
176
     1
290
     0
176
     1
290
     0
176
     1
290
     0
176
     1
290
     0
176
     1
290
     0
176
     1
 90
       50
176
     1
 40
0.0
176
     1
 40
1.0
176
     1
 90
        0
176
     1
 62
   178
420
        0
176
     1
 90
       50
176
     1
 90
        3
176
     1
 62
     5
420
      255
176
     1
290
     0
176
     1
 90
       50
176
     1
 90
       50
176
     1
 90
       50
176
     1
290
     0
176
     1
 90
       50
176
     1
 62
   256
176
     0
 40
1.0
176
     0
 90
        2
176
     1
  1
strokes_ogs.tif
176
     1
290
     0
176
     1
 40
1.0
176
     1
 40
1.0
176
     1
  0
VISUALSTYLE
  5
1DA
102
{ACAD_REACTORS
330
1C9
102
}
330
1C9
100
AcDbVisualStyle
  2
JitterOff
 70
    20
177
     3
291
     1
 70
    58
 90
        2
176
     0
 90
        2
176
     0
 90
        0
176
     0
 90
        0
176
     0
 40
0.6
176
     0
 40
30.0
176
     0
 62
     7
420
 16777215
176
     0
 90
        1
176
     0
 90
        4
176
     0
 62
     7
176
     0
 62
   257
176
     0
 90
        1
176
     0
 90
        1
176
     0
 40
1.0
176
     0
 90
       10
176
     2
 62
     7
176
     0
 40
1.0
176
     0
 90
        1
176
     0
 90
        6
176
     0
 90
        2
176
     0
 62
     7
176
     0
 90
        5
176
     0
 90
        0
176
     0
 90
        0
176
     0
290
     0
176
     0
 90
        1
176
     0
 40
0.0
176
     0
 90
        0
176
     0
290
     0
176
     0
290
     1
176
     0
290
     1
176
     0
290
     0
176
     0
290
     0
176
     0
290
     0
176
     0
290
     0
176
     0
290
     0
176
     0
290
     0
176
     0
 90
       50
176
     0
 40
0.0
176
     0
 40
1.0
176
     0
 90
        0
176
     0
 62
   178
420
        0
176
     0
 90
       50
176
     0
 90
        3
176
     0
 62
     5
420
      255
176
     0
290
     0
176
     0
 90
       50
176
     0
 90
       50
176
     0
 90
       50
176
     0
290
     0
176
     0
 90
       50
176
     0
 62
   256
176
     0
 40
1.0
176
     0
 90
        2
176
     0
  1
strokes_ogs.tif
176
     0
290
     0
176
     0
 40
1.0
176
     0
 40
1.0
176
     0
  0
VISUALSTYLE
  5
1D7
102
{ACAD_REACTORS
330
1C9
102
}
330
1C9
100
AcDbVisualStyle
  2
Linepattern
 70
    14
177
     3
291
     1
 70
    58
 90
        2
176
     1
 90
        2
176
     1
 90
        0
176
     1
 90
        0
176
     1
 40
0.6
176
     1
 40
30.0
176
     1
 62
     7
420
 16777215
176
     1
 90
        1
176
     1
 90
        4
176
     1
 62
     7
176
     1
 62
   257
176
     1
 90
        7
176
     1
 90
        7
176
     1
 40
1.0
176
     1
 90
        8
176
     1
 62
     7
176
     1
 40
1.0
176
     1
 90
        1
176
     1
 90
        6
176
     1
 90
        2
176
     1
 62
     7
176
     1
 90
        5
176
     1
 90
        0
176
     1
 90
        0
176
     1
290
     0
176
     1
 90
        1
176
     1
 40
0.0
176
     1
 90
        0
176
     1
290
     0
176
     1
290
     1
176
     1
290
     1
176
     1
290
     0
176
     1
290
     0
176
     1
290
     0
176
     1
290
     0
176
     1
290
     0
176
     1
290
     0
176
     1
 90
       50
176
     1
 40
0.0
176
     1
 40
1.0
176
     1
 90
        0
176
     1
 62
   178
420
        0
176
     1
 90
       50
176
     1
 90
        3
176
     1
 62
     5
420
      255
176
     1
290
     0
176
     1
 90
       50
176
     1
 90
       50
176
     1
 90
       50
176
     1
290
     0
176
     1
 90
       50
176
     1
 62
   256
176
     0
 40
1.0
176
     0
 90
        2
176
     1
  1
strokes_ogs.tif
176
     1
290
     0
176
     1
 40
1.0
176
     1
 40
1.0
176
     1
  0
VISUALSTYLE
  5
1DB
102
{ACAD_REACTORS
330
1C9
102
}
330
1C9
100
AcDbVisualStyle
  2
OverhangOff
 70
    21
177
     3
291
     1
 70
    58
 90
        2
176
     0
 90
        2
176
     0
 90
        0
176
     0
 90
        0
176
     0
 40
0.6
176
     0
 40
30.0
176
     0
 62
     7
420
 16777215
176
     0
 90
        1
176
     0
 90
        4
176
     0
 62
     7
176
     0
 62
   257
176
     0
 90
        1
176
     0
 90
        1
176
     0
 40
1.0
176
     0
 90
        9
176
     2
 62
     7
176
     0
 40
1.0
176
     0
 90
        1
176
     0
 90
        6
176
     0
 90
        2
176
     0
 62
     7
176
     0
 90
        5
176
     0
 90
        0
176
     0
 90
        0
176
     0
290
     0
176
     0
 90
        1
176
     0
 40
0.0
176
     0
 90
        0
176
     0
290
     0
176
     0
290
     1
176
     0
290
     1
176
     0
290
     0
176
     0
290
     0
176
     0
290
     0
176
     0
290
     0
176
     0
290
     0
176
     0
290
     0
176
     0
 90
       50
176
     0
 40
0.0
176
     0
 40
1.0
176
     0
 90
        0
176
     0
 62
   178
420
        0
176
     0
 90
       50
176
     0
 90
        3
176
     0
 62
     5
420
      255
176
     0
290
     0
176
     0
 90
       50
176
     0
 90
       50
176
     0
 90
       50
176
     0
290
     0
176
     0
 90
       50
176
     0
 62
   256
176
     0
 40
1.0
176
     0
 90
        2
176
     0
  1
strokes_ogs.tif
176
     0
290
     0
176
     0
 40
1.0
176
     0
 40
1.0
176
     0
  0
VISUALSTYLE
  5
1D2
102
{ACAD_REACTORS
330
1C9
102
}
330
1C9
100
AcDbVisualStyle
  2
Realistic
 70
     8
177
     3
291
     0
 70
    58
 90
        2
176
     1
 90
        3
176
     1
 90
        0
176
     1
 90
        2
176
     1
 40
0.6
176
     1
 40
30.0
176
     1
 62
     7
420
 16777215
176
     1
 90
        0
176
     1
 90
        0
176
     1
 62
     7
176
     1
 62
   257
176
     1
 90
        1
176
     1
 90
        1
176
     1
 40
1.0
176
     1
 90
        8
176
     1
 62
   257
176
     1
 40
1.0
176
     1
 90
        1
176
     1
 90
        6
176
     1
 90
        2
176
     1
 62
     7
176
     1
 90
        3
176
     1
 90
        0
176
     1
 90
        0
176
     1
290
     0
176
     1
 90
       13
176
     1
 40
0.0
176
     1
 90
        0
176
     1
290
     0
176
     1
290
     1
176
     1
290
     1
176
     1
290
     0
176
     1
290
     0
176
     1
290
     0
176
     1
290
     0
176
     1
290
     0
176
     1
290
     0
176
     1
 90
       50
176
     1
 40
0.0
176
     1
 40
1.0
176
     1
 90
        0
176
     1
 62
   178
420
        0
176
     1
 90
       50
176
     1
 90
        3
176
     1
 62
     5
420
      255
176
     1
290
     0
176
     1
 90
       50
176
     1
 90
       50
176
     1
 90
       50
176
     1
290
     0
176
     1
 90
       50
176
     1
 62
   256
176
     0
 40
1.0
176
     0
 90
        2
176
     1
  1
strokes_ogs.tif
176
     1
290
     0
176
     1
 40
1.0
176
     1
 40
1.0
176
     1
  0
VISUALSTYLE
  5
1E1
102
{ACAD_REACTORS
330
1C9
102
}
330
1C9
100
AcDbVisualStyle
  2
Shaded
 70
    27
177
     3
291
     0
 70
    58
 90
        2
176
     1
 90
        2
176
     1
 90
        1
176
     1
 90
        2
176
     1
 40
0.6
176
     1
 40
30.0
176
     1
 62
     7
420
 16777215
176
     1
 90
        0
176
     1
 90
        4
176
     1
 62
     7
176
     1
 62
   257
176
     1
 90
        1
176
     1
 90
        1
176
     1
 40
1.0
176
     1
 90
        8
176
     1
 62
   257
176
     1
 40
1.0
176
     1
 90
        1
176
     1
 90
        6
176
     1
 90
        2
176
     1
 62
     8
420
  7895160
176
     1
 90
        3
176
     1
 90
        0
176
     1
 90
        0
176
     1
290
     0
176
     1
 90
        5
176
     1
 40
0.0
176
     1
 90
        0
176
     1
290
     0
176
     1
290
     1
176
     1
290
     1
176
     1
290
     0
176
     1
290
     0
176
     1
290
     0
176
     1
290
     0
176
     1
290
     0
176
     1
290
     0
176
     1
 90
       50
176
     1
 40
0.0
176
     1
 40
1.0
176
     1
 90
        0
176
     1
 62
   178
420
        0
176
     1
 90
       50
176
     1
 90
        3
176
     1
 62
     5
420
      255
176
     1
290
     0
176
     1
 90
       50
176
     1
 90
       50
176
     1
 90
       50
176
     1
290
     0
176
     1
 90
       50
176
     1
 62
   256
176
     0
 40
1.0
176
     0
 90
        2
176
     1
  1
strokes_ogs.tif
176
     1
290
     0
176
     1
 40
1.0
176
     1
 40
1.0
176
     1
  0
VISUALSTYLE
  5
1E0
102
{ACAD_REACTORS
330
1C9
102
}
330
1C9
100
AcDbVisualStyle
  2
Shaded with edges
 70
    26
177
     3
291
     0
 70
    58
 90
        2
176
     1
 90
        2
176
     1
 90
        1
176
     1
 90
        2
176
     1
 40
0.6
176
     1
 40
30.0
176
     1
 62
     7
420
 16777215
176
     1
 90
        1
176
     1
 90
       10
176
     1
 62
     7
176
     1
 62
   257
176
     1
 90
        2
176
     1
 90
        1
176
     1
 40
1.0
176
     1
 90
        8
176
     1
 62
   257
176
     1
 40
1.0
176
     1
 90
        1
176
     1
 90
        6
176
     1
 90
        2
176
     1
 62
     7
176
     1
 90
        3
176
     1
 90
        0
176
     1
 90
        0
176
     1
290
     0
176
     1
 90
        5
176
     1
 40
0.0
176
     1
 90
        0
176
     1
290
     0
176
     1
290
     1
176
     1
290
     1
176
     1
290
     0
176
     1
290
     0
176
     1
290
     0
176
     1
290
     0
176
     1
290
     0
176
     1
290
     0
176
     1
 90
       50
176
     1
 40
0.0
176
     1
 40
1.0
176
     1
 90
        0
176
     1
 62
   178
420
        0
176
     1
 90
       50
176
     1
 90
        3
176
     1
 62
     5
420
      255
176
     1
290
     0
176
     1
 90
       50
176
     1
 90
       50
176
     1
 90
       50
176
     1
290
     0
176
     1
 90
       50
176
     1
 62
   256
176
     0
 40
1.0
176
     0
 90
        2
176
     1
  1
strokes_ogs.tif
176
     1
290
     0
176
     1
 40
1.0
176
     1
 40
1.0
176
     1
  0
VISUALSTYLE
  5
1DD
102
{ACAD_REACTORS
330
1C9
102
}
330
1C9
100
AcDbVisualStyle
  2
Shades of Gray
 70
    23
177
     3
291
     0
 70
    58
 90
        2
176
     1
 90
        2
176
     1
 90
        3
176
     1
 90
        0
176
     1
 40
0.6
176
     1
 40
30.0
176
     1
 62
     7
420
 16777215
176
     1
 90
        2
176
     1
 90
        2
176
     1
 62
     7
176
     1
 62
     7
176
     1
 90
        1
176
     1
 90
        1
176
     1
 40
40.0
176
     1
 90
        8
176
     1
 62
     7
176
     1
 40
1.0
176
     1
 90
        1
176
     1
 90
        6
176
     1
 90
        2
176
     1
 62
     7
176
     1
 90
        3
176
     1
 90
        0
176
     1
 90
        0
176
     1
290
     0
176
     1
 90
        1
176
     1
 40
0.0
176
     1
 90
        0
176
     1
290
     0
176
     1
290
     1
176
     1
290
     1
176
     1
290
     0
176
     1
290
     0
176
     1
290
     0
176
     1
290
     0
176
     1
290
     0
176
     1
290
     0
176
     1
 90
       50
176
     1
 40
0.0
176
     1
 40
1.0
176
     1
 90
        0
176
     1
 62
   178
420
        0
176
     1
 90
       50
176
     1
 90
        3
176
     1
 62
     5
420
      255
176
     1
290
     0
176
     1
 90
       50
176
     1
 90
       50
176
     1
 90
       50
176
     1
290
     0
176
     1
 90
       50
176
     1
 62
   256
176
     0
 40
1.0
176
     0
 90
        2
176
     1
  1
strokes_ogs.tif
176
     1
290
     0
176
     1
 40
1.0
176
     1
 40
1.0
176
     1
  0
VISUALSTYLE
  5
1DE
102
{ACAD_REACTORS
330
1C9
102
}
330
1C9
100
AcDbVisualStyle
  2
Sketchy
 70
    24
177
     3
291
     0
 70
    58
 90
        1
176
     1
 90
        2
176
     1
 90
        2
176
     1
 90
        0
176
     1
 40
0.6
176
     1
 40
30.0
176
     1
 62
     7
420
 16777215
176
     1
 90
        2
176
     1
 90
        2
176
     1
 62
     7
176
     1
 62
     7
176
     1
 90
        1
176
     1
 90
        1
176
     1
 40
40.0
176
     1
 90
       11
176
     1
 62
     7
176
     1
 40
1.0
176
     1
 90
        1
176
     1
 90
        6
176
     1
 90
        2
176
     1
 62
     7
176
     1
 90
        6
176
     1
 90
        0
176
     1
 90
        0
176
     1
290
     0
176
     1
 90
        1
176
     1
 40
0.0
176
     1
 90
        0
176
     1
290
     0
176
     1
290
     1
176
     1
290
     1
176
     1
290
     0
176
     1
290
     0
176
     1
290
     0
176
     1
290
     0
176
     1
290
     0
176
     1
290
     0
176
     1
 90
       50
176
     1
 40
0.0
176
     1
 40
1.0
176
     1
 90
        0
176
     1
 62
   178
420
        0
176
     1
 90
       50
176
     1
 90
        3
176
     1
 62
     5
420
      255
176
     1
290
     0
176
     1
 90
       50
176
     1
 90
       50
176
     1
 90
       50
176
     1
290
     0
176
     1
 90
       50
176
     1
 62
   256
176
     0
 40
1.0
176
     0
 90
        2
176
     1
  1
strokes_ogs.tif
176
     1
290
     0
176
     1
 40
1.0
176
     1
 40
1.0
176
     1
  0
VISUALSTYLE
  5
1D6
102
{ACAD_REACTORS
330
1C9
102
}
330
1C9
100
AcDbVisualStyle
  2
Thicken
 70
    13
177
     3
291
     1
 70
    58
 90
        2
176
     1
 90
        2
176
     1
 90
        0
176
     1
 90
        0
176
     1
 40
0.6
176
     1
 40
30.0
176
     1
 62
     7
420
 16777215
176
     1
 90
        1
176
     1
 90
        4
176
     1
 62
     7
176
     1
 62
   257
176
     1
 90
        1
176
     1
 90
        1
176
     1
 40
1.0
176
     1
 90
       12
176
     1
 62
     7
176
     1
 40
1.0
176
     1
 90
        1
176
     1
 90
        6
176
     1
 90
        2
176
     1
 62
     7
176
     1
 90
        5
176
     1
 90
        0
176
     1
 90
        0
176
     1
290
     0
176
     1
 90
        1
176
     1
 40
0.0
176
     1
 90
        0
176
     1
290
     0
176
     1
290
     1
176
     1
290
     1
176
     1
290
     0
176
     1
290
     0
176
     1
290
     0
176
     1
290
     0
176
     1
290
     0
176
     1
290
     0
176
     1
 90
       50
176
     1
 40
0.0
176
     1
 40
1.0
176
     1
 90
        0
176
     1
 62
   178
420
        0
176
     1
 90
       50
176
     1
 90
        3
176
     1
 62
     5
420
      255
176
     1
290
     0
176
     1
 90
       50
176
     1
 90
       50
176
     1
 90
       50
176
     1
290
     0
176
     1
 90
       50
176
     1
 62
   256
176
     0
 40
1.0
176
     0
 90
        2
176
     1
  1
strokes_ogs.tif
176
     1
290
     0
176
     1
 40
1.0
176
     1
 40
1.0
176
     1
  0
VISUALSTYLE
  5
1CF
102
{ACAD_REACTORS
330
1C9
102
}
330
1C9
100
AcDbVisualStyle
  2
Wireframe
 70
     5
177
     3
291
     0
 70
    58
 90
        0
176
     1
 90
        2
176
     1
 90
        0
176
     1
 90
        0
176
     1
 40
0.6
176
     1
 40
30.0
176
     1
 62
     7
420
 16777215
176
     1
 90
        1
176
     1
 90
        4
176
     1
 62
     7
176
     1
 62
   257
176
     1
 90
        1
176
     1
 90
        1
176
     1
 40
1.0
176
     1
 90
        0
176
     1
 62
   257
176
     1
 40
1.0
176
     1
 90
        1
176
     1
 90
        6
176
     1
 90
        2
176
     1
 62
     7
176
     1
 90
        3
176
     1
 90
        0
176
     1
 90
        0
176
     1
290
     0
176
     1
 90
        1
176
     1
 40
0.0
176
     1
 90
        0
176
     1
290
     0
176
     1
290
     1
176
     1
290
     1
176
     1
290
     0
176
     1
290
     0
176
     1
290
     0
176
     1
290
     0
176
     1
290
     0
176
     1
290
     0
176
     1
 90
       50
176
     1
 40
0.0
176
     1
 40
1.0
176
     1
 90
        0
176
     1
 62
   178
420
        0
176
     1
 90
       50
176
     1
 90
        3
176
     1
 62
     5
420
      255
176
     1
290
     0
176
     1
 90
       50
176
     1
 90
       50
176
     1
 90
       50
176
     1
290
     0
176
     1
 90
       50
176
     1
 62
   256
176
     0
 40
1.0
176
     0
 90
        2
176
     1
  1
strokes_ogs.tif
176
     1
290
     0
176
     1
 40
1.0
176
     1
 40
1.0
176
     1
  0
VISUALSTYLE
  5
1DF
102
{ACAD_REACTORS
330
1C9
102
}
330
1C9
100
AcDbVisualStyle
  2
X-Ray
 70
    25
177
     3
291
     0
 70
    58
 90
        2
176
     1
 90
        2
176
     1
 90
        1
176
     1
 90
        1
176
     1
 40
0.5
176
     1
 40
30.0
176
     1
 62
     7
420
 16777215
176
     1
 90
        1
176
     1
 90
        0
176
     1
 62
     7
176
     1
 62
   257
176
     1
 90
        1
176
     1
 90
        1
176
     1
 40
1.0
176
     1
 90
        8
176
     1
 62
     7
176
     1
 40
1.0
176
     1
 90
        1
176
     1
 90
        6
176
     1
 90
        2
176
     1
 62
     7
176
     1
 90
        3
176
     1
 90
        0
176
     1
 90
        0
176
     1
290
     0
176
     1
 90
       13
176
     1
 40
0.0
176
     1
 90
        0
176
     1
290
     0
176
     1
290
     1
176
     1
290
     1
176
     1
290
     0
176
     1
290
     0
176
     1
290
     0
176
     1
290
     0
176
     1
290
     0
176
     1
290
     0
176
     1
 90
       50
176
     1
 40
0.0
176
     1
 40
1.0
176
     1
 90
        0
176
     1
 62
   178
420
        0
176
     1
 90
       50
176
     1
 90
        3
176
     1
 62
     5
420
      255
176
     1
290
     0
176
     1
 90
       50
176
     1
 90
       50
176
     1
 90
       50
176
     1
290
     0
176
     1
 90
       50
176
     1
 62
   256
176
     0
 40
1.0
176
     0
 90
        2
176
     1
  1
strokes_ogs.tif
176
     1
290
     0
176
     1
 40
1.0
176
     1
 40
1.0
176
     1
  0
DICTIONARYVAR
  5
26D
102
{ACAD_REACTORS
330
26C
102
}
330
26C
100
DictionaryVariables
280
     0
  1
1:1
  0
DICTIONARYVAR
  5
272
102
{ACAD_REACTORS
330
26C
102
}
330
26C
100
DictionaryVariables
280
     0
  1
Standard
  0
DICTIONARYVAR
  5
271
102
{ACAD_REACTORS
330
26C
102
}
330
26C
100
DictionaryVariables
280
     0
  1
Standard
  0
DICTIONARYVAR
  5
273
102
{ACAD_REACTORS
330
26C
102
}
330
26C
100
DictionaryVariables
280
     0
  1
0
  0
DICTIONARY
  5
27B
330
1E3
100
AcDbDictionary
280
     1
281
     1
  3
ACAD_ROUNDTRIP_2008_TABLESTYLE_CELLSTYLEMAP
360
27C
  0
CELLSTYLEMAP
  5
27C
102
{ACAD_REACTORS
330
27B
102
}
330
27B
100
AcDbCellStyleMap
 90
        3
300
CELLSTYLE
  1
TABLEFORMAT_BEGIN
 90
        5
170
     1
 91
        0
 92
    32768
 62
   257
 93
        1
300
CONTENTFORMAT
  1
CONTENTFORMAT_BEGIN
 90
        0
 91
        0
 92
        4
 93
        0
300

 40
0.0
140
1.0
 94
        5
 62
     0
340
11
144
0.25
309
CONTENTFORMAT_END
171
     1
301
MARGIN
  1
CELLMARGIN_BEGIN
 40
0.06
 40
0.06
 40
0.06
 40
0.06
 40
0.06
 40
0.06
309
CELLMARGIN_END
 94
        6
 95
        1
302
GRIDFORMAT
  1
GRIDFORMAT_BEGIN
 90
        0
 91
        1
 62
     0
 92
       -2
340
14
 93
        0
 40
0.045
309
GRIDFORMAT_END
 95
        2
302
GRIDFORMAT
  1
GRIDFORMAT_BEGIN
 90
        0
 91
        1
 62
     0
 92
       -2
340
14
 93
        0
 40
0.045
309
GRIDFORMAT_END
 95
        4
302
GRIDFORMAT
  1
GRIDFORMAT_BEGIN
 90
        0
 91
        1
 62
     0
 92
       -2
340
14
 93
        0
 40
0.045
309
GRIDFORMAT_END
 95
        8
302
GRIDFORMAT
  1
GRIDFORMAT_BEGIN
 90
        0
 91
        1
 62
     0
 92
       -2
340
14
 93
        0
 40
0.045
309
GRIDFORMAT_END
 95
       16
302
GRIDFORMAT
  1
GRIDFORMAT_BEGIN
 90
        0
 91
        1
 62
     0
 92
       -2
340
14
 93
        0
 40
0.045
309
GRIDFORMAT_END
 95
       32
302
GRIDFORMAT
  1
GRIDFORMAT_BEGIN
 90
        0
 91
        1
 62
     0
 92
       -2
340
14
 93
        0
 40
0.045
309
GRIDFORMAT_END
309
TABLEFORMAT_END
  1
CELLSTYLE_BEGIN
 90
        1
 91
        1
300
_TITLE
309
CELLSTYLE_END
300
CELLSTYLE
  1
TABLEFORMAT_BEGIN
 90
        5
170
     1
 91
        0
 92
        0
 62
   257
 93
        1
300
CONTENTFORMAT
  1
CONTENTFORMAT_BEGIN
 90
        0
 91
        0
 92
        4
 93
        0
300

 40
0.0
140
1.0
 94
        5
 62
     0
340
11
144
0.18
309
CONTENTFORMAT_END
171
     1
301
MARGIN
  1
CELLMARGIN_BEGIN
 40
0.06
 40
0.06
 40
0.06
 40
0.06
 40
0.06
 40
0.06
309
CELLMARGIN_END
 94
        6
 95
        1
302
GRIDFORMAT
  1
GRIDFORMAT_BEGIN
 90
        0
 91
        1
 62
     0
 92
       -2
340
14
 93
        0
 40
0.045
309
GRIDFORMAT_END
 95
        2
302
GRIDFORMAT
  1
GRIDFORMAT_BEGIN
 90
        0
 91
        1
 62
     0
 92
       -2
340
14
 93
        0
 40
0.045
309
GRIDFORMAT_END
 95
        4
302
GRIDFORMAT
  1
GRIDFORMAT_BEGIN
 90
        0
 91
        1
 62
     0
 92
       -2
340
14
 93
        0
 40
0.045
309
GRIDFORMAT_END
 95
        8
302
GRIDFORMAT
  1
GRIDFORMAT_BEGIN
 90
        0
 91
        1
 62
     0
 92
       -2
340
14
 93
        0
 40
0.045
309
GRIDFORMAT_END
 95
       16
302
GRIDFORMAT
  1
GRIDFORMAT_BEGIN
 90
        0
 91
        1
 62
     0
 92
       -2
340
14
 93
        0
 40
0.045
309
GRIDFORMAT_END
 95
       32
302
GRIDFORMAT
  1
GRIDFORMAT_BEGIN
 90
        0
 91
        1
 62
     0
 92
       -2
340
14
 93
        0
 40
0.045
309
GRIDFORMAT_END
309
TABLEFORMAT_END
  1
CELLSTYLE_BEGIN
 90
        2
 91
        1
300
_HEADER
309
CELLSTYLE_END
300
CELLSTYLE
  1
TABLEFORMAT_BEGIN
 90
        5
170
     1
 91
        0
 92
        0
 62
   257
 93
        1
300
CONTENTFORMAT
  1
CONTENTFORMAT_BEGIN
 90
        0
 91
        0
 92
        4
 93
        0
300

 40
0.0
140
1.0
 94
        2
 62
     0
340
11
144
0.18
309
CONTENTFORMAT_END
171
     1
301
MARGIN
  1
CELLMARGIN_BEGIN
 40
0.06
 40
0.06
 40
0.06
 40
0.06
 40
0.06
 40
0.06
309
CELLMARGIN_END
 94
        6
 95
        1
302
GRIDFORMAT
  1
GRIDFORMAT_BEGIN
 90
        0
 91
        1
 62
     0
 92
       -2
340
14
 93
        0
 40
0.045
309
GRIDFORMAT_END
 95
        2
302
GRIDFORMAT
  1
GRIDFORMAT_BEGIN
 90
        0
 91
        1
 62
     0
 92
       -2
340
14
 93
        0
 40
0.045
309
GRIDFORMAT_END
 95
        4
302
GRIDFORMAT
  1
GRIDFORMAT_BEGIN
 90
        0
 91
        1
 62
     0
 92
       -2
340
14
 93
        0
 40
0.045
309
GRIDFORMAT_END
 95
        8
302
GRIDFORMAT
  1
GRIDFORMAT_BEGIN
 90
        0
 91
        1
 62
     0
 92
       -2
340
14
 93
        0
 40
0.045
309
GRIDFORMAT_END
 95
       16
302
GRIDFORMAT
  1
GRIDFORMAT_BEGIN
 90
        0
 91
        1
 62
     0
 92
       -2
340
14
 93
        0
 40
0.045
309
GRIDFORMAT_END
 95
       32
302
GRIDFORMAT
  1
GRIDFORMAT_BEGIN
 90
        0
 91
        1
 62
     0
 92
       -2
340
14
 93
        0
 40
0.045
309
GRIDFORMAT_END
309
TABLEFORMAT_END
  1
CELLSTYLE_BEGIN
 90
        3
 91
        2
300
_DATA
309
CELLSTYLE_END
  0
ENDSEC
  0
EOF
