<?xml version="1.0" encoding="UTF-8" standalone="no"?>

<svg
	xmlns="http://www.w3.org/2000/svg" version="1.1"
	xmlns:freecad="http://www.freecadweb.org/wiki/index.php?title=Svg_Namespace"
	width="210mm"
	height="297mm"
	viewBox="0 0 210 297">
	<!-- Working space 20 10 200 287 -->
	<!-- Title block 20 227 200 287 -->
	<g>
		<rect
			id="drawing-border"
			style="fill:none;stroke:#000000;stroke-width:0.35;stroke-linecap:miter;stroke-miterlimit:4"
			width="180"
			height="277"
			x="20"
			y="10" />
			<!-- width-30, height-20 -->
		<g
			transform="translate(0,0)">
			<!-- A4 Portrait based for other formats width-210, height-297 -->
			<!--        page       rect   translation
			               w    h    rw   rh   tx   ty
			        A4-P  210  297  180  277    0    0
			        A3-L  420  297  390  277  210    0
			        A2-L  594  420  564  400  384  123
			        A1-L  841  594  811  574  631  297
			        A0-L 1189  841 1159  821  979  544
			-->
			<g
				id="titleblock-structure"
				style="fill:none;stroke:#000000;stroke-width:0.35;stroke-linecap:miter;stroke-miterlimit:4">
				<rect width="180" height="60" x="20" y="227" />
				<path d="m 20,239 h 180" />
				<path d="m 80,227 v 12" />
				<path d="m 140,239 v 48" />
				<path d="m 160,239 v 12" />
				<path d="m 180,239 v 12" />
				<path d="m 140,251 h 60" />
				<path d="m 140,275 h 60" />
				<path d="m 180,275 v 12" />
			</g>
			<g
				id="titleblock-text-non-editable"
				style="font-size:3px;text-anchor:start;fill:#000000;font-family:osifont"
				xml:space="preserve">
				<text x="21" y="230">Created by:</text>
				<text x="81" y="230">Title:</text>
				<text x="21" y="242">Supplementary information:</text>
				<text x="141" y="242">Size:</text>
				<text x="161" y="242">Sheet:</text>
				<text x="181" y="242">Scale:</text>
				<text x="141" y="254">Part number:</text>
				<text x="141" y="266">Drawing number:</text>
				<text x="141" y="278">Date:</text>
				<text x="181" y="278">Revision:</text>
			</g>
			<g
				id="titleblock-text-editable"
				style="font-size:5px;text-anchor:middle;fill:#000000;font-family:osifont"
				xml:space="preserve">
				<text freecad:editable="AUTHOR NAME" x="50" y="236"><tspan>Yorik van Havre</tspan></text>
				<text freecad:editable="DRAWING TITLE" x="140" y="236"><tspan>My chair</tspan></text>
				<text freecad:editable="SI-1" x="80" y="248"><tspan></tspan></text>
				<text freecad:editable="SI-2" x="80" y="255"><tspan></tspan></text>
				<text freecad:editable="FreeCAD DRAWING" x="80" y="262"><tspan>Entirely designed with FreeCAD!</tspan></text>
				<text freecad:editable="SI-4" x="80" y="269"><tspan></tspan></text>
				<text freecad:editable="SI-5" x="80" y="276"><tspan></tspan></text>
				<text freecad:editable="SI-6" x="80" y="283"><tspan></tspan></text>
				<text freecad:editable="FC-SI" x="150" y="248"><tspan>A4</tspan></text>
				<text freecad:editable="FC-SH" x="170" y="248"><tspan>1 / 1</tspan></text>
				<text freecad:editable="FC-SC" x="190" y="248"><tspan>1:10</tspan></text>
				<text freecad:editable="PN" x="170" y="260"><tspan>01</tspan></text>
				<text freecad:editable="DN" x="170" y="272"><tspan>01</tspan></text>
				<text freecad:editable="FC-DATE" x="160" y="284"><tspan>31.01.2016</tspan></text>
				<text freecad:editable="FC-REV" x="190" y="284"><tspan>REV A</tspan></text>
			</g>
			<!-- Set display:none to hide FreeCAD Logo -->
			<g
				style="display:inline"
				id="freecad-logo"
				transform="translate(128.5,276)"
				fill-rule="evenodd"
				stroke="#000"
				stroke-width="0.35"
				fill="none">
					<path d="m0.1524 0.15254v8.8549h1.9744v-3.4652h1.396v-1.3661h-1.396v-1.4745h3.4391v-2.5441l-5.4135-0.005z"/>
					<path d="m7.7927 3.4504-0.50715-0.176-0.48387-1.2366-0.76115 0.04-0.34718 1.2787-0.4859 0.23269-1.2119-0.53015-0.51188 0.56882 0.65892 1.1485-0.18006 0.50567-1.2366 0.48387 0.044064 0.76263 1.2787 0.34718 0.23269 0.4859-0.53421 1.2104 0.56882 0.51188 1.1485-0.65891 0.50973 0.18155 0.4798 1.2351 0.7667-0.04258 0.34311-1.2802 0.4859-0.23269 1.2145 0.5357 0.51188-0.56882-0.65891-1.1485 0.17748-0.51122 1.2351-0.4798-0.03851-0.76521-1.2802-0.34311-0.23269-0.4859 0.53163-1.216-0.56881-0.51184zm-0.5715 1.2244 0.23576 0.13679 0.20426 0.18519 0.16353 0.22101 0.11763 0.24572 0.06916 0.26489 0.01146 0.27146-0.03921 0.27139-0.08948 0.25764-0.14234 0.23834-0.17964 0.20167-0.22101 0.16353-0.24572 0.11763-0.26489 0.06916-0.27295 0.01553-0.2719-0.04-0.2576-0.089-0.2383-0.143-0.2002-0.183-0.165-0.217-0.1177-0.246-0.0676-0.269-0.0156-0.273 0.039206-0.2714 0.089484-0.25764 0.14085-0.23427 0.18113-0.20574 0.22101-0.16352 0.24572-0.11763 0.26895-0.06768 0.27147-0.01146 0.27139 0.03921 0.25764 0.08948z"/>
			</g>
		</g>
	</g>
<g id="View"
   transform="rotate(270,100,150) translate(100,150) scale(0.1,0.1)"
  >
<g   stroke="rgb(0, 0, 0)"
   stroke-width="5"
   stroke-linecap="butt"
   stroke-linejoin="miter"
   fill="none"
   transform="scale(1,-1)"
  >
<path id= "1" d=" M -560 9.99201e-15 L -560 58 " />
<path id= "2" d=" M -560 500 L -560 558 " />
</g>
<g   stroke="rgb(0, 0, 0)"
   stroke-width="5"
   stroke-linecap="butt"
   stroke-linejoin="miter"
   fill="none"
   transform="scale(1,-1)"
  >
<path d="M-515,-5.55112e-15 L-517.489,-5.52353e-15  L-519.954,-5.44105e-15  L-522.369,-5.30449e-15  L-524.711,-5.11522e-15  L-526.956,-4.87511e-15  L-529.083,-4.58655e-15  L-531.07,-4.2524e-15  L-532.897,-3.87599e-15  L-534.546,-3.46106e-15  L-536.001,-3.01174e-15  L-537.247,-2.53248e-15  L-538.272,-2.02805e-15  L-539.066,-1.50347e-15  L-539.62,-9.63941e-16 " /><path d="M-540,3.06259e-31 L-539.998,6.9202e-17  L-539.992,1.38393e-16  L-539.983,2.07563e-16  L-539.969,2.767e-16  L-539.951,3.45795e-16  L-539.93,4.14835e-16  L-539.905,4.83812e-16  L-539.876,5.52713e-16  L-539.843,6.21528e-16  L-539.806,6.90246e-16  L-539.765,7.58858e-16  L-539.721,8.27351e-16  L-539.672,8.95716e-16  L-539.62,9.63941e-16 " /><path id= "3" d=" M 0 0 L -515 0 " />
<path id= "4" d=" M -438.784 1.10984e-13 L 1.76215e-12 1.0246e-13 " />
<path d="M-487.022,1.02765e-13 L-485.947,1.03796e-13  L-484.387,1.04796e-13  L-482.359,1.05754e-13  L-479.887,1.06659e-13  L-476.997,1.07501e-13  L-473.723,1.0827e-13  L-470.1,1.08957e-13  L-466.17,1.09556e-13  L-461.978,1.1006e-13  L-457.568,1.10462e-13  L-452.993,1.10758e-13  L-448.301,1.10945e-13  L-443.547,1.11021e-13  L-438.784,1.10984e-13 " /><path id= "6" d=" M -559.316 1.17271e-14 L -487.022 1.02765e-13 " />
<path d="M-560,9.99201e-15 L-559.997,1.01166e-14  L-559.986,1.02411e-14  L-559.969,1.03656e-14  L-559.944,1.04901e-14  L-559.913,1.06144e-14  L-559.874,1.07387e-14  L-559.829,1.08629e-14  L-559.776,1.09869e-14  L-559.717,1.11108e-14  L-559.651,1.12345e-14  L-559.578,1.1358e-14  L-559.497,1.14812e-14  L-559.41,1.16043e-14  L-559.316,1.17271e-14 " /><path d="M-487.022,58 L-485.947,58  L-484.387,58  L-482.359,58  L-479.887,58  L-476.997,58  L-473.723,58  L-470.1,58  L-466.17,58  L-461.978,58  L-457.568,58  L-452.993,58  L-448.301,58  L-443.547,58  L-438.784,58 " /><path id= "9" d=" M -438.784 58 L 1.76215e-12 58 " />
<path id= "10" d=" M 2.27374e-13 1.0246e-13 L 2.26251e-13 58 " />
<path d="M-560,58 L-559.997,58  L-559.986,58  L-559.969,58  L-559.944,58  L-559.913,58  L-559.874,58  L-559.829,58  L-559.776,58  L-559.717,58  L-559.651,58  L-559.578,58  L-559.497,58  L-559.41,58  L-559.316,58 " /><path id= "12" d=" M -10 500 L -10 500 " />
<path id= "13" d=" M 0 558 L -438.784 558 " />
<path id= "14" d=" M -487.022 500 L -493.373 500 " />
<path id= "15" d=" M -513.07 500 L -515 500 " />
<path id= "16" d=" M -68 500 L -68 500 " />
<path d="M-515,558 L-517.489,558  L-519.954,558  L-522.369,558  L-524.711,558  L-526.956,558  L-529.083,558  L-531.07,558  L-532.897,558  L-534.546,558  L-536.001,558  L-537.247,558  L-538.272,558  L-539.066,558  L-539.62,558 " /><path d="M-540,558 L-539.998,558  L-539.992,558  L-539.983,558  L-539.969,558  L-539.951,558  L-539.93,558  L-539.905,558  L-539.876,558  L-539.843,558  L-539.806,558  L-539.765,558  L-539.721,558  L-539.672,558  L-539.62,558 " /><path d="M-523.141,500 L-524.913,500  L-526.628,500  L-528.276,500  L-529.847,500  L-531.332,500  L-532.723,500  L-534.011,500  L-535.189,500  L-536.251,500  L-537.19,500  L-538.001,500  L-538.678,500  L-539.219,500  L-539.62,500 " /><path d="M-560,500 L-559.997,500  L-559.986,500  L-559.969,500  L-559.944,500  L-559.913,500  L-559.874,500  L-559.829,500  L-559.776,500  L-559.717,500  L-559.651,500  L-559.578,500  L-559.497,500  L-559.41,500  L-559.316,500 " /><path d="M-540,558 L-542.115,558  L-544.139,558  L-546.067,558  L-547.891,558  L-549.607,558  L-551.207,558  L-552.686,558  L-554.041,558  L-555.266,558  L-556.357,558  L-557.31,558  L-558.123,558  L-558.792,558  L-559.316,558 " /><path d="M-560,558 L-559.997,558  L-559.986,558  L-559.969,558  L-559.944,558  L-559.913,558  L-559.874,558  L-559.829,558  L-559.776,558  L-559.717,558  L-559.651,558  L-559.578,558  L-559.497,558  L-559.41,558  L-559.316,558 " /><path id= "23" d=" M -559.316 58 L -550 58 " />
<path id= "24" d=" M -523.141 500 L -523.141 500 " />
<path id= "25" d=" M -513.07 58 L -487.022 58 " />
<path id= "26" d=" M -513.07 500 L -513.07 500 " />
<path id= "27" d=" M -493.373 500 L -513.07 500 " />
<path id= "28" d=" M -493.373 500 L -493.373 500 " />
<path d="M-487.022,500 L-485.947,500  L-484.387,500  L-482.359,500  L-479.887,500  L-476.997,500  L-473.723,500  L-470.1,500  L-466.17,500  L-461.978,500  L-457.568,500  L-452.993,500  L-448.301,500  L-443.547,500  L-438.784,500 " /><path d="M-487.022,558 L-485.947,558  L-484.387,558  L-482.359,558  L-479.887,558  L-476.997,558  L-473.723,558  L-470.1,558  L-466.17,558  L-461.978,558  L-457.568,558  L-452.993,558  L-448.301,558  L-443.547,558  L-438.784,558 " /><path id= "31" d=" M -438.784 500 L 1.76215e-12 500 " />
<path id= "32" d=" M -438.784 558 L 1.76215e-12 558 " />
<path id= "33" d=" M 2.27374e-13 500 L 2.26251e-13 558 " />
<path id= "34" d=" M -513.07 500 L -487.022 500 " />
<path id= "35" d=" M -559.316 558 L -487.022 558 " />
<path id= "36" d=" M -559.316 500 L -523.141 500 " />
<path id= "37" d=" M -550 58 L -550 500 " />
<path id= "38" d=" M 49.0885 58 L 49.0885 500 " />
<path id= "39" d=" M -550 500 L -547.385 500 " />
<path id= "40" d=" M -547.385 500 L -547.385 58 " />
<path id= "41" d=" M -547.385 58 L -550 58 " />
<path id= "42" d=" M -547.385 500 L -112.615 500 " />
<path id= "43" d=" M -547.385 58 L -487.022 58 " />
<path d="M-112.615,500 L-109.439,500  L-106.27,500  L-103.142,500  L-100.092,500  L-97.1522,500  L-94.3569,500  L-91.7371,500  L-89.3222,500  L-87.1393,500  L-85.2128,500  L-83.5644,500  L-82.2126,500  L-81.1725,500  L-80.4558,500 " /><path id= "45" d=" M -80.4558 500 L 19.5442 500 " />
<path id= "46" d=" M -80.4558 58 L 19.5442 58 " />
<path id= "47" d=" M 19.5442 500 L 19.5442 58 " />
<path id= "48" d=" M 49.0885 500 L 19.5442 500 " />
<path id= "49" d=" M 19.5442 58 L 49.0885 58 " />
</g>
</g>



<g id="View001"
   transform="rotate(90,100,130) translate(100,130) scale(0.1,0.1)"
  >
<g   stroke="rgb(0, 0, 0)"
   stroke-width="5"
   stroke-linecap="butt"
   stroke-linejoin="miter"
   fill="none"
   transform="scale(1,-1)"
  >
<path id= "1" d=" M -500 -1.11022e-13 L -500 -58 " />
<path id= "2" d=" M -500 -500 L -500 -558 " />
<path id= "3" d=" M -333.291 -500 L -333.291 -58 " />
</g>
<g   stroke="rgb(0, 0, 0)"
   stroke-width="5"
   stroke-linecap="butt"
   stroke-linejoin="miter"
   fill="none"
   transform="scale(1,-1)"
  >
<path d="M-462.814,-1.02765e-13 L-467.188,-1.03737e-13  L-471.44,-1.04681e-13  L-475.529,-1.05589e-13  L-479.415,-1.06451e-13  L-483.057,-1.0726e-13  L-486.421,-1.08007e-13  L-489.472,-1.08685e-13  L-492.181,-1.09286e-13  L-494.52,-1.09805e-13  L-496.466,-1.10238e-13  L-498.001,-1.10578e-13  L-499.108,-1.10824e-13  L-499.776,-1.10973e-13  L-500,-1.11022e-13 " /><path id= "2" d=" M -52.8142 -1.17271e-14 L -462.814 -1.02765e-13 " />
<path d="M0,-1.00028e-27 L-0.349236,-7.75459e-17  L-1.39152,-3.0898e-16  L-3.11068,-6.9071e-16  L-5.48003,-1.21681e-15  L-8.46279,-1.87912e-15  L-12.0127,-2.66735e-15  L-16.0746,-3.56927e-15  L-20.5854,-4.57088e-15  L-25.4752,-5.65664e-15  L-30.6681,-6.80969e-15  L-36.0834,-8.01213e-15  L-41.6371,-9.2453e-15  L-47.2431,-1.04901e-14  L-52.8142,-1.17271e-14 " /><path d="M-462.814,-58 L-467.188,-58  L-471.44,-58  L-475.529,-58  L-479.415,-58  L-483.057,-58  L-486.421,-58  L-489.472,-58  L-492.181,-58  L-494.52,-58  L-496.466,-58  L-498.001,-58  L-499.108,-58  L-499.776,-58  L-500,-58 " /><path d="M0,-58 L-0.349236,-58  L-1.39152,-58  L-3.11068,-58  L-5.48003,-58  L-8.46279,-58  L-12.0127,-58  L-16.0746,-58  L-20.5854,-58  L-25.4752,-58  L-30.6681,-58  L-36.0834,-58  L-41.6371,-58  L-47.2431,-58  L-52.8142,-58 " /><path id= "6" d=" M 0 -4.53682e-55 L 0 -58 " />
<path id= "7" d=" M -20 -58 L -20 -500 " />
<path id= "8" d=" M 0 -58 L 9.81437e-14 -500 " />
<path id= "9" d=" M 0 -500 L 0 -558 " />
<path d="M0,-500 L-0.349236,-500  L-1.39152,-500  L-3.11068,-500  L-5.48003,-500  L-8.46279,-500  L-12.0127,-500  L-16.0746,-500  L-20.5854,-500  L-25.4752,-500  L-30.6681,-500  L-36.0834,-500  L-41.6371,-500  L-47.2431,-500  L-52.8142,-500 " /><path d="M0,-558 L-0.349236,-558  L-1.39152,-558  L-3.11068,-558  L-5.48003,-558  L-8.46279,-558  L-12.0127,-558  L-16.0746,-558  L-20.5854,-558  L-25.4752,-558  L-30.6681,-558  L-36.0834,-558  L-41.6371,-558  L-47.2431,-558  L-52.8142,-558 " /><path id= "12" d=" M -52.8142 -58 L -257.974 -58 " />
<path id= "13" d=" M -254.501 -58 L -254.501 -500 " />
<path id= "14" d=" M -257.974 -58 L -257.974 -500 " />
<path id= "15" d=" M -315.093 -58 L -371.556 -58 " />
<path id= "16" d=" M -401.442 -58 L -462.814 -58 " />
<path id= "17" d=" M -315.093 -58 L -315.093 -500 " />
<path d="M-462.814,-500 L-467.188,-500  L-471.44,-500  L-475.529,-500  L-479.415,-500  L-483.057,-500  L-486.421,-500  L-489.472,-500  L-492.181,-500  L-494.52,-500  L-496.466,-500  L-498.001,-500  L-499.108,-500  L-499.776,-500  L-500,-500 " /><path d="M-462.814,-558 L-467.188,-558  L-471.44,-558  L-475.529,-558  L-479.415,-558  L-483.057,-558  L-486.421,-558  L-489.472,-558  L-492.181,-558  L-494.52,-558  L-496.466,-558  L-498.001,-558  L-499.108,-558  L-499.776,-558  L-500,-558 " /><path id= "20" d=" M -459.341 -500 L -441.516 -500 " />
<path id= "21" d=" M -315.093 -500 L -462.814 -500 " />
<path id= "22" d=" M -52.8142 -558 L -462.814 -558 " />
<path id= "23" d=" M -52.8142 -500 L -257.974 -500 " />
<path id= "24" d=" M -371.556 -58 L -371.556 -500 " />
<path id= "25" d=" M -371.556 -500 L -333.519 -500 " />
<path d="M-333.519,-500 L-333.488,-500  L-333.458,-500  L-333.432,-500  L-333.407,-500  L-333.385,-500  L-333.365,-500  L-333.348,-500  L-333.333,-500  L-333.32,-500  L-333.309,-500  L-333.301,-500  L-333.295,-500  L-333.292,-500  L-333.291,-500 " /><path id= "27" d=" M -371.556 -500 L -401.442 -500 " />
<path id= "28" d=" M -401.442 -500 L -401.442 -58 " />
<path id= "29" d=" M -401.442 -58 L -371.556 -58 " />
<path d="M-363.405,-500 L-363.389,-500  L-363.375,-500  L-363.361,-500  L-363.349,-500  L-363.338,-500  L-363.328,-500  L-363.319,-500  L-363.312,-500  L-363.305,-500  L-363.3,-500  L-363.296,-500  L-363.293,-500  L-363.291,-500  L-363.291,-500 " /><path d="M-363.405,-500 L-363.565,-500  L-363.794,-500  L-364.091,-500  L-364.456,-500  L-364.887,-500  L-365.384,-500  L-365.946,-500  L-366.571,-500  L-367.257,-500  L-368.004,-500  L-368.809,-500  L-369.671,-500  L-370.588,-500  L-371.556,-500 " /><path id= "32" d=" M -401.442 -500 L -955.209 -500 " />
<path id= "33" d=" M -500 -58 L -955.209 -58 " />
<path id= "34" d=" M -955.209 -500 L -955.209 -58 " />
</g>
</g>



<g id="View002"
   transform="rotate(90,180,130) translate(180,130) scale(0.1,0.1)"
  >
<g   stroke="rgb(0, 0, 0)"
   stroke-width="5"
   stroke-linecap="butt"
   stroke-linejoin="miter"
   fill="none"
   transform="scale(1,-1)"
  >
<path d="M-20 -515 A25 25 0 0 0 -49.3412 -539.62" /><path id= "2" d=" M -20 0 L -20 -515 " />
<path id= "3" d=" M -49.3412 -539.62 L -459.341 -467.326 " />
<path d="M-459.341 -467.326 A25 25 0 0 0 -479.905 -440.527" /><path id= "5" d=" M -479.905 -440.527 L -441.516 -1.74314 " />
<path id= "6" d=" M -441.516 -1.74314 L -461.44 1.27298e-12 " />
<path id= "7" d=" M -499.829 -438.784 L -461.44 1.76215e-12 " />
<path d="M-462.814 -487.022 A45 45 0 0 0 -499.829 -438.784" /><path id= "9" d=" M -52.8142 -559.316 L -462.814 -487.022 " />
<path d="M0 -515 A45 45 0 0 0 -52.8142 -559.316" /><path id= "11" d=" M 0 0 L 0 -515 " />
<path id= "12" d=" M -20 0 L 0 0 " />
<path d="M-20 -515 A25 25 0 0 0 -49.3412 -539.62" /><path id= "14" d=" M -371.556 -550 L -367.517 -503.826 " />
<path id= "15" d=" M -365.767 -483.826 L -333.519 -115.229 " />
<path d="M-333.519 -115.229 A60 60 0 0 1 -382.872 -50.9115" /><path id= "17" d=" M -382.872 -50.9115 L -444.862 -39.9811 " />
<path id= "18" d=" M -464.633 -36.4948 L -950 49.0885 " />
<path id= "19" d=" M -401.442 -547.385 L -371.556 -550 " />
<path id= "20" d=" M -401.442 -547.385 L -397.174 -498.596 " />
<path id= "21" d=" M -395.424 -478.596 L -363.405 -112.615 " />
<path d="M-363.405 -112.615 A30 30 0 0 1 -388.081 -80.4558" /><path id= "23" d=" M -388.081 -80.4558 L -447.486 -69.9811 " />
<path id= "24" d=" M -467.258 -66.4948 L -955.209 19.5442 " />
<path id= "25" d=" M -955.209 19.5442 L -950 49.0885 " />
</g>
</g>



<g> 
  <line x1="42.200000" y1="129.451997" x2="32.359487" y2="129.451997" style="stroke:rgb(0,0,255);stroke-width:0.50" />
<line x1="42.200000" y1="80.022400" x2="32.359487" y2="80.022400" style="stroke:rgb(0,0,255);stroke-width:0.50" />
<line x1="33.359487" y1="129.451997" x2="33.359487" y2="80.022400" style="stroke:rgb(0,0,255);stroke-width:0.50" /> 
  <polygon points="33.359487,80.022400 32.359487,83.022400 33.359487,84.022400 34.359487,83.022400" style="fill:rgb(0,0,255);stroke:rgb(0,0,255);stroke-width:0" /><polygon points="33.359487,129.451997 34.359487,126.451997 33.359487,125.451997 32.359487,126.451997" style="fill:rgb(0,0,255);stroke:rgb(0,0,255);stroke-width:0" /> 
  <text x="31.359487" y="104.737199" font-family="inherit" font-size="3.6" fill="rgb(0,0,255)" text-anchor="middle" transform="rotate(-90.000000 31.359487,104.737199)" >0.494</text> </g>


<g> 
  <line x1="48.000000" y1="80.022400" x2="32.310139" y2="80.022400" style="stroke:rgb(0,0,255);stroke-width:0.50" />
<line x1="48.000000" y1="34.479100" x2="32.310139" y2="34.479100" style="stroke:rgb(0,0,255);stroke-width:0.50" />
<line x1="33.310139" y1="80.022400" x2="33.310139" y2="34.479100" style="stroke:rgb(0,0,255);stroke-width:0.50" /> 
  <polygon points="33.310139,34.479100 32.310139,37.479100 33.310139,38.479100 34.310139,37.479100" style="fill:rgb(0,0,255);stroke:rgb(0,0,255);stroke-width:0" /><polygon points="33.310139,80.022400 34.310139,77.022400 33.310139,76.022400 32.310139,77.022400" style="fill:rgb(0,0,255);stroke:rgb(0,0,255);stroke-width:0" /> 
  <text x="31.310139" y="57.250750" font-family="inherit" font-size="3.6" fill="rgb(0,0,255)" text-anchor="middle" transform="rotate(-90.000000 31.310139,57.250750)" >0.455</text> </g>


<g> 
  <line x1="42.200000" y1="205.941000" x2="31.435048" y2="205.941000" style="stroke:rgb(0,0,255);stroke-width:0.50" />
<line x1="42.200000" y1="150.000000" x2="31.435048" y2="150.000000" style="stroke:rgb(0,0,255);stroke-width:0.50" />
<line x1="32.435048" y1="205.941000" x2="32.435048" y2="150.000000" style="stroke:rgb(0,0,255);stroke-width:0.50" /> 
  <polygon points="32.435048,150.000000 31.435048,153.000000 32.435048,154.000000 33.435048,153.000000" style="fill:rgb(0,0,255);stroke:rgb(0,0,255);stroke-width:0" /><polygon points="32.435048,205.941000 33.435048,202.941000 32.435048,201.941000 31.435048,202.941000" style="fill:rgb(0,0,255);stroke:rgb(0,0,255);stroke-width:0" /> 
  <text x="30.435048" y="177.970500" font-family="inherit" font-size="3.6" fill="rgb(0,0,255)" text-anchor="middle" transform="rotate(-90.000000 30.435048,177.970500)" >0.559</text> </g>


<g> 
  <line x1="50.000000" y1="207.931600" x2="50.000000" y2="221.288032" style="stroke:rgb(0,0,255);stroke-width:0.50" />
<line x1="94.200000" y1="207.931600" x2="94.200000" y2="221.288032" style="stroke:rgb(0,0,255);stroke-width:0.50" />
<line x1="50.000000" y1="220.288032" x2="94.200000" y2="220.288032" style="stroke:rgb(0,0,255);stroke-width:0.50" /> 
  <polygon points="94.200000,220.288032 91.200000,219.288032 90.200000,220.288032 91.200000,221.288032" style="fill:rgb(0,0,255);stroke:rgb(0,0,255);stroke-width:0" /><polygon points="50.000000,220.288032 53.000000,221.288032 54.000000,220.288032 53.000000,219.288032" style="fill:rgb(0,0,255);stroke:rgb(0,0,255);stroke-width:0" /> 
  <text x="72.100000" y="218.288032" font-family="inherit" font-size="3.6" fill="rgb(0,0,255)" text-anchor="middle" transform="rotate(0.000000 72.100000,218.288032)" >0.442</text> </g>


<g> 
  <line x1="44.203241" y1="207.940997" x2="44.224816" y2="221.253106" style="stroke:rgb(0,0,255);stroke-width:0.50" />
<line x1="50.003241" y1="207.931597" x2="50.024816" y2="221.243706" style="stroke:rgb(0,0,255);stroke-width:0.50" />
<line x1="44.223195" y1="220.253107" x2="50.023195" y2="220.243707" style="stroke:rgb(0,0,255);stroke-width:0.50" /> 
  <polygon points="50.023195,220.243707 53.024812,221.238843 54.023190,220.237224 53.021571,219.238846" style="fill:rgb(0,0,255);stroke:rgb(0,0,255);stroke-width:0" /><polygon points="44.223195,220.253107 41.221579,219.257970 40.223201,220.259590 41.224820,221.257968" style="fill:rgb(0,0,255);stroke:rgb(0,0,255);stroke-width:0" /> 
  <text x="33.786508" y="218.736356" font-family="inherit" font-size="3.6" fill="rgb(0,0,255)" text-anchor="inherit" transform="rotate(-0.092859 33.786508,218.736356)" >0.058</text> </g>


<g> 
  <line x1="94.200000" y1="207.931600" x2="94.200000" y2="221.335574" style="stroke:rgb(0,0,255);stroke-width:0.50" />
<line x1="100.000000" y1="207.941000" x2="100.000000" y2="221.335574" style="stroke:rgb(0,0,255);stroke-width:0.50" />
<line x1="94.200000" y1="220.335574" x2="100.000000" y2="220.335574" style="stroke:rgb(0,0,255);stroke-width:0.50" /> 
  <polygon points="100.000000,220.335574 103.000000,221.335574 104.000000,220.335574 103.000000,219.335574" style="fill:rgb(0,0,255);stroke:rgb(0,0,255);stroke-width:0" /><polygon points="94.200000,220.335574 91.200000,219.335574 90.200000,220.335574 91.200000,221.335574" style="fill:rgb(0,0,255);stroke:rgb(0,0,255);stroke-width:0" /> 
  <text x="101.514650" y="218.825630" font-family="inherit" font-size="3.6" fill="rgb(0,0,255)" text-anchor="inherit" transform="rotate(0.000000 101.514650,218.825630)" >0.058</text> </g>


<g> 
  <line x1="126.500000" y1="130.000000" x2="114.807541" y2="130.000000" style="stroke:rgb(0,0,255);stroke-width:0.50" />
<line x1="134.121600" y1="80.017100" x2="114.807541" y2="80.017100" style="stroke:rgb(0,0,255);stroke-width:0.50" />
<line x1="115.807541" y1="130.000000" x2="115.807541" y2="80.017100" style="stroke:rgb(0,0,255);stroke-width:0.50" /> 
  <polygon points="115.807541,80.017100 114.807541,83.017100 115.807541,84.017100 116.807541,83.017100" style="fill:rgb(0,0,255);stroke:rgb(0,0,255);stroke-width:0" /><polygon points="115.807541,130.000000 116.807541,127.000000 115.807541,126.000000 114.807541,127.000000" style="fill:rgb(0,0,255);stroke:rgb(0,0,255);stroke-width:0" /> 
  <text x="113.807541" y="105.008550" font-family="inherit" font-size="3.6" fill="rgb(0,0,255)" text-anchor="middle" transform="rotate(-90.000000 113.807541,105.008550)" >0.5</text> </g>


<g> 
  <line x1="128.500000" y1="132.000000" x2="128.500000" y2="143.300774" style="stroke:rgb(0,0,255);stroke-width:0.50" />
<line x1="180.000000" y1="132.000000" x2="180.000000" y2="143.300774" style="stroke:rgb(0,0,255);stroke-width:0.50" />
<line x1="128.500000" y1="142.300774" x2="180.000000" y2="142.300774" style="stroke:rgb(0,0,255);stroke-width:0.50" /> 
  <polygon points="180.000000,142.300774 177.000000,141.300774 176.000000,142.300774 177.000000,143.300774" style="fill:rgb(0,0,255);stroke:rgb(0,0,255);stroke-width:0" /><polygon points="128.500000,142.300774 131.500000,143.300774 132.500000,142.300774 131.500000,141.300774" style="fill:rgb(0,0,255);stroke:rgb(0,0,255);stroke-width:0" /> 
  <text x="154.250000" y="140.300774" font-family="inherit" font-size="3.6" fill="rgb(0,0,255)" text-anchor="middle" transform="rotate(0.000000 154.250000,140.300774)" >0.515</text> </g>


<g> 
  <line x1="182.000000" y1="130.000000" x2="195.298910" y2="130.000000" style="stroke:rgb(0,0,255);stroke-width:0.50" />
<line x1="183.954420" y1="34.479100" x2="195.298910" y2="34.479100" style="stroke:rgb(0,0,255);stroke-width:0.50" />
<line x1="194.298910" y1="130.000000" x2="194.298910" y2="34.479100" style="stroke:rgb(0,0,255);stroke-width:0.50" /> 
  <polygon points="194.298910,34.479100 193.298910,37.479100 194.298910,38.479100 195.298910,37.479100" style="fill:rgb(0,0,255);stroke:rgb(0,0,255);stroke-width:0" /><polygon points="194.298910,130.000000 195.298910,127.000000 194.298910,126.000000 193.298910,127.000000" style="fill:rgb(0,0,255);stroke:rgb(0,0,255);stroke-width:0" /> 
  <text x="192.298910" y="82.239550" font-family="inherit" font-size="3.6" fill="rgb(0,0,255)" text-anchor="middle" transform="rotate(-90.000000 192.298910,82.239550)" >0.955</text> </g>


<g> 
  <line x1="170.738500" y1="93.659500" x2="188.085355" y2="93.659500" style="stroke:rgb(0,0,255);stroke-width:0.50" />
<line x1="182.000000" y1="130.000000" x2="188.085355" y2="130.000000" style="stroke:rgb(0,0,255);stroke-width:0.50" />
<line x1="187.085355" y1="93.659500" x2="187.085355" y2="130.000000" style="stroke:rgb(0,0,255);stroke-width:0.50" /> 
  <polygon points="187.085355,130.000000 188.085355,127.000000 187.085355,126.000000 186.085355,127.000000" style="fill:rgb(0,0,255);stroke:rgb(0,0,255);stroke-width:0" /><polygon points="187.085355,93.659500 186.085355,96.659500 187.085355,97.659500 188.085355,96.659500" style="fill:rgb(0,0,255);stroke:rgb(0,0,255);stroke-width:0" /> 
  <text x="185.085355" y="111.829750" font-family="inherit" font-size="3.6" fill="rgb(0,0,255)" text-anchor="middle" transform="rotate(-90.000000 185.085355,111.829750)" >0.363</text> </g>


<g> <line x1="74.7303499178" y1="180.286969177" x2="74.7303499178" y2="180.286969177" style="stroke:rgb(0,0,0);stroke-width:0.01" /> </g> 


<g> <line x1="97.1494548931" y1="175.927698765" x2="97.1494548931" y2="175.927698765" style="stroke:rgb(0,0,0);stroke-width:0.01" /> </g> 


<g   >
<line x1="104.933866" y1="200.215062" x2="74.730350" y2="180.286969" style="stroke:rgb(0,0,255);stroke-width:0.50" />
<polygon points="74.730350,180.286969 76.683693,182.773825 78.069104,182.489858 77.785138,181.104448" style="fill:rgb(0,0,255);stroke:rgb(0,0,255);stroke-width:0" />
<line x1="104.933866" y1="200.215062" x2="125.796089" y2="200.215062" style="stroke:rgb(0,0,255);stroke-width:0.50" />
</g> 


<g   >
<line x1="110.538643" y1="184.023487" x2="97.149455" y2="175.927699" style="stroke:rgb(0,0,255);stroke-width:0.50" />
<polygon points="97.149455,175.927699 99.199232,178.335689 100.572383,177.997376 100.234070,176.624225" style="fill:rgb(0,0,255);stroke:rgb(0,0,255);stroke-width:0" />
<line x1="110.538643" y1="184.023487" x2="124.550583" y2="184.023487" style="stroke:rgb(0,0,255);stroke-width:0.50" />
</g> 


<g> <text x="126.366946" y="185.268993" font-family="inherit" font-size="5" fill="rgb(0,0,255)" text-anchor="inherit" transform="rotate(0.000000 126.366946,185.268993)" >20x58mm plywood</text> </g>


<g> <text x="127.404867" y="201.616257" font-family="inherit" font-size="5" fill="rgb(0,0,255)" text-anchor="inherit" transform="rotate(0.000000 127.404867,201.616257)" >30mm plywood sheet</text> </g>


</svg>

