<?xml version="1.0" encoding="UTF-8" standalone="no"?>

<svg
	xmlns="http://www.w3.org/2000/svg" version="1.1"
	xmlns:freecad="http://www.freecadweb.org/wiki/index.php?title=Svg_Namespace"
	width="210mm"
	height="297mm"
	viewBox="0 0 210 297">
	<!-- Working space 20 10 200 287 -->
	<!-- Title block 20 227 200 287 -->
	<g>
		<rect
			id="drawing-border"
			style="fill:none;stroke:#000000;stroke-width:0.35;stroke-linecap:miter;stroke-miterlimit:4"
			width="180"
			height="277"
			x="20"
			y="10" />
			<!-- width-30, height-20 -->
		<g
			transform="translate(0,0)">
			<!-- A4 Portrait based for other formats width-210, height-297 -->
			<!--        page       rect   translation
			               w    h    rw   rh   tx   ty
			        A4-P  210  297  180  277    0    0
			        A3-L  420  297  390  277  210    0
			        A2-L  594  420  564  400  384  123
			        A1-L  841  594  811  574  631  297
			        A0-L 1189  841 1159  821  979  544
			-->
			<g
				id="titleblock-structure"
				style="fill:none;stroke:#000000;stroke-width:0.35;stroke-linecap:miter;stroke-miterlimit:4">
				<rect width="180" height="60" x="20" y="227" />
				<path d="m 20,239 h 180" />
				<path d="m 80,227 v 12" />
				<path d="m 140,239 v 48" />
				<path d="m 160,239 v 12" />
				<path d="m 180,239 v 12" />
				<path d="m 140,251 h 60" />
				<path d="m 140,275 h 60" />
				<path d="m 180,275 v 12" />
			</g>
			<g
				id="titleblock-text-non-editable"
				style="font-size:3px;text-anchor:start;fill:#000000;font-family:osifont"
				xml:space="preserve">
				<text x="21" y="230">Created by:</text>
				<text x="81" y="230">Title:</text>
				<text x="21" y="242">Supplementary information:</text>
				<text x="141" y="242">Size:</text>
				<text x="161" y="242">Sheet:</text>
				<text x="181" y="242">Scale:</text>
				<text x="141" y="254">Part number:</text>
				<text x="141" y="266">Drawing number:</text>
				<text x="141" y="278">Date:</text>
				<text x="181" y="278">Revision:</text>
			</g>
			<g
				id="titleblock-text-editable"
				style="font-size:5px;text-anchor:middle;fill:#000000;font-family:osifont"
				xml:space="preserve">
				<text freecad:editable="AUTHOR NAME" x="50" y="236"><tspan>Yorik van Havre</tspan></text>
				<text freecad:editable="DRAWING TITLE" x="140" y="236"><tspan>How to build a LEGO wall</tspan></text>
				<text freecad:editable="SI-1" x="80" y="248"><tspan></tspan></text>
				<text freecad:editable="SI-2" x="80" y="255"><tspan></tspan></text>
				<text freecad:editable="FreeCAD DRAWING" x="80" y="262"><tspan></tspan></text>
				<text freecad:editable="SI-4" x="80" y="269"><tspan></tspan></text>
				<text freecad:editable="SI-5" x="80" y="276"><tspan></tspan></text>
				<text freecad:editable="SI-6" x="80" y="283"><tspan></tspan></text>
				<text freecad:editable="FC-SI" x="150" y="248"><tspan>A4</tspan></text>
				<text freecad:editable="FC-SH" x="170" y="248"><tspan>1 / 1</tspan></text>
				<text freecad:editable="FC-SC" x="190" y="248"><tspan>1.5</tspan></text>
				<text freecad:editable="PN" x="170" y="260"><tspan></tspan></text>
				<text freecad:editable="DN" x="170" y="272"><tspan></tspan></text>
				<text freecad:editable="FC-DATE" x="160" y="284"><tspan>24.01.2016</tspan></text>
				<text freecad:editable="FC-REV" x="190" y="284"><tspan>REV A</tspan></text>
			</g>
			<!-- Set display:none to hide FreeCAD Logo -->
			<g
				style="display:inline"
				id="freecad-logo"
				transform="translate(128.5,276)"
				fill-rule="evenodd"
				stroke="#000"
				stroke-width="0.35"
				fill="none">
					<path d="m0.1524 0.15254v8.8549h1.9744v-3.4652h1.396v-1.3661h-1.396v-1.4745h3.4391v-2.5441l-5.4135-0.005z"/>
					<path d="m7.7927 3.4504-0.50715-0.176-0.48387-1.2366-0.76115 0.04-0.34718 1.2787-0.4859 0.23269-1.2119-0.53015-0.51188 0.56882 0.65892 1.1485-0.18006 0.50567-1.2366 0.48387 0.044064 0.76263 1.2787 0.34718 0.23269 0.4859-0.53421 1.2104 0.56882 0.51188 1.1485-0.65891 0.50973 0.18155 0.4798 1.2351 0.7667-0.04258 0.34311-1.2802 0.4859-0.23269 1.2145 0.5357 0.51188-0.56882-0.65891-1.1485 0.17748-0.51122 1.2351-0.4798-0.03851-0.76521-1.2802-0.34311-0.23269-0.4859 0.53163-1.216-0.56881-0.51184zm-0.5715 1.2244 0.23576 0.13679 0.20426 0.18519 0.16353 0.22101 0.11763 0.24572 0.06916 0.26489 0.01146 0.27146-0.03921 0.27139-0.08948 0.25764-0.14234 0.23834-0.17964 0.20167-0.22101 0.16353-0.24572 0.11763-0.26489 0.06916-0.27295 0.01553-0.2719-0.04-0.2576-0.089-0.2383-0.143-0.2002-0.183-0.165-0.217-0.1177-0.246-0.0676-0.269-0.0156-0.273 0.039206-0.2714 0.089484-0.25764 0.14085-0.23427 0.18113-0.20574 0.22101-0.16352 0.24572-0.11763 0.26895-0.06768 0.27147-0.01146 0.27139 0.03921 0.25764 0.08948z"/>
			</g>
		</g>
	</g>
<g id="View"
   transform="rotate(60,123,172) translate(123,172) scale(1.5,1.5)"
  >
<g   stroke="rgb(0, 0, 0)"
   stroke-width="0.4"
   stroke-linecap="butt"
   stroke-linejoin="miter"
   fill="none"
   transform="scale(1,-1)"
  >
<path id= "1" d=" M -26.4073 -8.26162 L -24.4981 -9.36389 " />
<path id= "2" d=" M -22.8073 -2.02624 L -20.8981 -3.12851 " />
<path id= "3" d=" M -26.4073 -17.8146 L -24.4981 -18.9169 " />
<path id= "4" d=" M -22.8073 -11.5792 L -20.8981 -12.6815 " />
<path id= "5" d=" M -34.8926 -22.7136 L -32.9834 -23.8159 " />
<path id= "6" d=" M -31.2926 -16.4782 L -29.3834 -17.5805 " />
<path id= "7" d=" M -34.8926 -13.1606 L -32.9834 -14.2629 " />
<path id= "8" d=" M -31.2926 -6.92522 L -29.3834 -8.02749 " />
<path id= "9" d=" M -43.3779 -18.0596 L -41.4687 -19.1618 " />
<path id= "10" d=" M -39.7779 -11.8242 L -37.8687 -12.9265 " />
<path id= "11" d=" M -43.3779 -27.6126 L -41.4687 -28.7149 " />
<path id= "12" d=" M -39.7779 -21.3772 L -37.8687 -22.4795 " />
<path id= "13" d=" M -17.922 -3.36264 L -16.0128 -4.46491 " />
<path id= "14" d=" M -14.322 2.87274 L -12.4128 1.77047 " />
<path id= "15" d=" M -17.922 -12.9157 L -16.0128 -14.0179 " />
<path id= "16" d=" M -14.322 -6.68027 L -12.4128 -7.78254 " />
<path id= "17" d=" M 8.5205 11.904 L 10.4297 10.8017 " />
<path id= "18" d=" M 12.1205 18.1393 L 14.0297 17.0371 " />
<path id= "19" d=" M 8.5205 2.35096 L 10.4297 1.24869 " />
<path id= "20" d=" M 12.1205 8.58634 L 14.0297 7.48407 " />
<path id= "21" d=" M 0.0352231 -2.54802 L 1.94441 -3.65029 " />
<path id= "22" d=" M 3.63522 3.68736 L 5.54441 2.58509 " />
<path id= "23" d=" M 0.0352231 7.00499 L 1.94441 5.90272 " />
<path id= "24" d=" M 3.63522 13.2404 L 5.54441 12.1381 " />
<path id= "25" d=" M -8.45006 2.10601 L -6.54087 1.00374 " />
<path id= "26" d=" M -4.85006 8.34139 L -2.94087 7.23912 " />
<path id= "27" d=" M -8.45006 -7.447 L -6.54087 -8.54927 " />
<path id= "28" d=" M -4.85006 -1.21162 L -2.94087 -2.31389 " />
<path id= "29" d=" M 17.0058 16.8029 L 18.915 15.7007 " />
<path id= "30" d=" M 20.6058 23.0383 L 22.515 21.9361 " />
<path id= "31" d=" M 17.0058 7.24994 L 18.915 6.14767 " />
<path id= "32" d=" M 20.6058 13.4853 L 22.515 12.383 " />
</g>
<g   stroke="rgb(0, 0, 0)"
   stroke-width="0.4"
   stroke-linecap="butt"
   stroke-linejoin="miter"
   fill="none"
   transform="scale(1,-1)"
  >
<path id= "1" d=" M -8.98351 5.18663 L -10.1823 5.87878 " />
<path id= "2" d=" M -43.9113 -13.5947 L -42.5952 -12.8348 " />
<path id= "3" d=" M -40.5605 -11.6601 L -34.1099 -7.93584 " />
<path id= "4" d=" M -32.0752 -6.7611 L -25.6247 -3.03686 " />
<path id= "5" d=" M -23.59 -1.86212 L -17.1394 1.86212 " />
<path id= "6" d=" M -15.1047 3.03686 L -10.1823 5.87878 " />
<path id= "7" d=" M -33.729 -38.8244 L -43.9113 -32.9456 " />
<path id= "8" d=" M -43.9113 -32.9456 L -43.9113 -27.0169 " />
<path id= "9" d=" M -43.9113 -24.6674 L -43.9113 -17.4638 " />
<path id= "10" d=" M -43.9113 -15.1144 L -43.9113 -13.5947 " />
<path id= "11" d=" M -1.47966e-12 -19.351 L -10.1823 -13.4722 " />
<path id= "12" d=" M -1.47966e-12 -17.9667 L -1.47966e-12 -19.351 " />
<path id= "13" d=" M -10.1823 5.87878 L -10.1823 -13.4722 " />
<path id= "14" d=" M -1.47966e-12 -19.351 L -33.729 -38.8244 " />
<path id= "15" d=" M -10.1823 -13.4722 L -43.9113 -32.9456 " />
<path d="M-20.1525 -4.7765 A3.6 2.07846 60 0 1 -20.8981 -3.12851" />
<path d="M-24.4981 -9.36389 A3.6 2.07846 60 0 1 -20.1525 -4.7765" />
<path d="M-20.1525 -14.3295 A3.6 2.07846 60 0 1 -20.8981 -12.6815" />
<path d="M-24.4981 -18.9169 A3.6 2.07846 60 0 1 -20.1525 -14.3295" />
<path d="M-28.6378 -19.2285 A3.6 2.07846 60 0 1 -29.3834 -17.5805" />
<path d="M-32.9834 -23.8159 A3.6 2.07846 60 0 1 -28.6378 -19.2285" />
<path d="M-28.6378 -9.67548 A3.6 2.07846 60 0 1 -29.3834 -8.02749" />
<path d="M-32.9834 -14.2629 A3.6 2.07846 60 0 1 -28.6378 -9.67548" />
<path d="M-37.1231 -14.5745 A3.6 2.07846 60 0 1 -37.8687 -12.9265" />
<path d="M-41.4687 -19.1618 A3.6 2.07846 60 0 1 -37.1231 -14.5745" />
<path d="M-37.1231 -24.1275 A3.6 2.07846 60 0 1 -37.8687 -22.4795" />
<path d="M-41.4687 -28.7149 A3.6 2.07846 60 0 1 -37.1231 -24.1275" />
<path d="M-11.6673 0.122474 A3.6 2.07846 60 0 1 -12.4128 1.77047" />
<path d="M-16.0128 -4.46491 A3.6 2.07846 60 0 1 -11.6673 0.122474" />
<path d="M-11.6673 -9.43054 A3.6 2.07846 60 0 1 -12.4128 -7.78254" />
<path d="M-16.0128 -14.0179 A3.6 2.07846 60 0 1 -11.6673 -9.43054" />
<path d="M-22.0617 -3.67423 A3.6 2.07846 60 0 1 -22.8073 -2.02624" />
<path d="M-22.8073 -2.02624 A3.6 2.07846 60 0 1 -26.4073 -8.26162" />
<path d="M-26.4073 -8.26162 A3.6 2.07846 60 0 1 -22.0617 -3.67423" />
<path d="M-22.0617 -13.2272 A3.6 2.07846 60 0 1 -22.8073 -11.5792" />
<path d="M-22.8073 -11.5792 A3.6 2.07846 60 0 1 -26.4073 -17.8146" />
<path d="M-26.4073 -17.8146 A3.6 2.07846 60 0 1 -22.0617 -13.2272" />
<path d="M-30.547 -18.1262 A3.6 2.07846 60 0 1 -31.2926 -16.4782" />
<path d="M-31.2926 -16.4782 A3.6 2.07846 60 0 1 -34.8926 -22.7136" />
<path d="M-34.8926 -22.7136 A3.6 2.07846 60 0 1 -30.547 -18.1262" />
<path d="M-30.547 -8.57321 A3.6 2.07846 60 0 1 -31.2926 -6.92522" />
<path d="M-31.2926 -6.92522 A3.6 2.07846 60 0 1 -34.8926 -13.1606" />
<path d="M-34.8926 -13.1606 A3.6 2.07846 60 0 1 -30.547 -8.57321" />
<path d="M-39.0323 -13.4722 A3.6 2.07846 60 0 1 -39.7779 -11.8242" />
<path d="M-39.7779 -11.8242 A3.6 2.07846 60 0 1 -43.3779 -18.0596" />
<path d="M-43.3779 -18.0596 A3.6 2.07846 60 0 1 -39.0323 -13.4722" />
<path d="M-39.0323 -23.0252 A3.6 2.07846 60 0 1 -39.7779 -21.3772" />
<path d="M-39.7779 -21.3772 A3.6 2.07846 60 0 1 -43.3779 -27.6126" />
<path d="M-43.3779 -27.6126 A3.6 2.07846 60 0 1 -39.0323 -23.0252" />
<path d="M-13.5765 1.22474 A3.6 2.07846 60 0 1 -14.322 2.87274" />
<path d="M-14.322 2.87274 A3.6 2.07846 60 0 1 -17.922 -3.36264" />
<path d="M-17.922 -3.36264 A3.6 2.07846 60 0 1 -13.5765 1.22474" />
<path d="M-13.5765 -8.32827 A3.6 2.07846 60 0 1 -14.322 -6.68027" />
<path d="M-14.322 -6.68027 A3.6 2.07846 60 0 1 -17.922 -12.9157" />
<path d="M-17.922 -12.9157 A3.6 2.07846 60 0 1 -13.5765 -8.32827" />
<path id= "56" d=" M 34.9278 20.1656 L 24.7455 26.0444 " />
<path id= "57" d=" M -8.98351 6.57092 L -7.66741 7.33077 " />
<path id= "58" d=" M -5.63271 8.5055 L 0.817874 12.2298 " />
<path id= "59" d=" M 2.85257 13.4045 L 9.30315 17.1287 " />
<path id= "60" d=" M 11.3379 18.3035 L 17.7884 22.0277 " />
<path id= "61" d=" M 19.8231 23.2024 L 24.7455 26.0444 " />
<path id= "62" d=" M 1.19883 -18.6588 L -8.98351 -12.7801 " />
<path id= "63" d=" M -8.98351 -12.7801 L -8.98351 -6.85126 " />
<path id= "64" d=" M -8.98351 -4.5018 L -8.98351 2.70175 " />
<path id= "65" d=" M -8.98351 5.05121 L -8.98351 6.57092 " />
<path id= "66" d=" M 34.9278 0.814618 L 24.7455 6.69339 " />
<path id= "67" d=" M 34.9278 20.1656 L 34.9278 0.814618 " />
<path id= "68" d=" M 24.7455 26.0444 L 24.7455 6.69339 " />
<path id= "69" d=" M 34.9278 0.814618 L 1.19883 -18.6588 " />
<path id= "70" d=" M 24.7455 6.69339 L -8.98351 -12.7801 " />
<path d="M14.7753 15.3891 A3.6 2.07846 60 0 1 14.0297 17.0371" />
<path d="M10.4297 10.8017 A3.6 2.07846 60 0 1 14.7753 15.3891" />
<path d="M14.7753 5.83607 A3.6 2.07846 60 0 1 14.0297 7.48407" />
<path d="M10.4297 1.24869 A3.6 2.07846 60 0 1 14.7753 5.83607" />
<path d="M6.29 0.937092 A3.6 2.07846 60 0 1 5.54441 2.58509" />
<path d="M1.94441 -3.65029 A3.6 2.07846 60 0 1 6.29 0.937092" />
<path d="M6.29 10.4901 A3.6 2.07846 60 0 1 5.54441 12.1381" />
<path d="M1.94441 5.90272 A3.6 2.07846 60 0 1 6.29 10.4901" />
<path d="M-2.19529 5.59112 A3.6 2.07846 60 0 1 -2.94087 7.23912" />
<path d="M-6.54087 1.00374 A3.6 2.07846 60 0 1 -2.19529 5.59112" />
<path d="M-2.19529 -3.96189 A3.6 2.07846 60 0 1 -2.94087 -2.31389" />
<path d="M-6.54087 -8.54927 A3.6 2.07846 60 0 1 -2.19529 -3.96189" />
<path d="M23.2606 20.2881 A3.6 2.07846 60 0 1 22.515 21.9361" />
<path d="M18.915 15.7007 A3.6 2.07846 60 0 1 23.2606 20.2881" />
<path d="M23.2606 10.7351 A3.6 2.07846 60 0 1 22.515 12.383" />
<path d="M18.915 6.14767 A3.6 2.07846 60 0 1 23.2606 10.7351" />
<path d="M12.8661 16.4914 A3.6 2.07846 60 0 1 12.1205 18.1393" />
<path d="M12.1205 18.1393 A3.6 2.07846 60 0 1 8.5205 11.904" />
<path d="M8.5205 11.904 A3.6 2.07846 60 0 1 12.8661 16.4914" />
<path d="M12.8661 6.93834 A3.6 2.07846 60 0 1 12.1205 8.58634" />
<path d="M12.1205 8.58634 A3.6 2.07846 60 0 1 8.5205 2.35096" />
<path d="M8.5205 2.35096 A3.6 2.07846 60 0 1 12.8661 6.93834" />
<path d="M4.38081 2.03936 A3.6 2.07846 60 0 1 3.63522 3.68736" />
<path d="M3.63522 3.68736 A3.6 2.07846 60 0 1 0.0352231 -2.54802" />
<path d="M0.0352231 -2.54802 A3.6 2.07846 60 0 1 4.38081 2.03936" />
<path d="M4.38081 11.5924 A3.6 2.07846 60 0 1 3.63522 13.2404" />
<path d="M3.63522 13.2404 A3.6 2.07846 60 0 1 0.0352231 7.00499" />
<path d="M0.0352231 7.00499 A3.6 2.07846 60 0 1 4.38081 11.5924" />
<path d="M-4.10447 6.69339 A3.6 2.07846 60 0 1 -4.85006 8.34139" />
<path d="M-4.85006 8.34139 A3.6 2.07846 60 0 1 -8.45006 2.10601" />
<path d="M-8.45006 2.10601 A3.6 2.07846 60 0 1 -4.10447 6.69339" />
<path d="M-4.10447 -2.85962 A3.6 2.07846 60 0 1 -4.85006 -1.21162" />
<path d="M-4.85006 -1.21162 A3.6 2.07846 60 0 1 -8.45006 -7.447" />
<path d="M-8.45006 -7.447 A3.6 2.07846 60 0 1 -4.10447 -2.85962" />
<path d="M21.3514 21.3903 A3.6 2.07846 60 0 1 20.6058 23.0383" />
<path d="M20.6058 23.0383 A3.6 2.07846 60 0 1 17.0058 16.8029" />
<path d="M17.0058 16.8029 A3.6 2.07846 60 0 1 21.3514 21.3903" />
<path d="M21.3514 11.8373 A3.6 2.07846 60 0 1 20.6058 13.4853" />
<path d="M20.6058 13.4853 A3.6 2.07846 60 0 1 17.0058 7.24994" />
<path d="M17.0058 7.24994 A3.6 2.07846 60 0 1 21.3514 11.8373" />
</g>
</g>



<g id="View001"
   transform="rotate(60,125.5,127) translate(125.5,127) scale(1.5,1.5)"
  >
<g   stroke="rgb(0, 0, 0)"
   stroke-width="0.4"
   stroke-linecap="butt"
   stroke-linejoin="miter"
   fill="none"
   transform="scale(1,-1)"
  >
<path id= "1" d=" M -19.8312 7.29264 L -17.922 6.19037 " />
<path id= "2" d=" M -16.2312 13.528 L -14.322 12.4258 " />
<path id= "3" d=" M -19.8312 -2.26037 L -17.922 -3.36264 " />
<path id= "4" d=" M -16.2312 3.97501 L -14.322 2.87274 " />
<path id= "5" d=" M -28.3165 -7.15935 L -26.4073 -8.26162 " />
<path id= "6" d=" M -24.7165 -0.923967 L -22.8073 -2.02624 " />
<path id= "7" d=" M -28.3165 2.39366 L -26.4073 1.29139 " />
<path id= "8" d=" M -24.7165 8.62904 L -22.8073 7.52677 " />
<path id= "9" d=" M -36.8018 -2.50532 L -34.8926 -3.60759 " />
<path id= "10" d=" M -33.2018 3.73006 L -31.2926 2.62779 " />
<path id= "11" d=" M -36.8018 -12.0583 L -34.8926 -13.1606 " />
<path id= "12" d=" M -33.2018 -5.82295 L -31.2926 -6.92522 " />
<path id= "13" d=" M -11.3459 12.1916 L -9.43675 11.0893 " />
<path id= "14" d=" M -7.74594 18.427 L -5.83675 17.3247 " />
<path id= "15" d=" M -11.3459 2.63861 L -9.43675 1.53634 " />
<path id= "16" d=" M -7.74594 8.87399 L -5.83675 7.77172 " />
</g>
<g   stroke="rgb(0, 0, 0)"
   stroke-width="0.4"
   stroke-linecap="butt"
   stroke-linejoin="miter"
   fill="none"
   transform="scale(1,-1)"
  >
<path id= "1" d=" M 6.57609 15.5543 L -3.60624 21.433 " />
<path id= "2" d=" M -37.3352 1.95959 L -36.0191 2.71944 " />
<path id= "3" d=" M -33.9844 3.89418 L -27.5339 7.61842 " />
<path id= "4" d=" M -25.4992 8.79316 L -19.0486 12.5174 " />
<path id= "5" d=" M -17.0139 13.6921 L -10.5633 17.4164 " />
<path id= "6" d=" M -8.52859 18.5911 L -3.60624 21.433 " />
<path id= "7" d=" M -27.1529 -23.2702 L -37.3352 -17.3914 " />
<path id= "8" d=" M -37.3352 -17.3914 L -37.3352 -11.4626 " />
<path id= "9" d=" M -37.3352 -9.11312 L -37.3352 -1.90958 " />
<path id= "10" d=" M -37.3352 0.439887 L -37.3352 1.95959 " />
<path id= "11" d=" M 6.57609 -3.79671 L -3.60624 2.08207 " />
<path id= "12" d=" M 6.57609 15.5543 L 6.57609 -3.79671 " />
<path id= "13" d=" M -3.60624 21.433 L -3.60624 2.08207 " />
<path id= "14" d=" M 6.57609 -3.79671 L -27.1529 -23.2702 " />
<path id= "15" d=" M -3.60624 2.08207 L -37.3352 -17.3914 " />
<path d="M-13.5765 10.7778 A3.6 2.07846 60 0 1 -14.322 12.4258" />
<path d="M-17.922 6.19037 A3.6 2.07846 60 0 1 -13.5765 10.7778" />
<path d="M-13.5765 1.22474 A3.6 2.07846 60 0 1 -14.322 2.87274" />
<path d="M-17.922 -3.36264 A3.6 2.07846 60 0 1 -13.5765 1.22474" />
<path d="M-22.0617 -3.67423 A3.6 2.07846 60 0 1 -22.8073 -2.02624" />
<path d="M-26.4073 -8.26162 A3.6 2.07846 60 0 1 -22.0617 -3.67423" />
<path d="M-22.0617 5.87878 A3.6 2.07846 60 0 1 -22.8073 7.52677" />
<path d="M-26.4073 1.29139 A3.6 2.07846 60 0 1 -22.0617 5.87878" />
<path d="M-30.547 0.979796 A3.6 2.07846 60 0 1 -31.2926 2.62779" />
<path d="M-34.8926 -3.60759 A3.6 2.07846 60 0 1 -30.547 0.979796" />
<path d="M-30.547 -8.57321 A3.6 2.07846 60 0 1 -31.2926 -6.92522" />
<path d="M-34.8926 -13.1606 A3.6 2.07846 60 0 1 -30.547 -8.57321" />
<path d="M-5.09117 15.6767 A3.6 2.07846 60 0 1 -5.83675 17.3247" />
<path d="M-9.43675 11.0893 A3.6 2.07846 60 0 1 -5.09117 15.6767" />
<path d="M-5.09117 6.12372 A3.6 2.07846 60 0 1 -5.83675 7.77172" />
<path d="M-9.43675 1.53634 A3.6 2.07846 60 0 1 -5.09117 6.12372" />
<path d="M-15.4856 11.88 A3.6 2.07846 60 0 1 -16.2312 13.528" />
<path d="M-16.2312 13.528 A3.6 2.07846 60 0 1 -19.8312 7.29264" />
<path d="M-19.8312 7.29264 A3.6 2.07846 60 0 1 -15.4856 11.88" />
<path d="M-15.4856 2.32702 A3.6 2.07846 60 0 1 -16.2312 3.97501" />
<path d="M-16.2312 3.97501 A3.6 2.07846 60 0 1 -19.8312 -2.26037" />
<path d="M-19.8312 -2.26037 A3.6 2.07846 60 0 1 -15.4856 2.32702" />
<path d="M-23.9709 -2.57196 A3.6 2.07846 60 0 1 -24.7165 -0.923967" />
<path d="M-24.7165 -0.923967 A3.6 2.07846 60 0 1 -28.3165 -7.15935" />
<path d="M-28.3165 -7.15935 A3.6 2.07846 60 0 1 -23.9709 -2.57196" />
<path d="M-23.9709 6.98105 A3.6 2.07846 60 0 1 -24.7165 8.62904" />
<path d="M-24.7165 8.62904 A3.6 2.07846 60 0 1 -28.3165 2.39366" />
<path d="M-28.3165 2.39366 A3.6 2.07846 60 0 1 -23.9709 6.98105" />
<path d="M-32.4562 2.08207 A3.6 2.07846 60 0 1 -33.2018 3.73006" />
<path d="M-33.2018 3.73006 A3.6 2.07846 60 0 1 -36.8018 -2.50532" />
<path d="M-36.8018 -2.50532 A3.6 2.07846 60 0 1 -32.4562 2.08207" />
<path d="M-32.4562 -7.47094 A3.6 2.07846 60 0 1 -33.2018 -5.82295" />
<path d="M-33.2018 -5.82295 A3.6 2.07846 60 0 1 -36.8018 -12.0583" />
<path d="M-36.8018 -12.0583 A3.6 2.07846 60 0 1 -32.4562 -7.47094" />
<path d="M-7.00036 16.779 A3.6 2.07846 60 0 1 -7.74594 18.427" />
<path d="M-7.74594 18.427 A3.6 2.07846 60 0 1 -11.3459 12.1916" />
<path d="M-11.3459 12.1916 A3.6 2.07846 60 0 1 -7.00036 16.779" />
<path d="M-7.00036 7.22599 A3.6 2.07846 60 0 1 -7.74594 8.87399" />
<path d="M-7.74594 8.87399 A3.6 2.07846 60 0 1 -11.3459 2.63861" />
<path d="M-11.3459 2.63861 A3.6 2.07846 60 0 1 -7.00036 7.22599" />
</g>
</g>



<g id="View002"
   transform="rotate(60,123,94) translate(123,94) scale(1.5,1.5)"
  >
<g   stroke="rgb(0, 0, 0)"
   stroke-width="0.4"
   stroke-linecap="butt"
   stroke-linejoin="miter"
   fill="none"
   transform="scale(1,-1)"
  >
<path id= "1" d=" M -53.5602 -2.1379 L -51.651 -3.24017 " />
<path id= "2" d=" M -49.9602 4.09749 L -48.051 2.99522 " />
<path id= "3" d=" M -45.2871 2.63861 L -43.3779 1.53634 " />
<path id= "4" d=" M -41.6871 8.87399 L -39.7779 7.77172 " />
<path id= "5" d=" M -45.2871 -7.15935 L -43.3779 -8.26162 " />
<path id= "6" d=" M -41.6871 -0.923967 L -39.7779 -2.02624 " />
<path id= "7" d=" M -53.5602 -11.9359 L -51.651 -13.0381 " />
<path id= "8" d=" M -49.9602 -5.70047 L -48.051 -6.80274 " />
<path id= "9" d=" M -53.5602 -21.7338 L -51.651 -22.8361 " />
<path id= "10" d=" M -49.9602 -15.4984 L -48.051 -16.6007 " />
<path id= "11" d=" M -45.2871 -16.9573 L -43.3779 -18.0596 " />
<path id= "12" d=" M -41.6871 -10.7219 L -39.7779 -11.8242 " />
<path id= "13" d=" M -53.5602 7.66006 L -51.651 6.55779 " />
<path id= "14" d=" M -49.9602 13.8954 L -48.051 12.7932 " />
<path id= "15" d=" M -45.2871 12.4366 L -43.3779 11.3343 " />
<path id= "16" d=" M -41.6871 18.672 L -39.7779 17.5697 " />
</g>
<g   stroke="rgb(0, 0, 0)"
   stroke-width="0.4"
   stroke-linecap="butt"
   stroke-linejoin="miter"
   fill="none"
   transform="scale(1,-1)"
  >
<path id= "1" d=" M -43.9113 -32.9456 L -54.0937 -27.0669 " />
<path id= "2" d=" M -54.0937 -27.0669 L -54.0937 -21.1381 " />
<path id= "3" d=" M -54.0937 -18.7886 L -54.0937 -11.3401 " />
<path id= "4" d=" M -54.0937 -8.99065 L -54.0937 -1.54216 " />
<path id= "5" d=" M -54.0937 0.807311 L -54.0937 8.2558 " />
<path id= "6" d=" M -54.0937 10.6053 L -54.0937 11.88 " />
<path id= "7" d=" M -27.1529 -23.2702 L -37.3352 -17.3914 " />
<path id= "8" d=" M -27.1529 -23.2702 L -43.9113 -32.9456 " />
<path id= "9" d=" M -37.3352 -17.3914 L -54.0937 -27.0669 " />
<path id= "10" d=" M -27.1529 15.6767 L -37.3352 21.5555 " />
<path id= "11" d=" M -54.0937 11.88 L -53.1673 12.4148 " />
<path id= "12" d=" M -50.3531 14.0396 L -44.8942 17.1913 " />
<path id= "13" d=" M -42.0799 18.8162 L -37.3352 21.5555 " />
<path id= "14" d=" M -27.1529 15.6767 L -27.1529 -23.2702 " />
<path id= "15" d=" M -37.3352 21.5555 L -37.3352 -17.3914 " />
<path d="M-51.651 -3.24017 A3.6 2.07846 60 0 1 -48.051 2.99522" />
<path d="M-43.3779 1.53634 A3.6 2.07846 60 0 1 -39.7779 7.77172" />
<path d="M-43.3779 -8.26162 A3.6 2.07846 60 0 1 -39.7779 -2.02624" />
<path d="M-51.651 -13.0381 A3.6 2.07846 60 0 1 -48.051 -6.80274" />
<path d="M-51.651 -22.8361 A3.6 2.07846 60 0 1 -48.051 -16.6007" />
<path d="M-43.3779 -18.0596 A3.6 2.07846 60 0 1 -39.7779 -11.8242" />
<path d="M-51.651 6.55779 A3.6 2.07846 60 0 1 -48.051 12.7932" />
<path d="M-43.3779 11.3343 A3.6 2.07846 60 0 1 -39.7779 17.5697" />
<path d="M-51.7602 3.91918 A3.6 2.07846 60 0 1 -53.5602 -2.1379" />
<path d="M-53.5602 -2.1379 A3.6 2.07846 60 0 1 -49.9602 4.09749" />
<path d="M-49.9602 4.09749 A3.6 2.07846 60 0 1 -51.7602 3.91918" />
<path d="M-43.4871 8.69569 A3.6 2.07846 60 0 1 -45.2871 2.63861" />
<path d="M-45.2871 2.63861 A3.6 2.07846 60 0 1 -41.6871 8.87399" />
<path d="M-41.6871 8.87399 A3.6 2.07846 60 0 1 -43.4871 8.69569" />
<path d="M-43.4871 -1.10227 A3.6 2.07846 60 0 1 -45.2871 -7.15935" />
<path d="M-45.2871 -7.15935 A3.6 2.07846 60 0 1 -41.6871 -0.923967" />
<path d="M-41.6871 -0.923967 A3.6 2.07846 60 0 1 -43.4871 -1.10227" />
<path d="M-51.7602 -5.87878 A3.6 2.07846 60 0 1 -53.5602 -11.9359" />
<path d="M-53.5602 -11.9359 A3.6 2.07846 60 0 1 -49.9602 -5.70047" />
<path d="M-49.9602 -5.70047 A3.6 2.07846 60 0 1 -51.7602 -5.87878" />
<path d="M-51.7602 -15.6767 A3.6 2.07846 60 0 1 -53.5602 -21.7338" />
<path d="M-53.5602 -21.7338 A3.6 2.07846 60 0 1 -49.9602 -15.4984" />
<path d="M-49.9602 -15.4984 A3.6 2.07846 60 0 1 -51.7602 -15.6767" />
<path d="M-43.4871 -10.9002 A3.6 2.07846 60 0 1 -45.2871 -16.9573" />
<path d="M-45.2871 -16.9573 A3.6 2.07846 60 0 1 -41.6871 -10.7219" />
<path d="M-41.6871 -10.7219 A3.6 2.07846 60 0 1 -43.4871 -10.9002" />
<path d="M-51.7602 13.7171 A3.6 2.07846 60 0 1 -53.5602 7.66006" />
<path d="M-53.5602 7.66006 A3.6 2.07846 60 0 1 -49.9602 13.8954" />
<path d="M-49.9602 13.8954 A3.6 2.07846 60 0 1 -51.7602 13.7171" />
<path d="M-43.4871 18.4936 A3.6 2.07846 60 0 1 -45.2871 12.4366" />
<path d="M-45.2871 12.4366 A3.6 2.07846 60 0 1 -41.6871 18.672" />
<path d="M-41.6871 18.672 A3.6 2.07846 60 0 1 -43.4871 18.4936" />
</g>
</g>



<g transform="scale(1.500000,1.500000)" stroke="rgb(0,0,255)"  stroke-width="0.213333" > <path d="M 49.937632,72.786665 L 49.937632,74.786665 M 49.937632,76.119999 L 49.937632,80.119999 M 49.937632,81.453332 L 49.937632,83.453332 M 49.937632,84.786665 L 49.937632,88.786665 M 49.937632,90.119999 L 49.937632,92.119999 M 49.937632,93.453332 L 49.937632,97.453332 M 49.937632,98.786665 L 49.937632,100.786665 M 49.937632,102.119999 L 49.937632,103.751155 "/>
<path d="M 49.937632,72.786665 L 49.937632,74.786665 M 49.937632,76.119999 L 49.937632,80.119999 M 49.937632,81.453332 L 49.937632,83.453332 M 49.937632,84.786665 L 49.937632,88.786665 M 49.937632,90.119999 L 49.937632,92.119999 M 49.937632,93.453332 L 49.937632,97.453332 M 49.937632,98.786665 L 49.937632,100.786665 M 49.937632,102.119999 L 49.937632,103.466124 "/> </g> 


<g transform="scale(1.500000,1.500000)" stroke="rgb(0,0,255)"  stroke-width="0.213333" > <path d="M 83.666664,92.260083 L 83.666664,94.260083 M 83.666664,95.593416 L 83.666664,99.593416 M 83.666664,100.926749 L 83.666664,102.926749 M 83.666664,104.260083 L 83.666664,108.260083 M 83.666664,109.593416 L 83.666664,111.593416 M 83.666664,112.926749 L 83.666664,116.926749 M 83.666664,118.260083 L 83.666664,120.260083 M 83.666664,121.593416 L 83.666664,122.563177 "/>
<path d="M 83.666664,92.260083 L 83.666664,94.260083 M 83.666664,95.593416 L 83.666664,99.593416 M 83.666664,100.926749 L 83.666664,102.926749 M 83.666664,104.260083 L 83.666664,108.260083 M 83.666664,109.593416 L 83.666664,111.593416 M 83.666664,112.926749 L 83.666664,116.926749 M 83.666664,118.260083 L 83.666664,120.260083 M 83.666664,121.593416 L 83.666664,123.133239 "/> </g> 


<g transform="scale(1.500000,1.500000)" stroke="rgb(0,0,255)"  stroke-width="0.213333" > <path d="M 100.425131,82.584578 L 100.425131,84.584578 M 100.425131,85.917911 L 100.425131,89.917911 M 100.425131,91.251244 L 100.425131,93.251244 M 100.425131,94.584578 L 100.425131,98.584578 M 100.425131,99.917911 L 100.425131,101.917911 M 100.425131,103.251244 L 100.425131,107.251244 M 100.425131,108.584578 L 100.425131,110.584578 M 100.425131,111.917911 L 100.425131,112.872135 "/>
<path d="M 100.425131,82.584578 L 100.425131,84.584578 M 100.425131,85.917911 L 100.425131,89.917911 M 100.425131,91.251244 L 100.425131,93.251244 M 100.425131,94.584578 L 100.425131,98.584578 M 100.425131,99.917911 L 100.425131,101.917911 M 100.425131,103.251244 L 100.425131,107.251244 M 100.425131,108.584578 L 100.425131,110.584578 M 100.425131,111.917911 L 100.425131,113.157166 "/> </g> 


<g transform="scale(1.500000,1.500000)" stroke="rgb(0,0,255)"  stroke-width="0.213333" > <path d="M 31.512623,93.111165 L 31.512623,91.111165 M 31.512623,89.777832 L 31.512623,85.777832 M 31.512623,84.444499 L 31.512623,82.444499 M 31.512623,81.111165 L 31.512623,77.111165 M 31.512623,75.777832 L 31.512623,73.777832 M 31.512623,72.444499 L 31.512623,68.444499 M 31.512623,67.111165 L 31.512623,65.111165 M 31.512623,63.777832 L 31.512623,59.777832 M 31.512623,58.444499 L 31.512623,56.444499 M 31.512623,55.111165 L 31.512623,51.111165 M 31.512623,49.777832 L 31.512623,47.777832 M 31.512623,46.444499 L 31.512623,42.444499 "/>
<path d="M 31.512623,93.111165 L 31.512623,91.111165 M 31.512623,89.777832 L 31.512623,85.777832 M 31.512623,84.444499 L 31.512623,82.444499 M 31.512623,81.111165 L 31.512623,77.111165 M 31.512623,75.777832 L 31.512623,73.777832 M 31.512623,72.444499 L 31.512623,68.444499 M 31.512623,67.111165 L 31.512623,65.111165 M 31.512623,63.777832 L 31.512623,59.777832 M 31.512623,58.444499 L 31.512623,56.444499 M 31.512623,55.111165 L 31.512623,51.111165 M 31.512623,49.777832 L 31.512623,47.777832 M 31.512623,46.444499 L 31.512623,42.444499 "/> </g> 


<g transform="scale(1.500000,1.500000)" stroke="rgb(0,0,255)"  stroke-width="0.213333" > <path d="M 48.270966,50.786665 L 48.270966,52.786665 M 48.270966,54.119999 L 48.270966,58.119999 M 48.270966,59.453332 L 48.270966,61.453332 M 48.270966,62.786665 L 48.270966,66.786665 M 48.270966,68.119999 L 48.270966,70.119999 M 48.270966,71.453332 L 48.270966,75.453332 M 48.270966,76.786665 L 48.270966,78.786665 M 48.270966,80.119999 L 48.270966,84.119999 M 48.270966,85.453332 L 48.270966,87.453332 M 48.270966,88.786665 L 48.270966,92.786665 M 48.270966,94.119999 L 48.270966,96.119999 M 48.270966,97.453332 L 48.270966,101.453332 "/>
<path d="M 48.270966,50.786665 L 48.270966,52.786665 M 48.270966,54.119999 L 48.270966,58.119999 M 48.270966,59.453332 L 48.270966,61.453332 M 48.270966,62.786665 L 48.270966,66.786665 M 48.270966,68.119999 L 48.270966,70.119999 M 48.270966,71.453332 L 48.270966,75.453332 M 48.270966,76.786665 L 48.270966,78.786665 M 48.270966,80.119999 L 48.270966,84.119999 M 48.270966,85.453332 L 48.270966,87.453332 M 48.270966,88.786665 L 48.270966,92.786665 M 48.270966,94.119999 L 48.270966,96.119999 M 48.270966,97.453332 L 48.270966,101.453332 "/> </g> 


<g> <text x="91.718700" y="195.098700" font-family="inherit" font-size="9" fill="rgb(0,0,255)" text-anchor="inherit" transform="rotate(0.000000 91.718700,195.098700)" >1.</text> </g>


<g> <text x="154.068600" y="123.067300" font-family="inherit" font-size="9" fill="rgb(0,0,255)" text-anchor="inherit" transform="rotate(0.000000 154.068600,123.067300)" >2.</text> </g>


<g> <text x="126.966800" y="45.638400" font-family="inherit" font-size="9" fill="rgb(0,0,255)" text-anchor="inherit" transform="rotate(0.000000 126.966800,45.638400)" >3.</text> </g>


<g> <text x="24.700000" y="259.404200" font-family="inherit" font-size="5" fill="rgb(0,0,255)" text-anchor="inherit" transform="rotate(0.000000 24.700000,259.404200)" >1. Join two 2X4 blocks to form a 2X8 bar</text> </g>


<g> <text x="24.700000" y="265.672500" font-family="inherit" font-size="5" fill="rgb(0,0,255)" text-anchor="inherit" transform="rotate(0.000000 24.700000,265.672500)" >2. Add a 2X4 block at the center of the bar</text> </g>


<g> <text x="24.700000" y="271.513200" font-family="inherit" font-size="5" fill="rgb(0,0,255)" text-anchor="inherit" transform="rotate(0.000000 24.700000,271.513200)" >3. Add a rotated 2X4 block at one of the ends</text> </g>


<g> <text x="24.700000" y="250.969483" font-family="inherit" font-size="5" fill="rgb(0,0,255)" text-anchor="inherit" transform="rotate(0.000000 24.700000,250.969483)" >Instructions:</text> </g>


<g> <text x="29.000000" y="277.200000" font-family="inherit" font-size="5" fill="rgb(0,0,255)" text-anchor="inherit" transform="rotate(0.000000 29.000000,277.200000)" >of the bar</text> </g>


</svg>

